<?xml version="1.0" encoding="UTF-8"?>
<svg width="210px" height="54px" viewBox="0 0 210 54" version="1.1" xmlns="http://www.w3.org/2000/svg" xmlns:xlink="http://www.w3.org/1999/xlink">
    <!-- Generator: Sketch 46.1 (44463) - http://www.bohemiancoding.com/sketch -->
    <title>confirm-btn-2</title>
    <desc>Created with Sketch.</desc>
    <defs>
        <polygon id="path-1" points="178.575865 0.46285 176.099545 40.3166 3.98242925 40.3166 0.574290818 0.46285 178.575865 0.46285"></polygon>
        <polygon id="path-3" points="0.574290818 0.46285 3.98242925 40.3166 176.099545 40.3166 178.575865 0.46285"></polygon>
    </defs>
    <g id="Symbols" stroke="none" stroke-width="1" fill="none" fill-rule="evenodd">
        <g id="confirm-btn-2">
            <g id="Page-1" transform="translate(0.000000, 2.000000)">
                <g id="Group-15" transform="translate(14.000000, 0.000000)">
                    <path d="M0.9213,6.2414 C60.3653,1.5624 120.0853,1.5624 179.5293,6.2414" id="Stroke-1" stroke="#000000"></path>
                    <path d="M0.9213,4.1096 C60.3653,-0.5684 120.0853,-0.5684 179.5293,4.1096" id="Stroke-3" stroke="#000000" stroke-width="2"></path>
                    <path d="M179.5297,46.0217 C120.0857,41.3427 60.3657,41.3427 0.9217,46.0217" id="Stroke-5" stroke="#000000"></path>
                    <path d="M179.5297,48.1535 C120.0857,43.4745 60.3657,43.4745 0.9217,48.1535" id="Stroke-7" stroke="#000000" stroke-width="2"></path>
                    <g id="Group-11" transform="translate(1.000000, 4.000000)">
                        <mask id="mask-2" fill="white">
                            <use xlink:href="#path-1"></use>
                        </mask>
                        <g id="Clip-10"></g>
                        <path d="M178.5307,40.3166 C119.5347,35.6736 60.2657,35.6736 1.2697,40.3166 C0.3187,28.2306 -0.6333,16.1436 -1.5843,4.0576 C59.3117,-0.7354 120.4887,-0.7354 181.3847,4.0576 C180.4327,16.1436 179.4817,28.2306 178.5307,40.3166" id="Fill-9" fill="#000000" mask="url(#mask-2)"></path>
                    </g>
                    <g id="Group-14" transform="translate(1.000000, 4.000000)">
                        <mask id="mask-4" fill="white">
                            <use xlink:href="#path-3"></use>
                        </mask>
                        <g id="Clip-13"></g>
                        <path d="M178.5307,40.3166 C119.5347,35.6736 60.2657,35.6736 1.2697,40.3166 C0.3187,28.2306 -0.6333,16.1436 -1.5843,4.0576 C59.3117,-0.7354 120.4887,-0.7354 181.3847,4.0576 C180.4327,16.1436 179.4817,28.2306 178.5307,40.3166 Z" id="Stroke-12" stroke="#000000" mask="url(#mask-4)"></path>
                    </g>
                </g>
                <g id="Group-95" transform="translate(0.000000, 2.000000)">
                    <path d="M2.9364,36.0295 C5.0844,35.0415 7.4934,34.7165 9.9194,34.4145 C12.3954,34.1065 14.7544,34.2465 17.0764,34.7645 C17.0624,34.6115 17.0544,34.5165 17.0454,34.4215 C16.3294,26.4105 15.6054,18.4005 14.9164,10.3875 C14.8774,9.9305 14.5964,9.7145 13.9624,9.6225 C13.9044,9.6135 13.8464,9.6055 13.7884,9.5955 C11.3494,9.1995 8.8414,9.2225 6.2974,9.5335 C4.5124,9.7525 2.8194,10.1655 1.2704,10.8425 C0.8644,11.0205 0.6824,11.1955 0.7114,11.5175 C1.4514,19.6035 2.1704,27.6905 2.8944,35.7785 C2.9024,35.8605 2.9214,35.9415 2.9364,36.0295" id="Fill-16" fill="#FFFFFF"></path>
                    <path d="M17.7621,42.4534 C17.7461,42.2734 17.7351,42.1514 17.7241,42.0294 C17.5661,40.2524 17.3991,38.4754 17.2601,36.6974 C17.2401,36.4504 17.1031,36.3074 16.7541,36.2364 C16.5981,36.2044 16.4511,36.1574 16.2951,36.1274 C14.6421,35.8054 12.9211,35.6534 11.1581,35.6584 C10.3271,35.6614 9.4641,35.7164 8.6491,35.8574 C6.7681,36.1824 5.1141,36.8464 3.5191,37.5814 C3.1871,37.7344 3.1061,37.8884 3.1291,38.1234 C3.3081,39.9664 3.4661,41.8104 3.6321,43.6544 C3.6381,43.7244 3.6601,43.7944 3.6791,43.8854 C6.6001,41.6804 13.8341,40.7754 17.7621,42.4534" id="Fill-18" fill="#FFFFFF"></path>
                    <path d="M12.059,47.3 C12.054,47.28 12.05,47.262 12.045,47.242 C12.143,47.271 12.252,47.335 12.339,47.321 C12.605,47.278 12.859,47.177 13.125,47.146 C14.543,46.982 15.765,46.541 16.843,45.922 C18.551,44.943 18.476,43.723 16.663,43.022 C16.204,42.844 15.687,42.698 15.158,42.613 C12.371,42.167 9.604,42.401 6.887,43.242 C5.894,43.55 5.012,43.963 4.39,44.568 C3.723,45.215 3.734,45.893 4.423,46.424 C5.009,46.876 5.805,47.134 6.691,47.302 C6.786,47.32 6.949,47.342 6.986,47.314 C7.339,47.048 7.335,47.321 7.41,47.381 C7.731,47.353 8.011,47.327 8.302,47.302 C8.308,47.373 8.314,47.439 8.32,47.505 C8.364,47.503 8.408,47.501 8.452,47.498 C8.445,47.417 8.469,47.325 8.417,47.26 C8.39,47.225 8.233,47.222 8.135,47.227 C7.991,47.236 7.846,47.264 7.701,47.283 C7.697,47.26 7.693,47.237 7.69,47.213 C8.038,47.161 8.385,47.11 8.745,47.056 C8.777,47.242 8.8,47.374 8.827,47.528 C8.984,47.527 9.127,47.526 9.3,47.525 C9.301,47.339 9.302,47.183 9.303,47.052 C9.89,46.999 10.412,46.953 10.949,46.904 C10.986,47.09 11.019,47.257 11.061,47.468 C11.418,47.408 11.739,47.354 12.059,47.3" id="Fill-20" fill="#FFFFFF"></path>
                    <path d="M14.7304,9.5471 C14.8554,9.0351 14.8344,9.0021 14.2274,8.8081 C14.0574,8.7531 13.8754,8.7081 13.6914,8.6721 C12.3274,8.4051 10.8874,8.4491 9.4474,8.4551 C6.3974,8.4691 3.5734,9.0641 0.9034,10.1141 C0.6844,10.2001 0.5694,10.2831 0.6314,10.4431 C0.6804,10.5671 0.7014,10.6961 0.7394,10.8421 C0.8554,10.8051 0.9144,10.7921 0.9634,10.7701 C3.1304,9.7921 5.5264,9.3151 8.0564,9.1491 C10.3424,8.9981 12.6474,8.7921 14.7304,9.5471" id="Fill-22" fill="#FFFFFF"></path>
                    <path d="M17.0785,35.5891 C17.2045,35.1901 17.1735,35.1211 16.6125,34.9461 C16.3085,34.8521 15.9855,34.7551 15.6495,34.7301 C14.6315,34.6541 13.6075,34.5751 12.5755,34.5681 C9.3065,34.5421 6.1885,35.0351 3.2875,36.2121 C3.0075,36.3251 2.9005,36.4281 2.9755,36.6121 C3.0185,36.7191 3.0425,36.8291 3.0815,36.9601 C3.1975,36.9231 3.2685,36.9061 3.3285,36.8801 C4.7405,36.2501 6.2625,35.8011 7.9055,35.5521 C10.1945,35.2031 12.4915,35.0351 14.7695,35.1941 C15.5655,35.2511 16.3155,35.4541 17.0785,35.5891" id="Fill-24" fill="#FFFFFF"></path>
                    <path d="M9.5873,47.1282 C9.6143,47.2732 9.6403,47.4062 9.6713,47.5692 C9.7983,47.3872 9.8923,47.2512 9.9863,47.1152 L10.1203,47.1422 C10.1513,47.2692 10.1823,47.3952 10.2193,47.5472 C10.3133,47.3602 10.3823,47.2222 10.4513,47.0842 C10.4983,47.0902 10.5453,47.0952 10.5933,47.1012 C10.6143,47.2062 10.6343,47.3112 10.6553,47.4162 C10.6753,47.4132 10.6943,47.4112 10.7133,47.4082 C10.6923,47.2882 10.6713,47.1692 10.6473,47.0332 C10.2963,47.0662 9.9673,47.0952 9.5873,47.1282" id="Fill-26" fill="#FFFFFF"></path>
                    <path d="M1.9799,7.1067 C1.9719,7.0987 1.9419,7.0857 1.9409,7.0697 C1.8519,6.1477 1.7619,5.2267 1.6879,4.3037 C1.6829,4.2347 1.7709,4.1267 1.8649,4.0857 C2.5569,3.7797 3.2239,3.4327 3.9679,3.1997 C6.8989,2.2797 9.7419,2.4447 12.5119,3.1087 C12.6409,3.1397 12.7679,3.2657 12.7779,3.3597 C12.8739,4.2317 12.9439,5.1067 13.0189,5.9817 C13.0219,6.0247 12.9949,6.0717 12.9769,6.1357 C12.3989,6.0817 11.8569,6.0097 11.3029,5.9817 C10.4719,5.9387 9.6299,5.9317 8.7969,5.8967 C8.6599,5.8907 8.4349,5.8287 8.4279,5.7747 C8.3399,5.0587 8.2839,4.3397 8.2179,3.6017 C9.3769,3.4397 10.3809,3.5827 11.3359,3.8667 C11.3949,3.8827 11.4569,3.9317 11.4609,3.9717 C11.5019,4.3297 11.5309,4.6877 11.5629,5.0507 C10.9319,5.0407 10.3529,5.0377 9.7769,5.0157 C9.6589,5.0107 9.4839,4.9487 9.4629,4.8877 C9.4059,4.7267 9.4189,4.5527 9.4009,4.3527 C9.8249,4.3557 10.2679,4.1937 10.3479,4.5767 C10.3529,4.6027 10.4769,4.6397 10.5259,4.6277 C10.6549,4.5987 10.8769,4.5407 10.8779,4.5027 C10.8829,4.3327 11.0159,4.0857 10.6119,4.0547 C10.1519,4.0187 9.6749,4.0327 9.2039,4.0277 C8.9439,4.0247 8.8489,4.1107 8.8689,4.2697 C8.9039,4.5567 8.9379,4.8447 8.9459,5.1337 C8.9519,5.3227 9.0699,5.3587 9.3639,5.3547 C10.1859,5.3417 11.0029,5.3657 11.8229,5.3747 C11.9099,5.3757 11.9979,5.3757 12.1479,5.3757 C12.0989,4.8207 12.0559,4.2847 11.9959,3.7517 C11.9899,3.6957 11.9049,3.6317 11.8249,3.6027 C10.5399,3.1447 9.1139,3.1527 7.6429,3.2987 C7.6239,3.3577 7.6039,3.3857 7.6059,3.4137 C7.6849,4.3267 7.7699,5.2387 7.8399,6.1527 C7.8559,6.3497 8.0499,6.3327 8.2769,6.3347 C9.5719,6.3437 10.8669,6.3527 12.1579,6.3857 C12.6459,6.3987 13.1209,6.4747 13.6499,6.5267 C13.5599,5.5167 13.3919,4.5607 13.4179,3.5957 C13.4359,2.9557 12.9509,2.6907 12.1299,2.5367 C12.0009,2.5117 11.8749,2.4757 11.7409,2.4677 C10.5519,2.4017 9.3659,2.3167 8.1689,2.2827 C5.6389,2.2107 3.4179,2.8477 1.3949,3.8727 C1.2399,3.9507 1.0939,4.1177 1.0999,4.2327 C1.1479,5.3017 1.2299,6.3707 1.3049,7.4377 C1.3099,7.5087 1.3399,7.5777 1.3679,7.6807 C3.1059,7.1017 4.8889,6.7287 6.7109,6.4477 C7.0229,6.3997 6.9919,6.2667 6.9789,6.1287 C6.9009,5.2747 6.8269,4.4187 6.7479,3.5637 C6.7419,3.5017 6.7089,3.4407 6.6849,3.3677 C5.2399,3.4847 3.9709,3.8827 2.7539,4.3727 C2.6519,4.4137 2.5879,4.5547 2.5909,4.6437 C2.6029,5.0097 2.6469,5.3747 2.6799,5.7397 C2.6959,5.9147 2.7109,6.0897 2.7239,6.2277 C3.7939,6.0077 4.7829,5.8047 5.8399,5.5867 C5.8099,5.2467 5.7859,4.8637 5.7289,4.4837 C5.7219,4.4367 5.5299,4.3657 5.4469,4.3797 C4.8539,4.4827 4.2679,4.6037 3.6799,4.7197 C3.7219,4.9497 3.7509,5.1077 3.7889,5.3197 C3.9999,5.2477 4.2799,5.1927 4.2859,5.1417 C4.3309,4.7387 4.7919,4.8157 5.2169,4.7527 C5.2339,4.9447 5.2629,5.1147 5.2549,5.2847 C5.2529,5.3337 5.1589,5.4167 5.0859,5.4307 C4.4769,5.5557 3.8629,5.6687 3.1909,5.7947 C3.1559,5.4007 3.1039,5.0297 3.1049,4.6557 C3.1049,4.5797 3.2769,4.4677 3.4089,4.4147 C4.2819,4.0577 5.2569,3.9387 6.2569,3.7717 C6.3269,4.5567 6.3949,5.3107 6.4579,6.0197 C4.9399,6.3877 3.4619,6.7467 1.9799,7.1067 M0.1139,6.5247 C0.0809,5.7077 0.0709,4.8867 0.0029,4.0717 C-0.0231,3.7547 0.1289,3.5157 0.4619,3.2717 C2.9109,1.4797 5.9059,0.7637 9.4039,1.0037 C10.5989,1.0857 11.7709,1.2037 12.8189,1.5577 C13.6809,1.8487 14.1869,2.2757 14.2299,2.9437 C14.3349,4.5597 14.4939,6.1717 14.6289,7.7867 C14.6359,7.8707 14.6239,7.9577 14.6209,8.0307 C9.8029,7.2197 5.1139,7.4397 0.5239,9.3257 C0.4399,8.9627 0.3519,8.5807 0.2629,8.1967 C0.2129,7.6397 0.1639,7.0827 0.1139,6.5247" id="Fill-28" fill="#000000"></path>
                    <path d="M2.9364,36.0295 C2.9214,35.9415 2.9024,35.8605 2.8944,35.7785 C2.1704,27.6905 1.4514,19.6035 0.7114,11.5175 C0.6824,11.1955 0.8644,11.0205 1.2704,10.8425 C2.8194,10.1655 4.5124,9.7525 6.2974,9.5335 C8.8414,9.2225 11.3494,9.1995 13.7884,9.5955 C13.8464,9.6055 13.9044,9.6135 13.9624,9.6225 C14.5964,9.7145 14.8774,9.9305 14.9164,10.3875 C15.6054,18.4005 16.3294,26.4105 17.0454,34.4215 C17.0544,34.5165 17.0624,34.6115 17.0764,34.7645 C14.7544,34.2465 12.3954,34.1065 9.9194,34.4145 C7.4934,34.7165 5.0844,35.0415 2.9364,36.0295" id="Fill-30" fill="#000000"></path>
                    <path d="M5.1308,41.3703 C5.1228,41.3643 5.0898,41.3523 5.0878,41.3373 C4.9988,40.4163 4.9068,39.4943 4.8328,38.5723 C4.8278,38.5033 4.9168,38.3943 5.0108,38.3523 C5.6878,38.0523 6.3418,37.7113 7.0698,37.4803 C10.0298,36.5483 12.9008,36.6983 15.6938,37.3913 C15.8118,37.4213 15.9018,37.5593 15.9128,37.6563 C16.0058,38.5093 16.0808,39.3643 16.1558,40.2193 C16.1608,40.2793 16.1298,40.3433 16.1298,40.3453 C14.7008,40.2853 13.3128,40.2213 11.9208,40.1733 C11.6528,40.1633 11.5498,40.1103 11.5378,39.9443 C11.4908,39.3193 11.4368,38.6943 11.3668,38.0713 C11.3468,37.8903 11.4578,37.8283 11.7288,37.8123 C12.6728,37.7583 13.5518,37.8583 14.3718,38.1003 C14.4778,38.1323 14.6018,38.2083 14.6118,38.2753 C14.6658,38.6163 14.6838,38.9613 14.7158,39.3223 C14.1908,39.3113 13.7078,39.2953 13.2238,39.2923 C12.5868,39.2893 12.5728,39.2943 12.5738,38.8893 C12.5748,38.8013 12.6948,38.6393 12.7798,38.6293 C13.0108,38.6003 13.3558,38.5043 13.4378,38.7273 C13.5338,38.9903 13.7608,38.8973 14.0318,38.8333 C13.9808,38.6383 14.1898,38.3613 13.7468,38.3213 C13.1938,38.2723 12.6178,38.2893 12.0218,38.2773 C12.0668,38.7743 12.1038,39.1913 12.1378,39.5703 C13.2058,39.5823 14.2298,39.5943 15.2888,39.6053 C15.2598,39.2833 15.2298,38.9493 15.1998,38.6143 C15.1328,37.8613 15.1378,37.8543 14.0058,37.6193 C12.9618,37.4013 11.8638,37.4843 10.7278,37.5573 C10.8108,38.4913 10.9068,39.3823 10.9608,40.2753 C10.9778,40.5533 11.1328,40.6233 11.5638,40.6023 C13.1938,40.5233 14.8098,40.5283 16.3758,40.7603 C16.4968,40.7783 16.6288,40.7723 16.8048,40.7803 C16.7928,40.6463 16.7838,40.5523 16.7758,40.4573 C16.6958,39.5633 16.5538,38.6743 16.5608,37.7763 C16.5658,37.2423 16.1698,37.0023 15.4858,36.8543 C15.3308,36.8213 15.1788,36.7753 15.0158,36.7633 C13.9688,36.6823 12.9268,36.5723 11.8698,36.5383 C9.1928,36.4503 6.7578,36.9893 4.5628,38.1033 C4.2938,38.2403 4.1918,38.3703 4.2098,38.5773 C4.2978,39.5853 4.3608,40.5973 4.4358,41.6063 C4.4438,41.7073 4.4698,41.8063 4.4948,41.9463 C6.2538,41.3773 8.0338,40.9983 9.8518,40.7093 C10.1248,40.6663 10.1418,40.5613 10.1288,40.4233 C10.0478,39.5683 9.9678,38.7143 9.9018,37.8583 C9.8868,37.6693 9.7808,37.6173 9.4778,37.6583 C8.2108,37.8303 7.0398,38.1683 5.9298,38.6153 C5.8388,38.6523 5.7208,38.7373 5.7238,38.7913 C5.7588,39.3653 5.8168,39.9363 5.8668,40.5013 C6.9318,40.2783 7.9428,40.0663 8.9618,39.8533 C8.9258,39.4613 8.8898,39.0533 8.8508,38.6213 C8.6518,38.6393 8.4828,38.6433 8.3198,38.6713 C8.0338,38.7203 7.7498,38.7753 7.4708,38.8433 C6.7638,39.0113 6.7248,39.0683 6.9838,39.5693 C7.1428,39.5143 7.4218,39.4603 7.4278,39.4063 C7.4788,39.0063 7.9248,39.0783 8.3558,39.0363 C8.3718,39.2123 8.4048,39.3723 8.3908,39.5333 C8.3848,39.5913 8.2788,39.6843 8.1958,39.7023 C7.5928,39.8263 6.9838,39.9343 6.3298,40.0583 C6.2948,39.6743 6.2498,39.3213 6.2428,38.9673 C6.2408,38.8883 6.3438,38.7673 6.4528,38.7223 C7.3558,38.3413 8.3648,38.2033 9.3848,38.0463 C9.4568,38.8473 9.5238,39.5993 9.5848,40.2853 C8.0608,40.6563 6.5988,41.0133 5.1308,41.3703 M17.7618,42.4533 C13.8348,40.7753 6.5998,41.6803 3.6798,43.8853 C3.6608,43.7943 3.6388,43.7243 3.6318,43.6543 C3.4658,41.8103 3.3088,39.9663 3.1298,38.1233 C3.1068,37.8883 3.1878,37.7343 3.5198,37.5813 C5.1138,36.8463 6.7688,36.1833 8.6488,35.8573 C9.4638,35.7163 10.3278,35.6613 11.1578,35.6583 C12.9218,35.6533 14.6428,35.8053 16.2948,36.1273 C16.4518,36.1573 16.5978,36.2043 16.7538,36.2363 C17.1038,36.3083 17.2398,36.4503 17.2598,36.6973 C17.3998,38.4753 17.5668,40.2523 17.7248,42.0293 C17.7348,42.1513 17.7468,42.2733 17.7618,42.4533" id="Fill-32" fill="#000000"></path>
                    <path d="M12.059,47.3 C11.739,47.354 11.418,47.408 11.061,47.468 C11.019,47.257 10.986,47.09 10.949,46.904 C10.412,46.953 9.89,46.999 9.303,47.052 C9.302,47.183 9.301,47.339 9.3,47.525 C9.127,47.526 8.984,47.527 8.827,47.528 C8.8,47.374 8.777,47.242 8.745,47.056 C8.385,47.11 8.038,47.161 7.69,47.213 C7.693,47.237 7.697,47.26 7.701,47.283 C7.846,47.264 7.991,47.236 8.135,47.227 C8.233,47.222 8.39,47.225 8.417,47.26 C8.469,47.325 8.445,47.417 8.452,47.498 C8.408,47.501 8.364,47.503 8.32,47.505 C8.314,47.439 8.308,47.373 8.302,47.302 C8.011,47.327 7.731,47.353 7.41,47.381 C7.335,47.321 7.339,47.048 6.986,47.314 C6.949,47.342 6.786,47.32 6.691,47.302 C5.805,47.134 5.009,46.876 4.423,46.424 C3.734,45.893 3.723,45.215 4.39,44.568 C5.012,43.963 5.894,43.55 6.887,43.242 C9.604,42.401 12.371,42.167 15.158,42.613 C15.687,42.698 16.204,42.844 16.663,43.022 C18.476,43.723 18.551,44.943 16.843,45.922 C15.765,46.541 14.543,46.982 13.125,47.146 C12.859,47.177 12.605,47.278 12.339,47.321 C12.252,47.335 12.143,47.271 12.045,47.242 C12.05,47.262 12.054,47.28 12.059,47.3" id="Fill-34" fill="#000000"></path>
                    <path d="M14.7304,9.5471 C12.6474,8.7921 10.3424,8.9981 8.0564,9.1491 C5.5264,9.3151 3.1304,9.7921 0.9634,10.7701 C0.9144,10.7921 0.8554,10.8051 0.7394,10.8421 C0.7014,10.6961 0.6804,10.5671 0.6314,10.4431 C0.5694,10.2831 0.6844,10.2001 0.9034,10.1141 C3.5734,9.0641 6.3974,8.4691 9.4474,8.4551 C10.8874,8.4491 12.3274,8.4051 13.6914,8.6721 C13.8754,8.7081 14.0574,8.7531 14.2274,8.8081 C14.8344,9.0021 14.8554,9.0351 14.7304,9.5471" id="Fill-36" fill="#000000"></path>
                    <path d="M17.0785,35.5891 C16.3155,35.4541 15.5655,35.2511 14.7695,35.1941 C12.4915,35.0351 10.1945,35.2031 7.9055,35.5521 C6.2625,35.8011 4.7405,36.2501 3.3285,36.8801 C3.2685,36.9061 3.1975,36.9231 3.0815,36.9601 C3.0425,36.8291 3.0185,36.7191 2.9755,36.6121 C2.9005,36.4281 3.0075,36.3251 3.2875,36.2121 C6.1885,35.0351 9.3065,34.5421 12.5755,34.5681 C13.6075,34.5751 14.6315,34.6541 15.6495,34.7301 C15.9855,34.7551 16.3085,34.8521 16.6125,34.9461 C17.1735,35.1211 17.2045,35.1901 17.0785,35.5891" id="Fill-38" fill="#000000"></path>
                    <path d="M9.5873,47.1282 C9.9673,47.0952 10.2963,47.0662 10.6473,47.0332 C10.6713,47.1692 10.6923,47.2882 10.7133,47.4082 C10.6943,47.4112 10.6753,47.4132 10.6553,47.4162 C10.6343,47.3112 10.6143,47.2062 10.5933,47.1012 C10.5453,47.0952 10.4983,47.0902 10.4513,47.0842 C10.3823,47.2222 10.3133,47.3602 10.2193,47.5472 C10.1823,47.3952 10.1513,47.2692 10.1203,47.1422 L9.9863,47.1152 C9.8923,47.2512 9.7983,47.3872 9.6713,47.5692 C9.6403,47.4062 9.6143,47.2732 9.5873,47.1282" id="Fill-40" fill="#000000"></path>
                    <path d="M1.9799,7.1067 C3.4619,6.7467 4.9399,6.3877 6.4579,6.0197 C6.3949,5.3107 6.3269,4.5567 6.2569,3.7717 C5.2569,3.9387 4.2819,4.0577 3.4089,4.4147 C3.2769,4.4677 3.1049,4.5797 3.1049,4.6557 C3.1039,5.0297 3.1559,5.4007 3.1909,5.7947 C3.8629,5.6687 4.4769,5.5557 5.0859,5.4307 C5.1589,5.4167 5.2529,5.3337 5.2549,5.2847 C5.2629,5.1147 5.2339,4.9447 5.2169,4.7527 C4.7919,4.8157 4.3309,4.7387 4.2859,5.1417 C4.2799,5.1927 3.9999,5.2477 3.7889,5.3197 C3.7509,5.1077 3.7219,4.9497 3.6799,4.7197 C4.2679,4.6037 4.8539,4.4827 5.4469,4.3797 C5.5299,4.3657 5.7219,4.4367 5.7289,4.4837 C5.7859,4.8637 5.8099,5.2467 5.8399,5.5867 C4.7829,5.8047 3.7939,6.0077 2.7239,6.2277 C2.7109,6.0897 2.6959,5.9147 2.6799,5.7397 C2.6469,5.3747 2.6029,5.0097 2.5909,4.6437 C2.5879,4.5547 2.6519,4.4137 2.7539,4.3727 C3.9709,3.8827 5.2399,3.4847 6.6849,3.3677 C6.7089,3.4407 6.7419,3.5017 6.7479,3.5637 C6.8269,4.4187 6.9009,5.2747 6.9789,6.1287 C6.9919,6.2667 7.0229,6.3997 6.7109,6.4477 C4.8889,6.7287 3.1059,7.1017 1.3679,7.6807 C1.3399,7.5777 1.3099,7.5087 1.3049,7.4377 C1.2299,6.3707 1.1479,5.3017 1.0999,4.2327 C1.0939,4.1177 1.2399,3.9507 1.3949,3.8727 C3.4179,2.8477 5.6389,2.2107 8.1689,2.2827 C9.3659,2.3167 10.5519,2.4017 11.7409,2.4677 C11.8749,2.4757 12.0009,2.5117 12.1299,2.5367 C12.9509,2.6907 13.4359,2.9557 13.4179,3.5957 C13.3919,4.5607 13.5599,5.5167 13.6499,6.5267 C13.1209,6.4747 12.6459,6.3987 12.1579,6.3857 C10.8669,6.3527 9.5719,6.3437 8.2769,6.3347 C8.0499,6.3327 7.8559,6.3497 7.8399,6.1527 C7.7699,5.2387 7.6849,4.3267 7.6059,3.4137 C7.6039,3.3857 7.6239,3.3577 7.6429,3.2987 C9.1139,3.1527 10.5399,3.1447 11.8249,3.6027 C11.9049,3.6317 11.9899,3.6957 11.9959,3.7517 C12.0559,4.2847 12.0989,4.8207 12.1479,5.3757 C11.9979,5.3757 11.9099,5.3757 11.8229,5.3747 C11.0029,5.3657 10.1859,5.3417 9.3639,5.3547 C9.0699,5.3587 8.9519,5.3227 8.9459,5.1337 C8.9379,4.8447 8.9039,4.5567 8.8689,4.2697 C8.8489,4.1107 8.9439,4.0247 9.2039,4.0277 C9.6749,4.0327 10.1519,4.0187 10.6119,4.0547 C11.0159,4.0857 10.8829,4.3327 10.8779,4.5027 C10.8769,4.5407 10.6549,4.5987 10.5259,4.6277 C10.4769,4.6397 10.3529,4.6027 10.3479,4.5767 C10.2679,4.1937 9.8249,4.3557 9.4009,4.3527 C9.4189,4.5527 9.4059,4.7267 9.4629,4.8877 C9.4839,4.9487 9.6589,5.0107 9.7769,5.0157 C10.3529,5.0377 10.9319,5.0407 11.5629,5.0507 C11.5309,4.6877 11.5019,4.3297 11.4609,3.9717 C11.4569,3.9317 11.3949,3.8827 11.3359,3.8667 C10.3809,3.5827 9.3769,3.4397 8.2179,3.6017 C8.2839,4.3397 8.3399,5.0587 8.4279,5.7747 C8.4349,5.8287 8.6599,5.8907 8.7969,5.8967 C9.6299,5.9317 10.4719,5.9387 11.3029,5.9817 C11.8569,6.0097 12.3989,6.0817 12.9769,6.1357 C12.9949,6.0717 13.0219,6.0247 13.0189,5.9817 C12.9439,5.1067 12.8739,4.2317 12.7779,3.3597 C12.7679,3.2657 12.6409,3.1397 12.5119,3.1087 C9.7419,2.4447 6.8989,2.2797 3.9679,3.1997 C3.2239,3.4327 2.5569,3.7797 1.8649,4.0857 C1.7709,4.1267 1.6829,4.2347 1.6879,4.3037 C1.7619,5.2267 1.8519,6.1477 1.9409,7.0697 C1.9419,7.0857 1.9719,7.0987 1.9799,7.1067" id="Fill-42" fill="#FFFFFF"></path>
                    <path d="M5.1308,41.3703 C6.5988,41.0133 8.0608,40.6563 9.5848,40.2853 C9.5238,39.5993 9.4568,38.8473 9.3848,38.0463 C8.3648,38.2033 7.3558,38.3413 6.4528,38.7223 C6.3438,38.7673 6.2408,38.8883 6.2428,38.9673 C6.2498,39.3213 6.2948,39.6743 6.3298,40.0583 C6.9838,39.9343 7.5928,39.8263 8.1958,39.7023 C8.2788,39.6843 8.3848,39.5913 8.3908,39.5333 C8.4048,39.3723 8.3718,39.2123 8.3558,39.0363 C7.9248,39.0783 7.4788,39.0063 7.4278,39.4063 C7.4218,39.4603 7.1428,39.5143 6.9838,39.5693 C6.7248,39.0683 6.7638,39.0113 7.4708,38.8433 C7.7498,38.7753 8.0338,38.7203 8.3198,38.6713 C8.4828,38.6433 8.6518,38.6393 8.8508,38.6213 C8.8898,39.0533 8.9258,39.4613 8.9618,39.8533 C7.9428,40.0663 6.9318,40.2783 5.8668,40.5013 C5.8168,39.9363 5.7588,39.3653 5.7238,38.7913 C5.7208,38.7373 5.8388,38.6523 5.9298,38.6153 C7.0398,38.1683 8.2108,37.8303 9.4778,37.6583 C9.7808,37.6173 9.8868,37.6693 9.9018,37.8583 C9.9678,38.7143 10.0478,39.5683 10.1288,40.4233 C10.1418,40.5613 10.1248,40.6663 9.8518,40.7093 C8.0338,40.9983 6.2538,41.3773 4.4948,41.9463 C4.4698,41.8063 4.4438,41.7073 4.4358,41.6063 C4.3608,40.5973 4.2978,39.5853 4.2098,38.5773 C4.1918,38.3703 4.2938,38.2403 4.5628,38.1033 C6.7578,36.9893 9.1928,36.4503 11.8698,36.5383 C12.9268,36.5723 13.9688,36.6823 15.0158,36.7633 C15.1788,36.7753 15.3308,36.8213 15.4858,36.8543 C16.1698,37.0023 16.5658,37.2423 16.5608,37.7763 C16.5538,38.6743 16.6958,39.5633 16.7758,40.4573 C16.7838,40.5523 16.7928,40.6463 16.8048,40.7803 C16.6288,40.7723 16.4968,40.7783 16.3758,40.7603 C14.8098,40.5283 13.1938,40.5233 11.5638,40.6023 C11.1328,40.6233 10.9778,40.5533 10.9608,40.2753 C10.9068,39.3823 10.8108,38.4913 10.7278,37.5573 C11.8638,37.4843 12.9618,37.4013 14.0058,37.6193 C15.1378,37.8543 15.1328,37.8613 15.1998,38.6143 C15.2298,38.9493 15.2598,39.2833 15.2888,39.6053 C14.2298,39.5943 13.2058,39.5823 12.1378,39.5703 C12.1038,39.1913 12.0668,38.7743 12.0218,38.2773 C12.6178,38.2893 13.1938,38.2723 13.7468,38.3213 C14.1898,38.3613 13.9808,38.6383 14.0318,38.8333 C13.7608,38.8973 13.5338,38.9903 13.4378,38.7273 C13.3558,38.5043 13.0108,38.6003 12.7798,38.6293 C12.6948,38.6393 12.5748,38.8013 12.5738,38.8893 C12.5728,39.2943 12.5868,39.2893 13.2238,39.2923 C13.7078,39.2953 14.1908,39.3113 14.7158,39.3223 C14.6838,38.9613 14.6658,38.6163 14.6118,38.2753 C14.6018,38.2083 14.4778,38.1323 14.3718,38.1003 C13.5518,37.8583 12.6728,37.7583 11.7288,37.8123 C11.4578,37.8283 11.3468,37.8903 11.3668,38.0713 C11.4368,38.6943 11.4908,39.3193 11.5378,39.9443 C11.5498,40.1103 11.6528,40.1633 11.9208,40.1733 C13.3128,40.2213 14.7008,40.2853 16.1298,40.3453 C16.1298,40.3433 16.1608,40.2793 16.1558,40.2193 C16.0808,39.3643 16.0058,38.5093 15.9128,37.6563 C15.9018,37.5593 15.8118,37.4213 15.6938,37.3913 C12.9008,36.6983 10.0298,36.5483 7.0698,37.4803 C6.3418,37.7113 5.6878,38.0523 5.0108,38.3523 C4.9168,38.3943 4.8278,38.5033 4.8328,38.5723 C4.9068,39.4943 4.9988,40.4163 5.0878,41.3373 C5.0898,41.3523 5.1228,41.3643 5.1308,41.3703" id="Fill-44" fill="#FFFFFF"></path>
                    <path d="M18.289,44.6623 C18.437,46.3183 15.292,47.9533 11.266,48.3123 C7.239,48.6733 3.854,47.6213 3.706,45.9653 C3.559,44.3083 6.703,42.6753 10.729,42.3143 C14.756,41.9553 18.141,43.0063 18.289,44.6623" id="Fill-46" fill="#000000"></path>
                    <path d="M207.3656,35.3821 C205.1926,34.4491 202.7766,34.1851 200.3436,33.9451 C197.8606,33.7001 195.5056,33.9011 193.1986,34.4791 C193.2076,34.3251 193.2136,34.2301 193.2196,34.1341 C193.7316,26.1081 194.2506,18.0821 194.7356,10.0541 C194.7626,9.5961 195.0376,9.3731 195.6686,9.2651 C195.7266,9.2551 195.7856,9.2451 195.8436,9.2351 C198.2706,8.7761 200.7796,8.7351 203.3296,8.9811 C205.1196,9.1531 206.8226,9.5231 208.3886,10.1611 C208.7996,10.3281 208.9856,10.4981 208.9646,10.8201 C208.4306,18.9231 207.9186,27.0271 207.4006,35.1301 C207.3956,35.2121 207.3786,35.2931 207.3656,35.3821" id="Fill-48" fill="#FFFFFF"></path>
                    <path d="M192.7084,42.1819 C192.7204,42.0009 192.7284,41.8789 192.7354,41.7569 C192.8484,39.9769 192.9694,38.1969 193.0644,36.4149 C193.0774,36.1679 193.2104,36.0219 193.5584,35.9419 C193.7134,35.9059 193.8584,35.8549 194.0144,35.8209 C195.6574,35.4549 197.3754,35.2609 199.1384,35.2209 C199.9674,35.2029 200.8324,35.2359 201.6504,35.3559 C203.5394,35.6329 205.2094,36.2539 206.8224,36.9489 C207.1584,37.0929 207.2434,37.2449 207.2264,37.4799 C207.0944,39.3269 206.9834,41.1749 206.8644,43.0229 C206.8604,43.0929 206.8394,43.1619 206.8234,43.2529 C203.8474,41.1239 196.5924,40.4049 192.7084,42.1819" id="Fill-50" fill="#FFFFFF"></path>
                    <path d="M198.5336,46.8811 C198.5376,46.8621 198.5426,46.8431 198.5466,46.8231 C198.4486,46.8551 198.3416,46.9211 198.2536,46.9091 C197.9866,46.8731 197.7306,46.7781 197.4636,46.7551 C196.0416,46.6261 194.8096,46.2171 193.7156,45.6261 C191.9836,44.6901 192.0276,43.4691 193.8226,42.7221 C194.2766,42.5321 194.7886,42.3741 195.3166,42.2761 C198.0906,41.7581 200.8626,41.9211 203.6006,42.6931 C204.6006,42.9751 205.4936,43.3661 206.1306,43.9541 C206.8136,44.5841 206.8206,45.2621 206.1446,45.8111 C205.5706,46.2771 204.7816,46.5561 203.8996,46.7461 C203.8056,46.7671 203.6426,46.7931 203.6046,46.7661 C203.2456,46.5091 203.2566,46.7811 203.1826,46.8441 C202.8616,46.8231 202.5816,46.8061 202.2896,46.7871 C202.2856,46.8591 202.2816,46.9251 202.2776,46.9901 C202.2326,46.9891 202.1886,46.9881 202.1446,46.9881 C202.1496,46.9061 202.1236,46.8161 202.1736,46.7481 C202.1996,46.7121 202.3556,46.7051 202.4536,46.7081 C202.5986,46.7131 202.7446,46.7371 202.8896,46.7541 C202.8926,46.7311 202.8966,46.7071 202.8996,46.6841 C202.5506,46.6411 202.2016,46.5971 201.8406,46.5531 C201.8126,46.7401 201.7936,46.8721 201.7706,47.0271 C201.6136,47.0291 201.4706,47.0321 201.2976,47.0361 C201.2916,46.8511 201.2866,46.6941 201.2826,46.5641 C200.6946,46.5261 200.1716,46.4921 199.6336,46.4581 C199.6016,46.6441 199.5726,46.8121 199.5346,47.0251 C199.1776,46.9731 198.8556,46.9271 198.5336,46.8811" id="Fill-52" fill="#FFFFFF"></path>
                    <path d="M194.8998,9.2092 C194.7618,8.7012 194.7828,8.6672 195.3838,8.4562 C195.5528,8.3972 195.7328,8.3492 195.9168,8.3082 C197.2728,8.0072 198.7138,8.0142 200.1528,7.9822 C203.2028,7.9182 206.0408,8.4412 208.7358,9.4232 C208.9578,9.5042 209.0748,9.5842 209.0168,9.7452 C208.9708,9.8702 208.9538,10.0002 208.9188,10.1462 C208.8018,10.1122 208.7428,10.1012 208.6938,10.0802 C206.5018,9.1582 204.0948,8.7412 201.5618,8.6402 C199.2728,8.5482 196.9628,8.4012 194.8998,9.2092" id="Fill-54" fill="#FFFFFF"></path>
                    <path d="M193.2172,35.303 C193.0812,34.907 193.1112,34.837 193.6672,34.648 C193.9672,34.546 194.2882,34.441 194.6242,34.407 C195.6402,34.306 196.6602,34.2 197.6922,34.166 C200.9602,34.057 204.0892,34.471 207.0192,35.574 C207.3022,35.68 207.4112,35.779 207.3412,35.965 C207.3012,36.074 207.2802,36.185 207.2442,36.316 C207.1282,36.282 207.0562,36.267 206.9952,36.241 C205.5682,35.649 204.0352,35.239 202.3862,35.031 C200.0892,34.741 197.7882,34.631 195.5152,34.85 C194.7212,34.926 193.9762,35.149 193.2172,35.303" id="Fill-56" fill="#FFFFFF"></path>
                    <path d="M201.0004,46.6467 C200.9764,46.7917 200.9544,46.9257 200.9274,47.0897 C200.7954,46.9107 200.6984,46.7777 200.6004,46.6447 C200.5564,46.6547 200.5124,46.6647 200.4674,46.6737 C200.4394,46.8007 200.4124,46.9287 200.3784,47.0827 C200.2804,46.8977 200.2084,46.7607 200.1354,46.6257 C200.0884,46.6317 200.0414,46.6377 199.9944,46.6447 C199.9764,46.7507 199.9574,46.8567 199.9394,46.9617 C199.9194,46.9587 199.9004,46.9577 199.8814,46.9557 C199.8994,46.8347 199.9174,46.7147 199.9384,46.5797 C200.2904,46.6017 200.6194,46.6227 201.0004,46.6467" id="Fill-58" fill="#FFFFFF"></path>
                    <g id="Group-62" transform="translate(194.000000, 0.000000)" fill="#000000">
                        <path d="M9.0795,5.4719 C9.1245,4.7609 9.1725,4.0059 9.2235,3.2199 C10.2265,3.3609 11.2055,3.4549 12.0865,3.7879 C12.2195,3.8389 12.3945,3.9469 12.3965,4.0229 C12.4075,4.3959 12.3645,4.7679 12.3395,5.1639 C11.6645,5.0539 11.0485,4.9569 10.4365,4.8479 C10.3635,4.8349 10.2665,4.7539 10.2635,4.7059 C10.2515,4.5349 10.2755,4.3659 10.2875,4.1729 C10.7145,4.2259 11.1735,4.1369 11.2285,4.5379 C11.2355,4.5889 11.5175,4.6359 11.7295,4.7029 C11.7635,4.4909 11.7875,4.3309 11.8235,4.1009 C11.2335,4.0009 10.6435,3.8939 10.0485,3.8069 C9.9645,3.7939 9.7745,3.8709 9.7685,3.9179 C9.7225,4.2989 9.7075,4.6819 9.6855,5.0239 C10.7485,5.2139 11.7425,5.3919 12.8175,5.5849 C12.8265,5.4469 12.8375,5.2709 12.8495,5.0949 C12.8725,4.7289 12.9075,4.3639 12.9105,3.9969 C12.9105,3.9089 12.8435,3.7689 12.7395,3.7309 C11.5115,3.2729 10.2325,2.9069 8.7855,2.8259 C8.7625,2.8999 8.7315,2.9609 8.7265,3.0249 C8.6695,3.8809 8.6175,4.7379 8.5615,5.5939 C8.5525,5.7329 8.5245,5.8669 8.8375,5.9069 C10.6665,6.1399 12.4575,6.4679 14.2095,7.0029 C14.2355,6.8989 14.2645,6.8289 14.2675,6.7579 C14.3155,5.6889 14.3695,4.6189 14.3915,3.5479 C14.3925,3.4339 14.2435,3.2709 14.0865,3.1969 C12.0375,2.2239 9.8005,1.6439 7.2735,1.7799 C6.0785,1.8439 4.8945,1.9589 3.7075,2.0559 C3.5745,2.0669 3.4485,2.1069 3.3205,2.1339 C2.5035,2.3099 2.0255,2.5859 2.0595,3.2269 C2.1115,4.1899 1.9665,5.1499 1.9025,6.1619 C2.4305,6.0969 2.9035,6.0079 3.3915,5.9829 C4.6805,5.9169 5.9755,5.8759 7.2685,5.8319 C7.4965,5.8249 7.6905,5.8369 7.7015,5.6399 C7.7485,4.7239 7.8105,3.8099 7.8655,2.8959 C7.8665,2.8679 7.8465,2.8399 7.8255,2.7829 C6.3505,2.6729 4.9255,2.7019 3.6525,3.1929 C3.5735,3.2229 3.4905,3.2889 3.4855,3.3449 C3.4395,3.8799 3.4105,4.4159 3.3745,4.9729 C3.5255,4.9689 3.6125,4.9659 3.7005,4.9629 C4.5185,4.9339 5.3355,4.8899 6.1575,4.8809 C6.4525,4.8769 6.5695,4.8389 6.5695,4.6499 C6.5695,4.3609 6.5975,4.0719 6.6245,3.7849 C6.6405,3.6239 6.5435,3.5399 6.2835,3.5499 C5.8135,3.5669 5.3355,3.5659 4.8765,3.6139 C4.4745,3.6559 4.6135,3.8979 4.6225,4.0679 C4.6245,4.1059 4.8475,4.1589 4.9775,4.1849 C5.0265,4.1949 5.1495,4.1549 5.1545,4.1279 C5.2245,3.7429 5.6715,3.8939 6.0955,3.8799 C6.0825,4.0809 6.0995,4.2549 6.0465,4.4169 C6.0265,4.4779 5.8535,4.5449 5.7355,4.5529 C5.1615,4.5889 4.5815,4.6069 3.9515,4.6339 C3.9745,4.2699 3.9935,3.9099 4.0255,3.5519 C4.0285,3.5119 4.0905,3.4619 4.1485,3.4439 C5.0955,3.1359 6.0955,2.9669 7.2585,3.0989 C7.2115,3.8389 7.1735,4.5589 7.1035,5.2769 C7.0985,5.3309 6.8745,5.3989 6.7385,5.4089 C5.9055,5.4649 5.0655,5.4929 4.2345,5.5569 C3.6825,5.5999 3.1425,5.6849 2.5655,5.7539 C2.5455,5.6909 2.5175,5.6449 2.5195,5.6009 C2.5725,4.7249 2.6205,3.8479 2.6935,2.9729 C2.7015,2.8799 2.8255,2.7509 2.9535,2.7159 C5.7055,1.9809 8.5435,1.7439 11.4965,2.5889 C12.2465,2.8029 12.9225,3.1329 13.6215,3.4199 C13.7175,3.4589 13.8085,3.5659 13.8045,3.6339 C13.7545,4.5589 13.6875,5.4829 13.6215,6.4059 C13.6215,6.4219 13.5925,6.4369 13.5835,6.4439 C12.0935,6.1219 10.6065,5.8009 9.0795,5.4719 M15.3285,7.4909 C15.2485,7.8749 15.1705,8.2599 15.0955,8.6249 C10.4595,6.8569 5.7665,6.7569 0.9705,7.6909 C0.9655,7.6169 0.9515,7.5309 0.9565,7.4469 C1.0505,5.8289 1.1675,4.2139 1.2315,2.5949 C1.2585,1.9259 1.7525,1.4869 2.6065,1.1739 C3.6455,0.7919 4.8145,0.6449 6.0065,0.5329 C9.4965,0.2029 12.5095,0.8429 15.0035,2.5719 C15.3435,2.8069 15.5015,3.0429 15.4825,3.3599 C15.4355,4.1759 15.4465,4.9959 15.4345,5.8149 C15.3985,6.3729 15.3635,6.9319 15.3285,7.4909" id="Fill-60"></path>
                    </g>
                    <path d="M207.3656,35.3821 C207.3786,35.2931 207.3956,35.2121 207.4006,35.1301 C207.9186,27.0271 208.4306,18.9231 208.9646,10.8201 C208.9856,10.4981 208.7996,10.3281 208.3886,10.1611 C206.8226,9.5231 205.1196,9.1531 203.3296,8.9811 C200.7796,8.7351 198.2706,8.7761 195.8436,9.2351 C195.7856,9.2451 195.7266,9.2551 195.6686,9.2651 C195.0376,9.3731 194.7626,9.5961 194.7356,10.0541 C194.2506,18.0821 193.7316,26.1081 193.2196,34.1341 C193.2136,34.2301 193.2076,34.3251 193.1986,34.4791 C195.5056,33.9011 197.8606,33.7001 200.3436,33.9451 C202.7766,34.1851 205.1926,34.4491 207.3656,35.3821" id="Fill-63" fill="#000000"></path>
                    <path d="M200.828,39.8059 C200.872,39.1189 200.92,38.3649 200.971,37.5629 C201.994,37.6939 203.007,37.8049 203.919,38.1619 C204.029,38.2059 204.135,38.3239 204.136,38.4029 C204.138,38.7579 204.101,39.1109 204.077,39.4949 C203.42,39.3899 202.808,39.2959 202.202,39.1879 C202.118,39.1719 202.009,39.0809 202.003,39.0239 C201.985,38.8639 202.014,38.7019 202.025,38.5259 C202.456,38.5569 202.9,38.4739 202.962,38.8729 C202.97,38.9259 203.25,38.9729 203.411,39.0249 C203.656,38.5169 203.616,38.4599 202.905,38.3099 C202.624,38.2499 202.338,38.2019 202.052,38.1599 C201.889,38.1369 201.719,38.1369 201.519,38.1239 C201.492,38.5569 201.465,38.9649 201.44,39.3589 C202.464,39.5459 203.48,39.7319 204.55,39.9269 C204.586,39.3619 204.629,38.7879 204.649,38.2139 C204.651,38.1599 204.532,38.0779 204.439,38.0439 C203.319,37.6239 202.14,37.3169 200.869,37.1769 C200.564,37.1439 200.459,37.1989 200.45,37.3879 C200.405,38.2449 200.347,39.1019 200.287,39.9579 C200.278,40.0969 200.298,40.2009 200.572,40.2369 C202.397,40.4789 204.185,40.8119 205.959,41.3369 C205.98,41.1959 206.004,41.0959 206.009,40.9949 C206.058,39.9839 206.096,38.9719 206.158,37.9609 C206.17,37.7539 206.065,37.6269 205.793,37.4969 C203.57,36.4399 201.122,35.9619 198.449,36.1179 C197.392,36.1799 196.353,36.3149 195.308,36.4229 C195.146,36.4399 194.996,36.4909 194.842,36.5279 C194.162,36.6919 193.772,36.9419 193.79,37.4759 C193.821,38.3729 193.701,39.2669 193.644,40.1609 C193.638,40.2559 193.632,40.3519 193.623,40.4849 C193.799,40.4729 193.932,40.4749 194.052,40.4539 C195.611,40.1819 197.227,40.1369 198.858,40.1739 C199.289,40.1839 199.443,40.1099 199.453,39.8319 C199.483,38.9369 199.557,38.0439 199.616,37.1089 C198.478,37.0639 197.379,37.0089 196.341,37.2529 C195.215,37.5179 195.22,37.5249 195.172,38.2789 C195.151,38.6149 195.129,38.9499 195.109,39.2729 C196.167,39.2339 197.19,39.1959 198.258,39.1569 C198.282,38.7769 198.308,38.3599 198.34,37.8609 C197.745,37.8879 197.169,37.8859 196.618,37.9499 C196.175,37.9999 196.391,38.2709 196.345,38.4679 C196.618,38.5249 196.848,38.6129 196.937,38.3469 C197.013,38.1219 197.36,38.2089 197.592,38.2319 C197.677,38.2399 197.802,38.3989 197.804,38.4869 C197.816,38.8909 197.802,38.8869 197.165,38.9069 C196.681,38.9219 196.199,38.9509 195.674,38.9749 C195.697,38.6129 195.706,38.2669 195.751,37.9249 C195.76,37.8579 195.882,37.7789 195.987,37.7439 C196.801,37.4819 197.677,37.3579 198.621,37.3889 C198.893,37.3979 199.005,37.4559 198.99,37.6389 C198.936,38.2629 198.898,38.8889 198.868,39.5149 C198.859,39.6819 198.757,39.7369 198.49,39.7529 C197.1,39.8359 195.713,39.9359 194.287,40.0329 C194.287,40.0329 194.254,39.9679 194.258,39.9079 C194.311,39.0509 194.363,38.1949 194.435,37.3389 C194.444,37.2429 194.53,37.1019 194.648,37.0699 C197.422,36.3049 200.287,36.0809 203.27,36.9389 C204.004,37.1499 204.666,37.4739 205.351,37.7569 C205.447,37.7969 205.538,37.9029 205.535,37.9719 C205.484,38.8969 205.416,39.8199 205.35,40.7429 C205.349,40.7579 205.316,40.7709 205.308,40.7779 C203.831,40.4569 202.361,40.1379 200.828,39.8059 M192.736,41.7569 C192.849,39.9769 192.97,38.1969 193.064,36.4149 C193.078,36.1679 193.21,36.0219 193.558,35.9419 C193.713,35.9059 193.858,35.8549 194.014,35.8209 C195.658,35.4549 197.375,35.2609 199.138,35.2209 C199.967,35.2019 200.832,35.2359 201.651,35.3559 C203.539,35.6329 205.21,36.2539 206.822,36.9489 C207.158,37.0929 207.243,37.2439 207.226,37.4799 C207.095,39.3269 206.983,41.1749 206.865,43.0229 C206.86,43.0929 206.84,43.1619 206.823,43.2529 C203.848,41.1239 196.592,40.4049 192.708,42.1819 C192.72,42.0009 192.728,41.8789 192.736,41.7569" id="Fill-65" fill="#000000"></path>
                    <path d="M198.5336,46.8811 C198.8556,46.9271 199.1776,46.9731 199.5346,47.0251 C199.5726,46.8121 199.6016,46.6441 199.6336,46.4581 C200.1716,46.4921 200.6946,46.5261 201.2826,46.5641 C201.2866,46.6941 201.2916,46.8511 201.2976,47.0361 C201.4706,47.0321 201.6136,47.0291 201.7706,47.0271 C201.7936,46.8721 201.8126,46.7401 201.8406,46.5531 C202.2016,46.5971 202.5506,46.6411 202.8996,46.6841 C202.8966,46.7071 202.8926,46.7311 202.8896,46.7541 C202.7446,46.7371 202.5986,46.7131 202.4536,46.7081 C202.3556,46.7051 202.1996,46.7121 202.1736,46.7481 C202.1236,46.8161 202.1496,46.9061 202.1446,46.9881 C202.1886,46.9881 202.2326,46.9891 202.2776,46.9901 C202.2816,46.9251 202.2856,46.8591 202.2896,46.7871 C202.5816,46.8061 202.8616,46.8231 203.1826,46.8441 C203.2566,46.7811 203.2456,46.5091 203.6046,46.7661 C203.6426,46.7931 203.8056,46.7671 203.8996,46.7461 C204.7816,46.5561 205.5706,46.2771 206.1446,45.8111 C206.8206,45.2621 206.8136,44.5841 206.1306,43.9541 C205.4936,43.3661 204.6006,42.9751 203.6006,42.6931 C200.8626,41.9211 198.0906,41.7581 195.3166,42.2761 C194.7886,42.3741 194.2766,42.5321 193.8226,42.7221 C192.0276,43.4691 191.9836,44.6901 193.7156,45.6261 C194.8096,46.2171 196.0416,46.6261 197.4636,46.7551 C197.7306,46.7781 197.9866,46.8731 198.2536,46.9091 C198.3416,46.9211 198.4486,46.8551 198.5466,46.8231 C198.5426,46.8431 198.5376,46.8621 198.5336,46.8811" id="Fill-67" fill="#000000"></path>
                    <path d="M194.8998,9.2092 C196.9628,8.4012 199.2728,8.5482 201.5618,8.6402 C204.0948,8.7412 206.5018,9.1582 208.6938,10.0802 C208.7428,10.1012 208.8018,10.1122 208.9188,10.1462 C208.9538,10.0002 208.9708,9.8702 209.0168,9.7452 C209.0748,9.5842 208.9578,9.5042 208.7358,9.4232 C206.0408,8.4412 203.2028,7.9182 200.1528,7.9822 C198.7138,8.0142 197.2728,8.0072 195.9168,8.3082 C195.7328,8.3492 195.5528,8.3972 195.3838,8.4562 C194.7828,8.6672 194.7618,8.7012 194.8998,9.2092" id="Fill-69" fill="#000000"></path>
                    <path d="M193.2172,35.303 C193.9762,35.149 194.7212,34.926 195.5152,34.85 C197.7882,34.631 200.0892,34.741 202.3862,35.031 C204.0352,35.239 205.5682,35.649 206.9952,36.241 C207.0562,36.267 207.1282,36.282 207.2442,36.316 C207.2802,36.185 207.3012,36.074 207.3412,35.965 C207.4112,35.779 207.3022,35.68 207.0192,35.574 C204.0892,34.471 200.9602,34.057 197.6922,34.166 C196.6602,34.2 195.6402,34.306 194.6242,34.407 C194.2882,34.441 193.9672,34.546 193.6672,34.648 C193.1112,34.837 193.0812,34.907 193.2172,35.303" id="Fill-71" fill="#000000"></path>
                    <path d="M201.0004,46.6467 C200.6194,46.6227 200.2904,46.6017 199.9384,46.5797 C199.9174,46.7147 199.8994,46.8347 199.8814,46.9557 C199.9004,46.9577 199.9194,46.9587 199.9394,46.9617 C199.9574,46.8567 199.9764,46.7507 199.9944,46.6447 C200.0414,46.6377 200.0884,46.6317 200.1354,46.6257 C200.2084,46.7607 200.2804,46.8977 200.3784,47.0827 C200.4124,46.9287 200.4394,46.8007 200.4674,46.6737 C200.5124,46.6647 200.5564,46.6547 200.6004,46.6447 C200.6984,46.7777 200.7954,46.9107 200.9274,47.0897 C200.9544,46.9257 200.9764,46.7917 201.0004,46.6467" id="Fill-73" fill="#000000"></path>
                    <path d="M207.5839,6.4436 C206.0929,6.1226 204.6069,5.8006 203.0799,5.4716 C203.1249,4.7606 203.1729,4.0056 203.2229,3.2196 C204.2269,3.3606 205.2059,3.4556 206.0869,3.7886 C206.2199,3.8396 206.3949,3.9466 206.3969,4.0226 C206.4069,4.3956 206.3649,4.7676 206.3399,5.1646 C205.6649,5.0536 205.0479,4.9576 204.4369,4.8476 C204.3629,4.8356 204.2659,4.7546 204.2629,4.7066 C204.2509,4.5356 204.2759,4.3656 204.2879,4.1726 C204.7139,4.2256 205.1739,4.1366 205.2289,4.5386 C205.2349,4.5896 205.5179,4.6356 205.7299,4.7036 C205.7629,4.4906 205.7879,4.3316 205.8239,4.1006 C205.2329,4.0016 204.6439,3.8936 204.0489,3.8066 C203.9649,3.7946 203.7749,3.8716 203.7689,3.9186 C203.7219,4.2986 203.7079,4.6816 203.6859,5.0236 C204.7489,5.2146 205.7429,5.3916 206.8179,5.5856 C206.8269,5.4466 206.8379,5.2706 206.8489,5.0946 C206.8729,4.7286 206.9079,4.3636 206.9099,3.9976 C206.9109,3.9086 206.8439,3.7686 206.7399,3.7306 C205.5109,3.2726 204.2329,2.9066 202.7849,2.8256 C202.7629,2.8996 202.7309,2.9616 202.7269,3.0246 C202.6699,3.8806 202.6169,4.7376 202.5619,5.5936 C202.5519,5.7326 202.5249,5.8666 202.8369,5.9066 C204.6669,6.1396 206.4579,6.4676 208.2099,7.0036 C208.2349,6.8986 208.2639,6.8296 208.2679,6.7576 C208.3149,5.6886 208.3699,4.6196 208.3909,3.5476 C208.3929,3.4336 208.2429,3.2706 208.0869,3.1966 C206.0379,2.2236 203.8009,1.6436 201.2739,1.7796 C200.0789,1.8436 198.8949,1.9596 197.7079,2.0556 C197.5739,2.0666 197.4489,2.1066 197.3209,2.1336 C196.5039,2.3096 196.0259,2.5866 196.0599,3.2266 C196.1109,4.1896 195.9669,5.1496 195.9019,6.1626 C196.4309,6.0966 196.9039,6.0076 197.3909,5.9826 C198.6799,5.9176 199.9749,5.8766 201.2689,5.8326 C201.4959,5.8246 201.6909,5.8376 201.7009,5.6396 C201.7489,4.7236 201.8109,3.8096 201.8649,2.8956 C201.8669,2.8686 201.8459,2.8396 201.8259,2.7826 C200.3509,2.6726 198.9259,2.7026 197.6529,3.1926 C197.5739,3.2226 197.4899,3.2896 197.4849,3.3446 C197.4389,3.8806 197.4099,4.4166 197.3749,4.9726 C197.5249,4.9686 197.6129,4.9656 197.6999,4.9636 C198.5189,4.9336 199.3359,4.8896 200.1579,4.8816 C200.4519,4.8776 200.5689,4.8396 200.5689,4.6496 C200.5699,4.3606 200.5969,4.0716 200.6249,3.7846 C200.6409,3.6246 200.5439,3.5406 200.2829,3.5496 C199.8129,3.5666 199.3359,3.5656 198.8759,3.6136 C198.4739,3.6556 198.6129,3.8976 198.6229,4.0676 C198.6249,4.1056 198.8479,4.1586 198.9779,4.1846 C199.0269,4.1946 199.1489,4.1546 199.1539,4.1286 C199.2249,3.7436 199.6709,3.8936 200.0949,3.8806 C200.0829,4.0816 200.0989,4.2556 200.0459,4.4176 C200.0269,4.4776 199.8539,4.5456 199.7359,4.5526 C199.1619,4.5896 198.5819,4.6066 197.9509,4.6336 C197.9749,4.2696 197.9939,3.9106 198.0249,3.5516 C198.0289,3.5116 198.0899,3.4626 198.1479,3.4436 C199.0959,3.1356 200.0949,2.9666 201.2589,3.0986 C201.2119,3.8396 201.1739,4.5586 201.1039,5.2766 C201.0989,5.3316 200.8749,5.3986 200.7389,5.4086 C199.9059,5.4646 199.0649,5.4936 198.2349,5.5566 C197.6829,5.5996 197.1419,5.6846 196.5649,5.7546 C196.5459,5.6906 196.5179,5.6446 196.5199,5.6006 C196.5719,4.7246 196.6209,3.8476 196.6939,2.9726 C196.7019,2.8806 196.8249,2.7516 196.9539,2.7156 C199.7059,1.9806 202.5429,1.7446 205.4969,2.5896 C206.2469,2.8026 206.9229,3.1326 207.6219,3.4206 C207.7169,3.4596 207.8079,3.5656 207.8039,3.6336 C207.7539,4.5586 207.6879,5.4826 207.6219,6.4056 C207.6209,6.4226 207.5919,6.4366 207.5839,6.4436" id="Fill-75" fill="#FFFFFF"></path>
                    <path d="M205.308,40.7776 C203.831,40.4576 202.361,40.1376 200.828,39.8056 C200.872,39.1186 200.92,38.3646 200.971,37.5626 C201.994,37.6936 203.007,37.8046 203.919,38.1626 C204.029,38.2066 204.135,38.3236 204.136,38.4026 C204.138,38.7576 204.101,39.1106 204.077,39.4956 C203.42,39.3896 202.808,39.2966 202.202,39.1876 C202.118,39.1726 202.009,39.0816 202.003,39.0236 C201.985,38.8636 202.014,38.7026 202.025,38.5256 C202.456,38.5566 202.9,38.4736 202.962,38.8736 C202.97,38.9256 203.25,38.9726 203.411,39.0246 C203.656,38.5166 203.616,38.4606 202.905,38.3096 C202.624,38.2506 202.338,38.2026 202.052,38.1606 C201.889,38.1366 201.719,38.1366 201.519,38.1246 C201.492,38.5566 201.465,38.9656 201.44,39.3586 C202.464,39.5466 203.48,39.7316 204.55,39.9266 C204.586,39.3616 204.629,38.7886 204.649,38.2146 C204.651,38.1606 204.532,38.0786 204.439,38.0446 C203.319,37.6246 202.14,37.3166 200.869,37.1766 C200.564,37.1436 200.459,37.1986 200.45,37.3876 C200.405,38.2456 200.347,39.1016 200.287,39.9586 C200.278,40.0966 200.298,40.2006 200.572,40.2366 C202.397,40.4786 204.185,40.8116 205.959,41.3376 C205.98,41.1956 206.004,41.0956 206.009,40.9956 C206.058,39.9836 206.096,38.9716 206.158,37.9616 C206.17,37.7546 206.065,37.6276 205.793,37.4976 C203.57,36.4396 201.122,35.9626 198.449,36.1186 C197.392,36.1796 196.353,36.3146 195.308,36.4236 C195.146,36.4396 194.996,36.4906 194.842,36.5276 C194.162,36.6916 193.772,36.9416 193.79,37.4756 C193.821,38.3736 193.701,39.2666 193.644,40.1616 C193.638,40.2566 193.632,40.3516 193.623,40.4846 C193.799,40.4726 193.932,40.4746 194.052,40.4546 C195.611,40.1816 197.227,40.1366 198.858,40.1736 C199.289,40.1836 199.443,40.1096 199.453,39.8326 C199.483,38.9366 199.557,38.0446 199.616,37.1086 C198.478,37.0636 197.379,37.0086 196.341,37.2536 C195.215,37.5176 195.22,37.5246 195.172,38.2786 C195.151,38.6146 195.129,38.9496 195.109,39.2726 C196.167,39.2336 197.19,39.1956 198.258,39.1566 C198.282,38.7766 198.308,38.3596 198.34,37.8606 C197.745,37.8876 197.169,37.8856 196.618,37.9496 C196.175,38.0006 196.391,38.2706 196.345,38.4676 C196.618,38.5246 196.848,38.6126 196.937,38.3466 C197.013,38.1226 197.36,38.2096 197.592,38.2316 C197.677,38.2396 197.802,38.3986 197.804,38.4866 C197.816,38.8906 197.802,38.8866 197.165,38.9066 C196.681,38.9226 196.199,38.9506 195.674,38.9746 C195.697,38.6126 195.706,38.2666 195.751,37.9246 C195.76,37.8576 195.882,37.7786 195.987,37.7446 C196.801,37.4816 197.677,37.3576 198.621,37.3886 C198.893,37.3976 199.005,37.4566 198.99,37.6386 C198.936,38.2626 198.898,38.8886 198.868,39.5146 C198.859,39.6816 198.757,39.7366 198.49,39.7536 C197.1,39.8366 195.713,39.9356 194.287,40.0326 C194.287,40.0326 194.254,39.9676 194.258,39.9076 C194.311,39.0506 194.363,38.1946 194.435,37.3396 C194.444,37.2426 194.53,37.1016 194.648,37.0696 C197.422,36.3046 200.287,36.0816 203.27,36.9386 C204.004,37.1496 204.666,37.4736 205.351,37.7566 C205.447,37.7976 205.538,37.9026 205.535,37.9716 C205.484,38.8966 205.416,39.8196 205.35,40.7426 C205.349,40.7576 205.316,40.7706 205.308,40.7776" id="Fill-77" fill="#FFFFFF"></path>
                    <path d="M192.2387,44.4035 C192.1337,46.0625 195.3177,47.6165 199.3527,47.8745 C203.3867,48.1315 206.7437,46.9935 206.8497,45.3345 C206.9547,43.6745 203.7697,42.1215 199.7357,41.8645 C195.7007,41.6065 192.3437,42.7445 192.2387,44.4035" id="Fill-79" fill="#000000"></path>
                    <path d="M57.8993,29.1702 C57.7193,29.4372 57.4573,29.6892 57.2853,29.8082 C55.8103,27.6952 54.1013,25.6872 52.3163,23.7462 C51.0033,25.9492 49.7603,28.2512 48.7213,30.5772 C48.5113,30.4912 48.2353,30.3472 48.0353,30.1342 C47.7713,29.8852 47.6193,29.5212 47.8273,29.1062 C48.7773,27.1632 50.2093,24.6992 51.2393,22.9812 C49.8383,23.1832 48.4463,23.4892 47.0983,23.8342 C47.0933,23.5422 47.1043,23.1862 47.1803,22.8862 C47.2773,22.6062 47.4433,22.4032 47.7793,22.3122 C49.0103,22.0202 50.1653,21.7742 51.5033,21.5572 C51.5023,20.3432 51.3213,18.9152 51.2063,17.7962 C49.8253,17.9972 48.4103,18.2642 47.0633,18.6292 C47.0443,18.4002 46.9943,18.0492 47.0883,17.7282 C47.1643,17.4282 47.3643,17.1602 47.7613,17.0642 C48.4363,16.9012 49.4533,16.7112 49.9743,16.6462 C49.3403,15.6112 48.6843,14.5592 47.8963,13.6222 C48.2373,13.3422 48.6763,13.0322 48.9663,12.8612 C49.6473,13.7242 50.1743,14.4532 50.7763,15.3432 C50.9383,15.5802 50.9353,15.7902 50.8523,16.0062 C50.7873,16.2002 50.6593,16.3572 50.5303,16.5152 C51.1503,16.4202 52.2313,16.2662 53.0343,16.1762 C53.0343,16.1762 52.7953,15.9872 52.7273,15.6582 C52.6923,15.4942 52.7173,15.3042 52.8183,15.0662 C53.2443,14.1082 53.8443,12.8232 54.1553,12.1912 C54.4883,12.2882 55.0943,12.5082 55.4283,12.6262 C54.8343,13.7432 54.3233,14.8962 53.8533,16.0442 C54.4973,15.9892 55.8223,15.8562 56.5083,15.8182 C56.5583,16.1702 56.6073,16.7512 56.6383,17.1252 C55.2493,17.2222 53.9053,17.3782 52.5633,17.5552 C52.6583,18.6772 52.7973,20.0872 52.8403,21.3172 C54.1223,21.1462 55.8453,20.9152 57.2783,20.8572 C57.3223,21.1462 57.3803,21.8312 57.3923,22.2062 C55.9843,22.3262 54.4943,22.4322 53.0353,22.6602 C54.2353,23.9182 56.9263,26.7642 57.8993,28.2082 C58.1523,28.5642 58.0783,28.8832 57.8993,29.1702 M44.4703,15.2732 C44.4423,14.9412 44.3443,14.7392 44.1733,14.6282 C44.0443,14.5352 43.8773,14.4862 43.6963,14.5022 C43.1713,14.5252 42.6143,14.6362 42.1203,14.7822 C42.0743,15.9152 42.0703,17.0662 42.0443,18.1972 C42.8583,18.0032 43.8333,17.7952 44.7763,17.6932 C44.6853,17.0952 44.5403,15.8532 44.4703,15.2732 M44.9233,18.9572 C43.9203,19.0642 42.9613,19.2292 42.0343,19.5172 C42.0343,20.4792 42.0343,21.9222 42.0763,23.1312 C43.1073,22.8762 44.1653,22.6822 45.2673,22.5462 C45.1443,21.3232 45.0243,19.9102 44.9233,18.9572 M46.8173,29.8602 C46.6293,30.2742 46.2533,30.6202 45.6023,30.8212 C45.2033,30.8982 44.6403,30.9452 44.2313,30.8972 C43.9043,30.8612 43.7403,30.6042 43.6333,30.2992 C43.5523,30.0552 43.5273,29.7642 43.4683,29.5392 C43.8373,29.5912 44.5453,29.5732 45.0663,29.5082 C45.3473,29.4832 45.5143,29.3022 45.6013,29.1282 C45.7373,28.8232 45.6833,28.4312 45.6623,28.1812 C45.5723,26.8712 45.4393,24.8122 45.3743,23.8142 C44.2923,23.9472 43.1123,24.1312 42.0823,24.4062 C42.1123,26.2032 42.1623,28.7092 42.3333,31.2042 C42.0873,31.1832 41.7043,31.1942 41.3683,31.0562 C41.1163,30.9522 40.9333,30.6952 40.9143,30.2372 C40.7013,26.7622 40.6363,18.3172 40.8243,15.2692 C40.5713,15.3952 40.2603,15.5472 40.0493,15.6902 C40.0253,15.3992 39.9913,15.0052 40.0423,14.6452 C40.0613,14.3932 40.2053,14.1712 40.4783,14.0432 C41.3143,13.6382 42.0993,13.3412 43.0213,13.2212 C43.5813,13.1312 44.2093,13.1412 44.7383,13.4092 C45.2463,13.6592 45.6513,14.1482 45.7933,15.0982 C46.1213,17.3082 46.9243,25.8572 47.0093,28.2972 C47.0333,28.8172 47.0403,29.3822 46.8173,29.8602" id="Fill-81" fill="#FFFFFF"></path>
                    <path d="M74.5346,15.8664 C74.4616,15.5784 74.1676,15.3194 73.9446,15.2874 C73.1706,15.1324 72.3866,15.2074 71.5806,15.2624 C71.6486,15.9054 71.7256,17.2374 71.7536,17.9034 C72.5786,17.8264 73.8686,17.7714 74.8356,17.7304 C74.7906,17.1484 74.6616,16.4874 74.5346,15.8664 M70.0026,12.8054 C69.1566,12.8634 68.3926,12.9364 67.5686,13.0344 C67.5266,13.4734 67.4886,13.9974 67.4856,14.4144 C68.3486,14.2944 69.2946,14.2124 70.1796,14.1124 C70.1386,13.6354 70.0576,13.1584 70.0026,12.8054 M70.2926,15.3584 C69.3476,15.4404 68.3826,15.5444 67.4386,15.6674 C67.4156,16.5644 67.4376,17.5444 67.4896,18.2924 C68.4536,18.1884 69.4396,18.1054 70.4266,18.0214 C70.4096,17.1464 70.3896,16.2304 70.2926,15.3584 M66.5526,22.8564 C66.1666,23.2904 65.8436,23.7624 65.5386,24.1924 C66.9226,24.4264 68.2876,24.7214 69.6346,25.0604 C70.7776,24.3874 71.8046,23.3634 72.7706,22.3434 C70.7366,22.4704 68.4026,22.6744 66.5526,22.8564 M63.3066,16.3434 C63.2426,17.2004 63.1786,18.0574 63.2166,18.9534 C63.8776,18.8424 65.2806,18.5954 66.2036,18.4514 C66.1466,17.5774 66.1516,16.7434 66.1736,15.8454 C65.1896,15.9704 64.2496,16.1784 63.3066,16.3434 M77.7546,28.9074 C75.1956,28.0784 72.9216,27.3194 69.7586,26.5364 C67.0806,28.1514 64.0666,28.9874 60.9856,29.6604 C60.9006,29.0804 60.9216,28.6204 61.1126,28.3624 C61.3206,28.0414 61.7186,27.8984 62.3196,27.7904 C63.6816,27.5234 66.1366,26.8364 67.7786,26.0364 C66.2476,25.6634 64.6376,25.3144 63.1116,25.0464 C63.5296,24.4234 64.0266,23.7564 64.5036,23.1104 C63.2786,23.2664 62.0136,23.4454 60.7936,23.7054 C60.7636,23.4984 60.7916,23.1834 60.8816,22.9294 C60.9706,22.6554 61.1026,22.4414 61.3826,22.3664 C62.4016,22.1154 64.1876,21.8514 65.6346,21.6854 C66.0766,21.1454 66.9596,20.0874 67.4216,19.5464 C65.5746,19.7914 63.6266,20.0614 61.8676,20.4904 C61.7956,19.2634 61.8596,17.9054 61.9876,16.6484 C61.7476,16.7004 61.4876,16.7744 61.2476,16.8264 C61.1556,16.5584 61.1606,16.2044 61.2706,15.9284 C61.3626,15.7164 61.5166,15.5434 61.7356,15.4704 C62.6316,15.1824 65.1186,14.7854 66.2226,14.6354 C66.2256,14.2184 66.2646,13.7154 66.3206,13.1294 C64.6336,13.3464 62.6076,13.6624 60.7476,14.0954 C60.7136,13.7624 60.7216,13.4914 60.8706,13.1734 C60.9616,12.9394 61.1556,12.7434 61.4546,12.6684 C64.1726,11.9904 72.0796,11.3214 76.5386,11.2364 C76.5306,11.5084 76.5776,12.1524 76.5916,12.4854 C74.8566,12.5164 73.0006,12.5534 71.2896,12.6894 C71.3496,13.1454 71.4096,13.6224 71.4486,14.0584 C72.0336,14.0334 72.7986,13.9804 73.4446,13.9734 C73.9296,13.9734 74.4956,14.0124 74.9726,14.3054 C75.3466,14.5404 75.6236,14.8824 75.8116,15.5004 C76.1406,16.5914 76.2216,17.5674 76.3216,18.9604 C73.9596,18.9764 70.2526,19.1764 67.8026,19.4884 C68.1106,19.6004 68.6016,19.7664 68.9916,19.8964 C68.5686,20.3934 68.0846,20.8934 67.6426,21.4334 C70.5816,21.2054 74.9916,20.9144 77.6316,20.7814 C77.6716,21.2594 77.7136,21.7784 77.7076,22.1124 C76.9006,22.1264 75.4096,22.1894 74.6436,22.2424 C73.6626,23.3884 72.5426,24.5834 71.3276,25.4694 C73.1456,25.9554 75.7016,26.6804 77.4186,27.1914 C77.8486,27.3194 78.0056,27.6874 77.9816,28.0644 C77.9746,28.3974 77.8476,28.7164 77.7546,28.9074" id="Fill-83" fill="#FFFFFF"></path>
                    <path d="M95.7226,22.3205 C95.6396,21.9455 95.3146,21.6135 94.8706,21.5955 C93.4366,21.5425 91.9846,21.7165 90.6336,22.0175 C90.3206,23.6865 90.2296,25.4595 90.1596,27.2315 C92.0756,26.8855 94.0936,26.7905 96.1326,26.7365 C96.1426,25.1735 95.9726,23.6525 95.7226,22.3205 M88.6946,28.8245 C88.8036,26.6555 88.9316,24.4455 89.2826,22.3385 C88.9796,22.3825 88.6576,22.4875 88.3756,22.6145 C88.3746,22.4065 88.3526,22.0935 88.4116,21.8015 C88.4706,21.5085 88.5896,21.2375 88.8916,21.1325 C90.4836,20.5385 93.6306,20.2065 95.1056,20.3225 C95.7316,20.3605 96.1976,20.6705 96.5436,21.1065 C96.8686,21.5205 97.0536,22.0615 97.1376,22.5195 C97.3876,23.9355 97.6226,26.1435 97.5726,28.0205 C94.5246,27.9975 91.4566,28.2035 88.6946,28.8245 M97.4286,17.1615 C97.2706,17.7245 97.0706,18.1425 96.7496,18.4575 C96.4286,18.7935 96.0266,19.0245 95.4816,19.1325 C94.9176,19.2605 94.3316,19.2225 93.8066,19.1835 C93.4636,19.1655 93.2396,18.9375 93.1376,18.6675 C92.9936,18.3765 92.9516,18.0015 92.9096,17.7515 C93.6176,17.8515 94.4046,17.8255 95.1506,17.7995 C95.3936,17.7995 95.5746,17.7145 95.7146,17.5675 C95.8756,17.4215 95.9956,17.2115 96.0546,16.9615 C96.3506,15.8755 96.3646,14.6665 96.2966,13.4785 C96.2746,13.1665 96.1516,12.8955 95.9696,12.7095 C95.8066,12.5435 95.6036,12.4405 95.3816,12.4215 C94.9976,12.3825 94.3316,12.3855 93.8886,12.4095 C91.9046,14.9235 90.0816,17.4975 88.5436,20.1955 C88.3406,20.0925 88.1176,19.8855 87.9546,19.6575 C87.7306,19.3455 87.5876,18.9925 87.7276,18.7615 C88.9676,16.7325 90.5696,14.4935 92.0726,12.5875 C90.6806,12.7415 89.2886,13.0005 87.9586,13.3825 C87.8966,13.1545 87.8946,12.7995 87.9936,12.5075 C88.0726,12.2155 88.2526,11.9645 88.5356,11.8795 C90.0866,11.3895 94.0216,11.0325 95.6576,11.1895 C96.2636,11.2485 96.7296,11.5585 97.0556,11.9725 C97.3806,12.3875 97.6056,12.9705 97.6296,13.5535 C97.6966,14.7205 97.7246,16.0125 97.4286,17.1615 M85.1776,14.2135 C85.1356,13.9835 84.9116,13.7355 84.6496,13.7165 C84.0036,13.6985 83.4186,13.7645 82.8336,13.9145 C82.6826,15.6455 82.5306,17.3135 82.4806,19.0445 C83.4686,18.8925 84.4776,18.7825 85.5066,18.7345 C85.4376,17.2755 85.4086,15.6915 85.1776,14.2135 M82.4076,20.3795 C82.3766,21.9635 82.3676,23.9225 82.3386,25.8615 C83.3466,25.6465 84.4356,25.5565 85.4856,25.5295 C85.5156,23.7165 85.5656,21.8395 85.5346,20.0675 C84.4646,20.1165 83.4156,20.1435 82.4076,20.3795 M80.9956,27.5155 C81.0546,23.7215 81.0446,18.6155 81.4636,14.2985 C81.3026,14.3615 80.9996,14.4665 80.8586,14.5305 C80.7966,14.2185 80.7746,13.9065 80.8336,13.6135 C80.8916,13.3215 81.0326,13.0915 81.3746,12.9855 C82.5026,12.6025 83.6726,12.3255 84.8846,12.4015 C85.4496,12.4395 85.9356,12.7915 86.2216,13.2475 C86.4666,13.6425 86.5706,14.2255 86.5936,14.7045 C86.7946,18.1005 86.9516,24.1025 86.7856,26.8555 C84.8676,26.8045 82.7886,26.9635 80.9956,27.5155" id="Fill-85" fill="#FFFFFF"></path>
                    <path d="M115.0697,23.8088 C115.0387,23.4548 114.9657,23.2018 114.7887,23.0308 C114.5727,22.7948 114.2527,22.7028 113.8287,22.6908 C110.6427,22.5598 107.5147,22.5348 104.5507,23.1188 C104.2727,24.4238 104.0927,25.7738 103.9537,27.1658 C107.2947,26.8228 111.8177,26.7828 115.1257,26.8748 C115.1537,25.8748 115.1217,24.8528 115.0697,23.8088 M102.3557,28.7268 C102.4457,26.9368 102.7367,25.1728 103.0477,23.4518 C102.8857,23.4678 102.5197,23.5618 102.3567,23.6208 C102.3447,23.3288 102.3327,23.0358 102.3807,22.7658 C102.4517,22.3928 102.5807,22.1048 103.0887,21.9728 C105.9547,21.2828 111.0487,21.0288 114.2107,21.3258 C114.9147,21.3868 115.4937,21.6118 115.8857,22.0598 C116.1987,22.4028 116.3887,22.8458 116.4327,23.4308 C116.5267,24.4128 116.6107,27.1878 116.5387,28.3318 C111.4767,28.1268 107.0597,28.0038 102.3557,28.7268 M101.2297,20.5868 C101.2597,20.2118 101.3127,19.7768 101.4837,19.4478 C101.6117,19.2018 101.8187,19.0188 102.1627,18.9658 C103.8047,18.7418 106.7417,18.3858 109.0057,18.3028 C109.0717,17.3678 109.1317,15.9518 109.1347,15.0968 C107.3567,15.1518 105.5527,15.3928 103.8707,15.6368 C103.4697,16.2728 103.0677,16.9278 102.7457,17.6068 C102.4487,17.4118 102.1527,17.1728 101.9787,16.8978 C101.7647,16.5998 101.7147,16.2448 101.9457,15.8748 C102.9597,14.2988 103.9037,12.9918 104.9727,11.5818 C105.3907,11.8028 105.7877,12.0428 106.1847,12.2838 C105.7237,12.8958 105.2827,13.5088 104.8617,14.1218 C105.9757,13.9868 107.7167,13.8278 109.1517,13.7628 C109.1347,12.9288 109.1007,11.9688 109.0207,11.2168 C109.4027,11.2478 110.0287,11.2658 110.4117,11.2768 C110.4367,11.8398 110.4887,12.8628 110.5277,13.6558 C112.3457,13.6028 114.5877,13.5818 116.6677,13.5568 C116.6777,13.8908 116.6587,14.5988 116.6287,14.9528 C114.5907,14.9158 112.5507,14.9428 110.5697,15.0118 C110.5697,15.7418 110.5047,17.3858 110.4817,18.2198 C113.0067,18.1648 115.1467,18.1418 118.1537,18.1838 C118.1437,18.5378 118.1457,19.1848 118.1337,19.6008 C113.0907,19.4598 106.1057,19.4938 101.2297,20.5868" id="Fill-87" fill="#FFFFFF"></path>
                    <path d="M130.9916,20.2366 C133.4596,22.8886 135.9996,25.6916 137.8916,28.5186 C138.1146,28.8446 138.0126,29.1936 137.8126,29.4956 C137.6346,29.7766 137.3556,30.0316 137.1176,30.2886 C135.1486,27.0816 132.6996,24.0956 130.0406,21.2646 C127.1766,23.8486 124.5586,26.6986 122.2976,29.6736 C122.0526,29.3866 121.7876,29.0786 121.6456,28.7576 C121.5216,28.4576 121.5016,28.1226 121.7056,27.7586 C124.1076,25.1266 126.4986,22.6806 129.0716,20.2256 C126.5646,20.2436 124.0666,20.4276 121.6416,20.7626 C121.6566,20.5126 121.6976,20.1606 121.7756,19.8736 C121.8776,19.5246 122.0746,19.2646 122.5216,19.2286 C124.8796,19.0146 127.1326,18.8576 129.5776,18.8796 C129.7316,17.3226 129.8896,15.3706 129.7956,13.9036 C127.6096,13.9606 125.4366,14.1226 123.2816,14.3276 C123.3406,14.0176 123.3636,13.6436 123.5016,13.3596 C123.6386,13.0966 123.8536,12.8806 124.2606,12.8416 C127.3316,12.5246 133.8126,12.3286 137.8476,12.7786 C137.8256,13.1526 137.7766,13.9646 137.7406,14.2326 C135.7276,14.0906 133.5746,13.9216 131.2106,13.9046 C131.2316,15.2416 131.1566,17.4916 131.0546,18.8416 C133.2536,18.9316 136.5976,19.1116 138.6486,19.2966 C138.6296,19.6086 138.5716,20.2526 138.5666,20.6696 C136.0306,20.4756 133.5356,20.2846 130.9916,20.2366" id="Fill-89" fill="#FFFFFF"></path>
                    <path d="M159.4447,16.2327 C157.0207,15.9297 152.8897,15.6817 150.2187,15.6497 C150.0527,16.5967 149.8787,17.8577 149.7677,18.8737 C151.9997,20.4137 154.9317,22.4987 156.6857,24.1837 C156.9647,24.4607 156.9547,24.7947 156.8247,25.1177 C156.6957,25.4197 156.4867,25.7137 156.3037,25.9487 C154.2467,23.8177 151.8137,22.0287 149.5877,20.4257 C149.3257,23.1217 148.8177,28.3267 148.8107,31.3377 C148.3067,31.3137 147.7417,31.2837 147.3807,31.2517 C147.4817,27.4117 148.2367,19.2157 148.7567,15.6857 C146.5947,15.6157 144.3327,15.7667 142.3467,16.0057 C142.3997,15.6337 142.4667,15.1177 142.6957,14.8237 C142.8567,14.6087 143.1107,14.4847 143.5407,14.4397 C147.6867,14.0617 153.6947,14.1657 159.5697,14.8417 L159.4447,16.2327 Z" id="Fill-91" fill="#FFFFFF"></path>
                    <path d="M165.4936,28.3137 C165.2336,28.2827 164.8476,28.2787 164.6096,28.2297 C164.9086,25.0337 165.4166,19.5547 165.6946,16.5247 C166.0156,16.5627 166.6566,16.6387 167.0996,16.6697 C166.6836,19.6637 165.9466,25.0097 165.4936,28.3137 M163.9476,31.9277 C164.0206,31.3067 164.1686,30.2337 164.2346,29.5067 L165.5166,29.6597 L165.2346,32.0387 C164.8286,32.0327 164.2276,31.9607 163.9476,31.9277" id="Fill-93" fill="#FFFFFF"></path>
                </g>
            </g>
        </g>
    </g>
</svg>