<?xml version="1.0" encoding="UTF-8"?>
<svg width="298px" height="54px" viewBox="0 0 298 54" version="1.1" xmlns="http://www.w3.org/2000/svg" xmlns:xlink="http://www.w3.org/1999/xlink">
    <!-- Generator: Sketch 46.1 (44463) - http://www.bohemiancoding.com/sketch -->
    <title>confirm-btn-1</title>
    <desc>Created with Sketch.</desc>
    <defs>
        <polygon id="path-1" points="266.307219 0.7601 262.460692 42.3171 6.12405062 42.3171 0.830895318 0.7601 266.307219 0.7601"></polygon>
        <polygon id="path-3" points="0.830895318 0.7601 6.12405062 42.3171 262.460692 42.3171 266.307219 0.7601"></polygon>
    </defs>
    <g id="Symbols" stroke="none" stroke-width="1" fill="none" fill-rule="evenodd">
        <g id="confirm-btn-1">
            <g id="btn">
                <g>
                    <g id="Group-15" transform="translate(15.000000, 0.000000)">
                        <path d="M0.0745,8.241 C88.6065,1.273 177.5485,1.273 266.0805,8.241" id="Stroke-1" stroke="#000000"></path>
                        <path d="M0.0745,6.1096 C88.6065,-0.8574 177.5485,-0.8574 266.0805,6.1096" id="Stroke-3" stroke="#000000" stroke-width="2"></path>
                        <path d="M266.0804,48.0217 C177.5484,41.0547 88.6064,41.0547 0.0744,48.0217" id="Stroke-5" stroke="#000000"></path>
                        <path d="M266.0804,50.1531 C177.5484,43.1851 88.6064,43.1851 0.0744,50.1531" id="Stroke-7" stroke="#000000" stroke-width="2"></path>
                        <g id="Group-11" transform="translate(0.000000, 4.000000)">
                            <mask id="mask-2" fill="white">
                                <use xlink:href="#path-1"></use>
                            </mask>
                            <g id="Clip-10"></g>
                            <path d="M266.0814,42.3171 C178.2184,35.4021 89.9474,35.4021 2.0834,42.3171 C1.1324,30.2301 0.1814,18.1441 -0.7706,6.0581 C88.9934,-1.0059 179.1724,-1.0059 268.9354,6.0581 C267.9844,18.1451 267.0324,30.2301 266.0814,42.3171" id="Fill-9" fill="#000000" mask="url(#mask-2)"></path>
                        </g>
                        <g id="Group-14" transform="translate(0.000000, 4.000000)">
                            <mask id="mask-4" fill="white">
                                <use xlink:href="#path-3"></use>
                            </mask>
                            <g id="Clip-13"></g>
                            <path d="M266.0814,42.3171 C178.2184,35.4021 89.9474,35.4021 2.0834,42.3171 C1.1324,30.2301 0.1814,18.1441 -0.7706,6.0581 C88.9934,-1.0059 179.1724,-1.0059 268.9354,6.0581 C267.9844,18.1451 267.0324,30.2301 266.0814,42.3171 Z" id="Stroke-12" stroke="#000000" mask="url(#mask-4)"></path>
                        </g>
                    </g>
                    <g id="Group-80" transform="translate(0.000000, 5.000000)">
                        <path d="M4.7581,35.7429 C6.8701,34.6789 9.2651,34.2679 11.6791,33.8799 C14.1421,33.4829 16.5051,33.5389 18.8441,33.9739 C18.8241,33.8219 18.8131,33.7269 18.8011,33.6319 C17.7991,25.6519 16.7901,17.6729 15.8151,9.6899 C15.7591,9.2339 15.4711,9.0289 14.8351,8.9589 C14.7761,8.9519 14.7171,8.9469 14.6591,8.9389 C12.2081,8.6299 9.7011,8.7419 7.1711,9.1439 C5.3951,9.4259 3.7181,9.8989 2.1941,10.6319 C1.7941,10.8239 1.6191,11.0059 1.6591,11.3259 C2.6871,19.3799 3.6961,27.4369 4.7081,35.4929 C4.7181,35.5749 4.7401,35.6549 4.7581,35.7429" id="Fill-16" fill="#FFFFFF"></path>
                        <path d="M19.804,41.633 C19.782,41.454 19.766,41.332 19.751,41.211 C19.53,39.441 19.299,37.672 19.096,35.899 C19.068,35.653 18.926,35.515 18.574,35.456 C18.417,35.43 18.269,35.388 18.112,35.363 C16.449,35.1 14.723,35.011 12.961,35.079 C12.132,35.111 11.27,35.197 10.461,35.367 C8.593,35.759 6.964,36.482 5.396,37.273 C5.07,37.438 4.994,37.594 5.026,37.828 C5.27,39.664 5.494,41.502 5.726,43.339 C5.735,43.408 5.759,43.477 5.782,43.567 C8.621,41.259 15.819,40.097 19.804,41.633" id="Fill-18" fill="#FFFFFF"></path>
                        <path d="M14.2777,46.6804 C14.2727,46.6614 14.2667,46.6424 14.2607,46.6234 C14.3607,46.6484 14.4717,46.7084 14.5587,46.6914 C14.8227,46.6384 15.0727,46.5294 15.3377,46.4884 C16.7487,46.2734 17.9547,45.7894 19.0097,45.1334 C20.6807,44.0924 20.5627,42.8764 18.7257,42.2404 C18.2597,42.0794 17.7397,41.9514 17.2067,41.8864 C14.4057,41.5394 11.6497,41.8714 8.9637,42.8094 C7.9827,43.1524 7.1147,43.5974 6.5157,44.2234 C5.8727,44.8944 5.9077,45.5714 6.6157,46.0774 C7.2167,46.5084 8.0217,46.7384 8.9137,46.8744 C9.0077,46.8884 9.1727,46.9054 9.2087,46.8754 C9.5517,46.5974 9.5577,46.8694 9.6347,46.9284 C9.9537,46.8884 10.2327,46.8524 10.5227,46.8164 C10.5317,46.8884 10.5397,46.9534 10.5477,47.0184 C10.5917,47.0144 10.6357,47.0114 10.6797,47.0084 C10.6697,46.9274 10.6907,46.8344 10.6367,46.7704 C10.6087,46.7364 10.4517,46.7394 10.3537,46.7474 C10.2097,46.7614 10.0657,46.7954 9.9217,46.8204 C9.9167,46.7964 9.9127,46.7734 9.9077,46.7504 C10.2537,46.6854 10.5997,46.6214 10.9567,46.5544 C10.9957,46.7404 11.0237,46.8704 11.0547,47.0234 C11.2127,47.0164 11.3557,47.0114 11.5277,47.0044 C11.5227,46.8184 11.5177,46.6624 11.5137,46.5314 C12.0997,46.4574 12.6197,46.3924 13.1537,46.3254 C13.1967,46.5084 13.2367,46.6744 13.2867,46.8844 C13.6407,46.8114 13.9597,46.7454 14.2777,46.6804" id="Fill-20" fill="#FFFFFF"></path>
                        <path d="M15.599,8.8567 C15.705,8.3407 15.683,8.3077 15.07,8.1347 C14.898,8.0867 14.715,8.0487 14.529,8.0197 C13.157,7.8017 11.719,7.8967 10.281,7.9537 C7.232,8.0757 4.432,8.7727 1.802,9.9177 C1.585,10.0107 1.473,10.0977 1.541,10.2547 C1.595,10.3777 1.62,10.5057 1.663,10.6497 C1.778,10.6087 1.836,10.5937 1.884,10.5697 C4.016,9.5157 6.392,8.9527 8.915,8.6957 C11.194,8.4647 13.491,8.1767 15.599,8.8567" id="Fill-22" fill="#FFFFFF"></path>
                        <path d="M18.8753,34.7981 C18.9873,34.3941 18.9533,34.3261 18.3863,34.1721 C18.0803,34.0891 17.7533,34.0031 17.4173,33.9901 C16.3963,33.9511 15.3713,33.9091 14.3393,33.9381 C11.0703,34.0291 7.9733,34.6331 5.1153,35.9131 C4.8393,36.0361 4.7373,36.1421 4.8183,36.3241 C4.8653,36.4291 4.8933,36.5391 4.9363,36.6681 C5.0503,36.6271 5.1213,36.6081 5.1813,36.5791 C6.5683,35.8991 8.0743,35.3961 9.7073,35.0881 C11.9823,34.6581 14.2713,34.4081 16.5543,34.4861 C17.3513,34.5141 18.1073,34.6911 18.8753,34.7981" id="Fill-24" fill="#FFFFFF"></path>
                        <path d="M11.8011,46.5974 C11.8331,46.7404 11.8631,46.8724 11.9011,47.0354 C12.0211,46.8474 12.1111,46.7094 12.2001,46.5704 C12.2451,46.5774 12.2891,46.5844 12.3341,46.5914 C12.3701,46.7174 12.4051,46.8424 12.4481,46.9934 C12.5351,46.8034 12.5991,46.6624 12.6631,46.5224 C12.7111,46.5264 12.7581,46.5304 12.8051,46.5344 C12.8301,46.6384 12.8551,46.7424 12.8791,46.8474 C12.8991,46.8434 12.9181,46.8404 12.9371,46.8364 C12.9111,46.7184 12.8861,46.5984 12.8571,46.4654 C12.5071,46.5094 12.1801,46.5504 11.8011,46.5974" id="Fill-26" fill="#FFFFFF"></path>
                        <path d="M2.7694,6.8723 C2.7614,6.8653 2.7304,6.8533 2.7284,6.8373 C2.6074,5.9193 2.4844,5.0013 2.3774,4.0813 C2.3694,4.0133 2.4544,3.9023 2.5464,3.8573 C3.2274,3.5273 3.8814,3.1573 4.6164,2.8973 C7.5134,1.8733 10.3594,1.9363 13.1514,2.5013 C13.2824,2.5283 13.4134,2.6493 13.4274,2.7423 C13.5534,3.6103 13.6554,4.4823 13.7604,5.3533 C13.7664,5.3973 13.7404,5.4453 13.7254,5.5103 C13.1454,5.4763 12.6014,5.4243 12.0464,5.4153 C11.2134,5.4023 10.3734,5.4253 9.5384,5.4203 C9.4014,5.4193 9.1744,5.3653 9.1654,5.3103 C9.0524,4.5993 8.9704,3.8833 8.8774,3.1473 C10.0314,2.9443 11.0394,3.0513 12.0034,3.3003 C12.0624,3.3153 12.1274,3.3623 12.1334,3.4013 C12.1864,3.7573 12.2274,4.1143 12.2734,4.4763 C11.6424,4.4883 11.0624,4.5063 10.4864,4.5043 C10.3694,4.5043 10.1914,4.4483 10.1684,4.3883 C10.1064,4.2293 10.1124,4.0553 10.0874,3.8553 C10.5114,3.8433 10.9474,3.6653 11.0414,4.0453 C11.0474,4.0713 11.1724,4.1033 11.2214,4.0913 C11.3494,4.0563 11.5684,3.9903 11.5684,3.9523 C11.5674,3.7823 11.6914,3.5323 11.2874,3.5143 C10.8264,3.4953 10.3494,3.5253 9.8794,3.5373 C9.6194,3.5443 9.5274,3.6333 9.5524,3.7913 C9.5984,4.0773 9.6434,4.3643 9.6614,4.6533 C9.6724,4.8413 9.7914,4.8723 10.0864,4.8573 C10.9064,4.8163 11.7254,4.8103 12.5434,4.7893 C12.6314,4.7873 12.7184,4.7843 12.8694,4.7793 C12.8004,4.2263 12.7374,3.6923 12.6594,3.1613 C12.6514,3.1063 12.5634,3.0453 12.4824,3.0193 C11.1824,2.6083 9.7574,2.6663 8.2924,2.8653 C8.2754,2.9243 8.2574,2.9543 8.2604,2.9803 C8.3714,3.8903 8.4884,4.7993 8.5924,5.7093 C8.6144,5.9063 8.8084,5.8813 9.0354,5.8753 C10.3294,5.8403 11.6244,5.8023 12.9154,5.7893 C13.4034,5.7843 13.8804,5.8433 14.4124,5.8763 C14.2854,4.8703 14.0824,3.9203 14.0744,2.9553 C14.0694,2.3153 13.5764,2.0673 12.7494,1.9423 C12.6204,1.9233 12.4924,1.8913 12.3584,1.8883 C11.1674,1.8643 9.9794,1.8223 8.7824,1.8303 C6.2514,1.8503 4.0544,2.5653 2.0684,3.6623 C1.9174,3.7453 1.7774,3.9173 1.7874,4.0313 C1.8734,5.0993 1.9934,6.1633 2.1064,7.2273 C2.1144,7.2983 2.1464,7.3663 2.1784,7.4693 C3.8944,6.8273 5.6624,6.3913 7.4744,6.0453 C7.7834,5.9863 7.7484,5.8543 7.7304,5.7173 C7.6224,4.8653 7.5174,4.0133 7.4084,3.1623 C7.3994,3.0993 7.3644,3.0403 7.3374,2.9673 C5.8974,3.1373 4.6444,3.5803 3.4454,4.1123 C3.3444,4.1573 3.2864,4.3003 3.2924,4.3893 C3.3174,4.7553 3.3744,5.1173 3.4204,5.4813 C3.4424,5.6553 3.4644,5.8303 3.4814,5.9683 C4.5424,5.7103 5.5244,5.4713 6.5734,5.2163 C6.5304,4.8763 6.4924,4.4953 6.4224,4.1183 C6.4144,4.0713 6.2194,4.0063 6.1364,4.0243 C5.5474,4.1473 4.9664,4.2903 4.3824,4.4263 C4.4334,4.6543 4.4674,4.8113 4.5134,5.0213 C4.7214,4.9423 4.9994,4.8773 5.0034,4.8263 C5.0344,4.4223 5.4984,4.4833 5.9194,4.4043 C5.9444,4.5963 5.9784,4.7643 5.9774,4.9353 C5.9774,4.9833 5.8854,5.0703 5.8134,5.0873 C5.2094,5.2333 4.6004,5.3673 3.9334,5.5183 C3.8834,5.1253 3.8184,4.7563 3.8064,4.3833 C3.8034,4.3073 3.9714,4.1893 4.1014,4.1303 C4.9604,3.7443 5.9314,3.5893 6.9244,3.3873 C7.0224,4.1693 7.1174,4.9203 7.2064,5.6263 C5.7024,6.0493 4.2374,6.4603 2.7694,6.8723 M0.8834,6.3583 C0.8214,5.5413 0.7824,4.7223 0.6854,3.9103 C0.6474,3.5953 0.7904,3.3503 1.1154,3.0943 C3.4984,1.2163 6.4664,0.3933 9.9714,0.5083 C11.1674,0.5483 12.3434,0.6233 13.4034,0.9403 C14.2744,1.2013 14.7954,1.6093 14.8624,2.2753 C15.0254,3.8863 15.2424,5.4923 15.4344,7.1003 C15.4444,7.1843 15.4354,7.2713 15.4354,7.3443 C10.5914,6.7063 5.9134,7.0933 1.3944,9.1423 C1.2974,8.7833 1.1954,8.4033 1.0924,8.0233 C1.0234,7.4683 0.9534,6.9133 0.8834,6.3583" id="Fill-28" fill="#000000"></path>
                        <path d="M4.7581,35.7429 C4.7401,35.6549 4.7181,35.5749 4.7081,35.4929 C3.6961,27.4369 2.6871,19.3799 1.6591,11.3259 C1.6191,11.0059 1.7941,10.8239 2.1941,10.6319 C3.7181,9.8989 5.3951,9.4259 7.1711,9.1439 C9.7011,8.7419 12.2081,8.6299 14.6591,8.9389 C14.7171,8.9469 14.7761,8.9519 14.8351,8.9589 C15.4711,9.0289 15.7591,9.2339 15.8151,9.6899 C16.7901,17.6729 17.7991,25.6519 18.8011,33.6319 C18.8131,33.7269 18.8241,33.8219 18.8441,33.9739 C16.5051,33.5389 14.1421,33.4829 11.6791,33.8799 C9.2651,34.2679 6.8701,34.6789 4.7581,35.7429" id="Fill-30" fill="#000000"></path>
                        <path d="M7.1419,41.0022 C7.1339,40.9972 7.0999,40.9852 7.0979,40.9702 C6.9749,40.0532 6.8509,39.1352 6.7449,38.2162 C6.7369,38.1472 6.8219,38.0362 6.9139,37.9912 C7.5799,37.6662 8.2219,37.3012 8.9409,37.0462 C11.8659,36.0082 14.7399,36.0562 17.5559,36.6482 C17.6749,36.6742 17.7699,36.8092 17.7839,36.9052 C17.9089,37.7542 18.0129,38.6062 18.1189,39.4582 C18.1259,39.5182 18.0969,39.5832 18.0969,39.5852 C16.6669,39.5752 15.2779,39.5612 13.8849,39.5632 C13.6169,39.5632 13.5119,39.5142 13.4939,39.3482 C13.4249,38.7252 13.3489,38.1032 13.2569,37.4822 C13.2299,37.3012 13.3389,37.2362 13.6089,37.2102 C14.5499,37.1222 15.4319,37.1912 16.2599,37.4052 C16.3669,37.4322 16.4939,37.5032 16.5069,37.5702 C16.5719,37.9092 16.6029,38.2532 16.6479,38.6132 C16.1219,38.6212 15.6399,38.6222 15.1549,38.6362 C14.5179,38.6552 14.5049,38.6612 14.4919,38.2562 C14.4889,38.1692 14.6029,38.0022 14.6879,37.9892 C14.9179,37.9532 15.2589,37.8442 15.3489,38.0642 C15.4549,38.3232 15.6789,38.2222 15.9469,38.1492 C15.8889,37.9552 16.0879,37.6712 15.6429,37.6482 C15.0889,37.6182 14.5149,37.6562 13.9179,37.6652 C13.9809,38.1602 14.0329,38.5752 14.0799,38.9532 C15.1479,38.9262 16.1719,38.9012 17.2299,38.8762 C17.1899,38.5552 17.1479,38.2222 17.1059,37.8882 C17.0129,37.1382 17.0169,37.1312 15.8769,36.9362 C14.8259,36.7562 13.7319,36.8782 12.5989,36.9922 C12.7159,37.9222 12.8439,38.8092 12.9289,39.7002 C12.9559,39.9772 13.1139,40.0412 13.5429,40.0052 C15.1689,39.8682 16.7849,39.8152 18.3579,39.9912 C18.4789,40.0042 18.6109,39.9942 18.7879,39.9952 C18.7709,39.8622 18.7589,39.7682 18.7469,39.6742 C18.6359,38.7842 18.4609,37.8992 18.4369,37.0022 C18.4219,36.4682 18.0169,36.2422 17.3289,36.1202 C17.1729,36.0922 17.0189,36.0512 16.8569,36.0442 C15.8079,36.0002 14.7619,35.9292 13.7039,35.9322 C11.0249,35.9402 8.6109,36.5662 6.4579,37.7572 C6.1929,37.9042 6.0969,38.0372 6.1219,38.2432 C6.2459,39.2482 6.3449,40.2562 6.4559,41.2632 C6.4669,41.3632 6.4969,41.4612 6.5269,41.6012 C8.2649,40.9682 10.0299,40.5262 11.8359,40.1722 C12.1069,40.1202 12.1209,40.0152 12.1029,39.8772 C11.9919,39.0262 11.8809,38.1752 11.7849,37.3222 C11.7629,37.1332 11.6549,37.0852 11.3529,37.1372 C10.0929,37.3542 8.9349,37.7332 7.8429,38.2212 C7.7519,38.2612 7.6379,38.3502 7.6429,38.4032 C7.6989,38.9762 7.7759,39.5452 7.8469,40.1072 C8.9029,39.8462 9.9059,39.5992 10.9159,39.3492 C10.8669,38.9592 10.8159,38.5522 10.7619,38.1222 C10.5629,38.1472 10.3939,38.1572 10.2319,38.1912 C9.9489,38.2502 9.6659,38.3162 9.3899,38.3922 C8.6899,38.5862 8.6529,38.6452 8.9289,39.1372 C9.0859,39.0752 9.3629,39.0112 9.3679,38.9582 C9.4039,38.5552 9.8529,38.6122 10.2819,38.5542 C10.3039,38.7292 10.3419,38.8882 10.3339,39.0502 C10.3309,39.1072 10.2279,39.2052 10.1449,39.2252 C9.5469,39.3712 8.9419,39.5022 8.2929,39.6472 C8.2449,39.2652 8.1869,38.9152 8.1669,38.5612 C8.1629,38.4812 8.2609,38.3572 8.3689,38.3082 C9.2569,37.8952 10.2609,37.7212 11.2739,37.5282 C11.3739,38.3252 11.4689,39.0752 11.5549,39.7582 C10.0449,40.1842 8.5969,40.5922 7.1419,41.0022 M19.8039,41.6332 C15.8189,40.0972 8.6209,41.2592 5.7819,43.5662 C5.7589,43.4772 5.7349,43.4082 5.7259,43.3382 C5.4949,41.5022 5.2699,39.6642 5.0259,37.8282 C4.9949,37.5942 5.0699,37.4382 5.3959,37.2732 C6.9639,36.4812 8.5929,35.7592 10.4609,35.3672 C11.2699,35.1972 12.1319,35.1102 12.9609,35.0792 C14.7229,35.0112 16.4489,35.1002 18.1119,35.3632 C18.2689,35.3882 18.4169,35.4302 18.5739,35.4562 C18.9259,35.5152 19.0679,35.6532 19.0959,35.8992 C19.2989,37.6712 19.5299,39.4402 19.7509,41.2102 C19.7669,41.3322 19.7819,41.4542 19.8039,41.6332" id="Fill-32" fill="#000000"></path>
                        <path d="M14.2777,46.6804 C13.9597,46.7454 13.6407,46.8114 13.2867,46.8844 C13.2367,46.6744 13.1967,46.5084 13.1537,46.3254 C12.6197,46.3924 12.0997,46.4574 11.5137,46.5314 C11.5177,46.6624 11.5227,46.8184 11.5277,47.0044 C11.3557,47.0114 11.2127,47.0164 11.0547,47.0234 C11.0237,46.8704 10.9957,46.7404 10.9567,46.5544 C10.5997,46.6214 10.2537,46.6854 9.9077,46.7504 C9.9127,46.7734 9.9167,46.7964 9.9217,46.8204 C10.0657,46.7954 10.2097,46.7614 10.3537,46.7474 C10.4517,46.7394 10.6087,46.7364 10.6367,46.7704 C10.6907,46.8344 10.6697,46.9274 10.6797,47.0084 C10.6357,47.0114 10.5917,47.0144 10.5477,47.0184 C10.5397,46.9534 10.5317,46.8884 10.5227,46.8164 C10.2327,46.8524 9.9537,46.8884 9.6347,46.9284 C9.5577,46.8694 9.5517,46.5974 9.2087,46.8754 C9.1727,46.9054 9.0077,46.8884 8.9137,46.8744 C8.0217,46.7384 7.2167,46.5084 6.6157,46.0774 C5.9077,45.5714 5.8727,44.8944 6.5157,44.2234 C7.1147,43.5974 7.9827,43.1524 8.9637,42.8094 C11.6497,41.8714 14.4057,41.5394 17.2067,41.8864 C17.7397,41.9514 18.2597,42.0794 18.7257,42.2404 C20.5627,42.8764 20.6807,44.0924 19.0097,45.1334 C17.9547,45.7894 16.7487,46.2734 15.3377,46.4884 C15.0727,46.5294 14.8227,46.6384 14.5587,46.6914 C14.4717,46.7084 14.3607,46.6484 14.2607,46.6234 C14.2667,46.6424 14.2727,46.6614 14.2777,46.6804" id="Fill-34" fill="#000000"></path>
                        <path d="M15.599,8.8567 C13.491,8.1767 11.194,8.4647 8.915,8.6957 C6.392,8.9527 4.016,9.5157 1.884,10.5697 C1.836,10.5937 1.778,10.6087 1.663,10.6497 C1.62,10.5057 1.595,10.3777 1.541,10.2547 C1.473,10.0977 1.585,10.0107 1.802,9.9177 C4.432,8.7727 7.232,8.0757 10.281,7.9537 C11.719,7.8967 13.157,7.8017 14.529,8.0197 C14.715,8.0487 14.898,8.0867 15.07,8.1347 C15.683,8.3077 15.705,8.3407 15.599,8.8567" id="Fill-36" fill="#000000"></path>
                        <path d="M18.8753,34.7981 C18.1073,34.6911 17.3513,34.5141 16.5543,34.4861 C14.2713,34.4081 11.9823,34.6581 9.7073,35.0881 C8.0743,35.3961 6.5683,35.8991 5.1813,36.5791 C5.1213,36.6081 5.0503,36.6271 4.9363,36.6681 C4.8933,36.5391 4.8653,36.4291 4.8183,36.3241 C4.7373,36.1421 4.8393,36.0361 5.1153,35.9131 C7.9733,34.6331 11.0703,34.0291 14.3393,33.9381 C15.3713,33.9091 16.3963,33.9511 17.4173,33.9901 C17.7533,34.0031 18.0803,34.0891 18.3863,34.1721 C18.9533,34.3261 18.9873,34.3941 18.8753,34.7981" id="Fill-38" fill="#000000"></path>
                        <path d="M11.8011,46.5974 C12.1801,46.5504 12.5071,46.5094 12.8571,46.4654 C12.8861,46.5984 12.9111,46.7184 12.9371,46.8364 C12.9181,46.8404 12.8991,46.8434 12.8791,46.8474 C12.8551,46.7424 12.8301,46.6384 12.8051,46.5344 C12.7581,46.5304 12.7111,46.5264 12.6631,46.5224 C12.5991,46.6624 12.5351,46.8034 12.4481,46.9934 C12.4051,46.8424 12.3701,46.7174 12.3341,46.5914 C12.2891,46.5844 12.2451,46.5774 12.2001,46.5704 C12.1111,46.7094 12.0211,46.8474 11.9011,47.0354 C11.8631,46.8724 11.8331,46.7404 11.8011,46.5974" id="Fill-40" fill="#000000"></path>
                        <path d="M2.7694,6.8723 C4.2374,6.4603 5.7024,6.0493 7.2064,5.6263 C7.1174,4.9203 7.0224,4.1693 6.9244,3.3873 C5.9314,3.5893 4.9604,3.7443 4.1014,4.1303 C3.9714,4.1893 3.8034,4.3073 3.8064,4.3833 C3.8184,4.7563 3.8834,5.1253 3.9334,5.5183 C4.6004,5.3673 5.2094,5.2333 5.8134,5.0873 C5.8854,5.0703 5.9774,4.9833 5.9774,4.9353 C5.9784,4.7643 5.9444,4.5963 5.9194,4.4043 C5.4984,4.4833 5.0344,4.4223 5.0034,4.8263 C4.9994,4.8773 4.7214,4.9423 4.5134,5.0213 C4.4674,4.8113 4.4334,4.6543 4.3824,4.4263 C4.9664,4.2903 5.5474,4.1473 6.1364,4.0243 C6.2194,4.0063 6.4144,4.0713 6.4224,4.1183 C6.4924,4.4953 6.5304,4.8763 6.5734,5.2163 C5.5244,5.4713 4.5424,5.7103 3.4814,5.9683 C3.4644,5.8303 3.4424,5.6553 3.4204,5.4813 C3.3744,5.1173 3.3174,4.7553 3.2924,4.3893 C3.2864,4.3003 3.3444,4.1573 3.4454,4.1123 C4.6444,3.5803 5.8974,3.1373 7.3374,2.9673 C7.3644,3.0403 7.3994,3.0993 7.4084,3.1623 C7.5174,4.0133 7.6224,4.8653 7.7304,5.7173 C7.7484,5.8543 7.7834,5.9863 7.4744,6.0453 C5.6624,6.3913 3.8944,6.8273 2.1784,7.4693 C2.1464,7.3663 2.1144,7.2983 2.1064,7.2273 C1.9934,6.1633 1.8734,5.0993 1.7874,4.0313 C1.7774,3.9173 1.9174,3.7453 2.0684,3.6623 C4.0544,2.5653 6.2514,1.8503 8.7824,1.8303 C9.9794,1.8223 11.1674,1.8643 12.3584,1.8883 C12.4924,1.8913 12.6204,1.9233 12.7494,1.9423 C13.5764,2.0673 14.0694,2.3153 14.0744,2.9553 C14.0824,3.9203 14.2854,4.8703 14.4124,5.8763 C13.8804,5.8433 13.4034,5.7843 12.9154,5.7893 C11.6244,5.8023 10.3294,5.8403 9.0354,5.8753 C8.8084,5.8813 8.6144,5.9063 8.5924,5.7093 C8.4884,4.7993 8.3714,3.8903 8.2604,2.9803 C8.2574,2.9543 8.2754,2.9243 8.2924,2.8653 C9.7574,2.6663 11.1824,2.6083 12.4824,3.0193 C12.5634,3.0453 12.6514,3.1063 12.6594,3.1613 C12.7374,3.6923 12.8004,4.2263 12.8694,4.7793 C12.7184,4.7843 12.6314,4.7873 12.5434,4.7893 C11.7254,4.8103 10.9064,4.8163 10.0864,4.8573 C9.7914,4.8723 9.6724,4.8413 9.6614,4.6533 C9.6434,4.3643 9.5984,4.0773 9.5524,3.7913 C9.5274,3.6333 9.6194,3.5443 9.8794,3.5373 C10.3494,3.5253 10.8264,3.4953 11.2874,3.5143 C11.6914,3.5323 11.5674,3.7823 11.5684,3.9523 C11.5684,3.9903 11.3494,4.0563 11.2214,4.0913 C11.1724,4.1033 11.0474,4.0713 11.0414,4.0453 C10.9474,3.6653 10.5114,3.8433 10.0874,3.8553 C10.1124,4.0553 10.1064,4.2293 10.1684,4.3883 C10.1914,4.4483 10.3694,4.5043 10.4864,4.5043 C11.0624,4.5063 11.6424,4.4883 12.2734,4.4763 C12.2274,4.1143 12.1864,3.7573 12.1334,3.4013 C12.1274,3.3623 12.0624,3.3153 12.0034,3.3003 C11.0394,3.0513 10.0314,2.9443 8.8774,3.1473 C8.9704,3.8833 9.0524,4.5993 9.1654,5.3103 C9.1744,5.3653 9.4014,5.4193 9.5384,5.4203 C10.3734,5.4253 11.2134,5.4023 12.0464,5.4153 C12.6014,5.4243 13.1454,5.4763 13.7254,5.5103 C13.7404,5.4453 13.7664,5.3973 13.7604,5.3533 C13.6554,4.4823 13.5534,3.6103 13.4274,2.7423 C13.4134,2.6493 13.2824,2.5283 13.1514,2.5013 C10.3594,1.9363 7.5134,1.8733 4.6164,2.8973 C3.8814,3.1573 3.2274,3.5273 2.5464,3.8573 C2.4544,3.9023 2.3694,4.0133 2.3774,4.0813 C2.4844,5.0013 2.6074,5.9193 2.7284,6.8373 C2.7304,6.8533 2.7614,6.8653 2.7694,6.8723" id="Fill-42" fill="#FFFFFF"></path>
                        <path d="M7.1419,41.0022 C8.5969,40.5922 10.0449,40.1842 11.5549,39.7582 C11.4689,39.0752 11.3739,38.3252 11.2739,37.5282 C10.2609,37.7212 9.2569,37.8952 8.3689,38.3082 C8.2609,38.3572 8.1629,38.4812 8.1669,38.5612 C8.1869,38.9152 8.2449,39.2652 8.2929,39.6472 C8.9419,39.5022 9.5469,39.3712 10.1449,39.2252 C10.2279,39.2052 10.3309,39.1072 10.3339,39.0502 C10.3419,38.8882 10.3039,38.7292 10.2819,38.5542 C9.8529,38.6122 9.4039,38.5552 9.3679,38.9582 C9.3629,39.0112 9.0859,39.0752 8.9289,39.1372 C8.6529,38.6452 8.6899,38.5862 9.3899,38.3922 C9.6659,38.3162 9.9489,38.2502 10.2319,38.1912 C10.3939,38.1572 10.5629,38.1472 10.7619,38.1222 C10.8159,38.5522 10.8669,38.9592 10.9159,39.3492 C9.9059,39.5992 8.9029,39.8462 7.8469,40.1072 C7.7759,39.5452 7.6989,38.9762 7.6429,38.4032 C7.6379,38.3502 7.7519,38.2612 7.8429,38.2212 C8.9349,37.7332 10.0929,37.3542 11.3529,37.1372 C11.6549,37.0852 11.7629,37.1332 11.7849,37.3222 C11.8809,38.1752 11.9919,39.0262 12.1029,39.8772 C12.1209,40.0152 12.1069,40.1202 11.8359,40.1722 C10.0299,40.5262 8.2649,40.9682 6.5269,41.6012 C6.4969,41.4612 6.4669,41.3632 6.4559,41.2632 C6.3449,40.2562 6.2459,39.2482 6.1219,38.2432 C6.0969,38.0372 6.1929,37.9042 6.4579,37.7572 C8.6109,36.5662 11.0249,35.9402 13.7039,35.9322 C14.7619,35.9292 15.8079,36.0002 16.8569,36.0442 C17.0189,36.0512 17.1729,36.0922 17.3289,36.1202 C18.0169,36.2422 18.4219,36.4682 18.4369,37.0022 C18.4609,37.8992 18.6359,38.7842 18.7469,39.6742 C18.7589,39.7682 18.7709,39.8622 18.7879,39.9952 C18.6109,39.9942 18.4789,40.0042 18.3579,39.9912 C16.7849,39.8152 15.1689,39.8682 13.5429,40.0052 C13.1139,40.0412 12.9559,39.9772 12.9289,39.7002 C12.8439,38.8092 12.7159,37.9222 12.5989,36.9922 C13.7319,36.8782 14.8259,36.7562 15.8769,36.9362 C17.0169,37.1312 17.0129,37.1382 17.1059,37.8882 C17.1479,38.2222 17.1899,38.5552 17.2299,38.8762 C16.1719,38.9012 15.1479,38.9262 14.0799,38.9532 C14.0329,38.5752 13.9809,38.1602 13.9179,37.6652 C14.5149,37.6562 15.0889,37.6182 15.6429,37.6482 C16.0879,37.6712 15.8889,37.9552 15.9469,38.1492 C15.6789,38.2222 15.4549,38.3232 15.3489,38.0642 C15.2589,37.8442 14.9179,37.9532 14.6879,37.9892 C14.6029,38.0022 14.4889,38.1692 14.4919,38.2562 C14.5049,38.6612 14.5179,38.6552 15.1549,38.6362 C15.6399,38.6222 16.1219,38.6212 16.6479,38.6132 C16.6029,38.2532 16.5719,37.9092 16.5069,37.5702 C16.4939,37.5032 16.3669,37.4322 16.2599,37.4052 C15.4319,37.1912 14.5499,37.1222 13.6089,37.2102 C13.3389,37.2362 13.2299,37.3012 13.2569,37.4822 C13.3489,38.1032 13.4249,38.7252 13.4939,39.3482 C13.5119,39.5142 13.6169,39.5632 13.8849,39.5632 C15.2779,39.5612 16.6669,39.5752 18.0969,39.5852 C18.0969,39.5832 18.1259,39.5182 18.1189,39.4582 C18.0129,38.6062 17.9089,37.7542 17.7839,36.9052 C17.7699,36.8092 17.6749,36.6742 17.5559,36.6482 C14.7399,36.0562 11.8659,36.0082 8.9409,37.0462 C8.2219,37.3012 7.5799,37.6662 6.9139,37.9912 C6.8219,38.0362 6.7369,38.1472 6.7449,38.2162 C6.8509,39.1352 6.9749,40.0532 7.0979,40.9702 C7.0999,40.9852 7.1339,40.9972 7.1419,41.0022" id="Fill-44" fill="#FFFFFF"></path>
                        <path d="M20.409,43.822 C20.616,45.472 17.532,47.218 13.521,47.721 C9.51,48.224 6.09,47.295 5.883,45.645 C5.676,43.995 8.76,42.249 12.771,41.746 C16.783,41.242 20.202,42.172 20.409,43.822" id="Fill-46" fill="#000000"></path>
                        <path d="M296.5628,5.3845 C296.5478,5.5645 296.5378,5.6865 296.5278,5.8085 C296.3788,7.5865 296.2218,9.3635 296.0918,11.1425 C296.0738,11.3895 295.9378,11.5335 295.5888,11.6065 C295.4338,11.6395 295.2878,11.6875 295.1308,11.7185 C293.4798,12.0505 291.7598,12.2105 289.9958,12.2155 C289.1668,12.2175 288.3018,12.1675 287.4868,12.0305 C285.6048,11.7165 283.9458,11.0615 282.3478,10.3355 C282.0148,10.1835 281.9328,10.0315 281.9548,9.7955 C282.1228,7.9515 282.2708,6.1065 282.4268,4.2615 C282.4328,4.1915 282.4538,4.1225 282.4728,4.0315 C285.4048,6.2195 292.6448,7.0835 296.5628,5.3845" id="Fill-50" fill="#FFFFFF"></path>
                        <path d="M293.7142,38.3064 C293.8412,38.8174 293.8202,38.8514 293.2152,39.0494 C293.0452,39.1044 292.8632,39.1504 292.6792,39.1874 C291.3182,39.4614 289.8772,39.4264 288.4372,39.4284 C285.3862,39.4314 282.5602,38.8514 279.8842,37.8164 C279.6652,37.7314 279.5482,37.6494 279.6102,37.4894 C279.6592,37.3654 279.6792,37.2354 279.7162,37.0894 C279.8322,37.1264 279.8912,37.1394 279.9402,37.1604 C282.1132,38.1264 284.5112,38.5904 287.0422,38.7434 C289.3292,38.8804 291.6362,39.0734 293.7142,38.3064" id="Fill-54" fill="#FFFFFF"></path>
                        <path d="M295.9173,12.2517 C296.0453,12.6507 296.0143,12.7197 295.4543,12.8977 C295.1523,12.9937 294.8293,13.0927 294.4933,13.1197 C293.4753,13.1997 292.4523,13.2847 291.4203,13.2987 C288.1503,13.3427 285.0303,12.8667 282.1233,11.7067 C281.8423,11.5937 281.7353,11.4927 281.8093,11.3077 C281.8513,11.2007 281.8743,11.0897 281.9133,10.9597 C282.0283,10.9957 282.1003,11.0117 282.1613,11.0387 C283.5753,11.6597 285.1003,12.0997 286.7453,12.3407 C289.0353,12.6757 291.3343,12.8317 293.6103,12.6587 C294.4063,12.5987 295.1543,12.3907 295.9173,12.2517" id="Fill-56" fill="#FFFFFF"></path>
                        <path d="M288.3622,0.7546 C288.3882,0.6106 288.4132,0.4766 288.4442,0.3126 C288.5722,0.4956 288.6672,0.6296 288.7612,0.7646 L288.8952,0.7386 C288.9252,0.6116 288.9562,0.4846 288.9922,0.3326 C289.0872,0.5186 289.1562,0.6566 289.2262,0.7946 C289.2742,0.7886 289.3202,0.7826 289.3682,0.7766 C289.3882,0.6716 289.4082,0.5666 289.4292,0.4616 C289.4482,0.4636 289.4672,0.4656 289.4872,0.4686 C289.4662,0.5886 289.4462,0.7086 289.4232,0.8436 C289.0712,0.8146 288.7422,0.7866 288.3622,0.7546" id="Fill-58" fill="#FFFFFF"></path>
                        <g id="Group" transform="translate(286.917411, 24.162143) rotate(181.000000) translate(-286.917411, -24.162143) translate(277.417411, 0.162143)">
                            <path d="M18.077,4.1726 C18.216,2.5156 15.062,0.8986 11.034,0.5606 C7.005,0.2236 3.627,1.2936 3.488,2.9506 C3.349,4.6076 6.502,6.2246 10.531,6.5616 C14.56,6.8996 17.938,5.8296 18.077,4.1726" id="Fill-78" fill="#000000"></path>
                            <path d="M4.9378,7.5373 C6.4078,7.8873 7.8718,8.2353 9.3978,8.5983 C9.3398,9.2843 9.2768,10.0373 9.2098,10.8383 C8.1898,10.6863 7.1798,10.5543 6.2738,10.1793 C6.1648,10.1333 6.0618,10.0143 6.0628,9.9343 C6.0678,9.5793 6.1108,9.2273 6.1438,8.8433 C6.7978,8.9623 7.4078,9.0673 8.0118,9.1883 C8.0958,9.2053 8.2018,9.2993 8.2078,9.3563 C8.2228,9.5173 8.1898,9.6783 8.1758,9.8533 C7.7448,9.8133 7.2988,9.8883 7.2458,9.4883 C7.2388,9.4343 6.9598,9.3823 6.7998,9.3273 C6.5448,9.8303 6.5838,9.8873 7.2918,10.0523 C7.5708,10.1173 7.8558,10.1713 8.1418,10.2183 C8.3038,10.2453 8.4738,10.2483 8.6728,10.2663 C8.7088,9.8333 8.7438,9.4253 8.7768,9.0333 C7.7568,8.8253 6.7448,8.6193 5.6788,8.4023 C5.6318,8.9673 5.5778,9.5393 5.5448,10.1133 C5.5418,10.1673 5.6598,10.2503 5.7518,10.2873 C6.8638,10.7293 8.0368,11.0603 9.3048,11.2253 C9.6088,11.2643 9.7138,11.2123 9.7278,11.0223 C9.7898,10.1663 9.8648,9.3113 9.9408,8.4563 C9.9538,8.3183 9.9358,8.2143 9.6618,8.1723 C7.8418,7.8933 6.0608,7.5243 4.2978,6.9643 C4.2738,7.1053 4.2488,7.2043 4.2418,7.3053 C4.1718,8.3153 4.1148,9.3273 4.0328,10.3363 C4.0158,10.5433 4.1178,10.6723 4.3878,10.8073 C6.5888,11.9093 9.0268,12.4343 11.7028,12.3323 C12.7608,12.2913 13.8018,12.1773 14.8488,12.0903 C15.0108,12.0763 15.1628,12.0293 15.3168,11.9953 C16.0008,11.8443 16.3958,11.6013 16.3878,11.0683 C16.3758,10.1703 16.5128,9.2793 16.5878,8.3853 C16.5958,8.2903 16.6038,8.1963 16.6148,8.0623 C16.4388,8.0713 16.3068,8.0663 16.1858,8.0853 C14.6218,8.3263 13.0048,8.3393 11.3748,8.2693 C10.9438,8.2513 10.7888,8.3223 10.7738,8.5993 C10.7248,9.4943 10.6338,10.3853 10.5558,11.3183 C11.6918,11.3863 12.7908,11.4623 13.8338,11.2393 C14.9638,10.9973 14.9598,10.9913 15.0218,10.2373 C15.0498,9.9023 15.0788,9.5673 15.1048,9.2453 C14.0458,9.2633 13.0228,9.2803 11.9548,9.2983 C11.9228,9.6783 11.8878,10.0943 11.8458,10.5923 C12.4418,10.5763 13.0178,10.5903 13.5698,10.5383 C14.0138,10.4953 13.8028,10.2213 13.8528,10.0243 C13.5818,9.9623 13.3538,9.8703 13.2588,10.1343 C13.1788,10.3573 12.8328,10.2633 12.6018,10.2363 C12.5168,10.2263 12.3958,10.0653 12.3948,9.9773 C12.3908,9.5723 12.4048,9.5773 13.0418,9.5703 C13.5258,9.5643 14.0088,9.5453 14.5348,9.5323 C14.5038,9.8933 14.4878,10.2383 14.4358,10.5793 C14.4258,10.6473 14.3018,10.7233 14.1958,10.7553 C13.3778,11.0023 12.4988,11.1083 11.5558,11.0583 C11.2848,11.0443 11.1728,10.9833 11.1918,10.8013 C11.2578,10.1783 11.3088,9.5533 11.3518,8.9283 C11.3638,8.7613 11.4668,8.7083 11.7338,8.6973 C13.1258,8.6413 14.5138,8.5693 15.9418,8.5013 C15.9418,8.5033 15.9738,8.5673 15.9688,8.6273 C15.8978,9.4823 15.8288,10.3383 15.7398,11.1913 C15.7298,11.2883 15.6408,11.4273 15.5218,11.4573 C12.7328,12.1653 9.8638,12.3323 6.8988,11.4153 C6.1688,11.1903 5.5138,10.8523 4.8348,10.5553 C4.7398,10.5143 4.6498,10.4063 4.6558,10.3373 C4.7248,9.4143 4.8108,8.4933 4.8958,7.5713 C4.8958,7.5563 4.9298,7.5433 4.9378,7.5373" id="Fill-76" fill="#FFFFFF"></path>
                            <path d="M9.3622,1.7546 C9.7422,1.7866 10.0712,1.8146 10.4232,1.8436 C10.4462,1.7086 10.4662,1.5886 10.4872,1.4686 C10.4672,1.4656 10.4482,1.4636 10.4292,1.4616 C10.4082,1.5666 10.3882,1.6716 10.3682,1.7766 C10.3202,1.7826 10.2742,1.7886 10.2262,1.7946 C10.1562,1.6566 10.0872,1.5186 9.9922,1.3326 C9.9562,1.4846 9.9252,1.6116 9.8952,1.7386 L9.7612,1.7646 C9.6672,1.6296 9.5722,1.4956 9.4442,1.3126 C9.4132,1.4766 9.3882,1.6106 9.3622,1.7546" id="Fill-72" fill="#000000"></path>
                            <path d="M1.9769,41.8186 C3.4609,42.1696 4.9409,42.5206 6.4609,42.8806 C6.4019,43.5896 6.3389,44.3436 6.2729,45.1296 C5.2719,44.9676 4.2959,44.8536 3.4209,44.5026 C3.2889,44.4496 3.1159,44.3396 3.1159,44.2626 C3.1129,43.8896 3.1629,43.5186 3.1959,43.1226 C3.8689,43.2466 4.4829,43.3556 5.0929,43.4766 C5.1649,43.4906 5.2609,43.5736 5.2629,43.6216 C5.2709,43.7926 5.2429,43.9626 5.2269,44.1546 C4.8019,44.0926 4.3409,44.1726 4.2939,43.7706 C4.2889,43.7196 4.0069,43.6666 3.7969,43.5956 C3.7589,43.8076 3.7309,43.9656 3.6899,44.1956 C4.2789,44.3076 4.8659,44.4266 5.4589,44.5256 C5.5429,44.5396 5.7339,44.4666 5.7409,44.4196 C5.7949,44.0406 5.8179,43.6566 5.8459,43.3166 C4.7879,43.1046 3.7969,42.9066 2.7259,42.6926 C2.7149,42.8316 2.6999,43.0066 2.6849,43.1816 C2.6549,43.5476 2.6119,43.9116 2.6019,44.2776 C2.5999,44.3666 2.6639,44.5066 2.7669,44.5476 C3.9859,45.0306 5.2569,45.4216 6.7029,45.5316 C6.7269,45.4576 6.7599,45.3976 6.7649,45.3346 C6.8389,44.4786 6.9089,43.6236 6.9819,42.7676 C6.9939,42.6306 7.0239,42.4966 6.7119,42.4506 C4.8879,42.1806 3.1029,41.8176 1.3629,41.2466 C1.3349,41.3506 1.3049,41.4196 1.2999,41.4906 C1.2309,42.5596 1.1549,43.6276 1.1129,44.6976 C1.1079,44.8116 1.2549,44.9786 1.4099,45.0556 C3.4389,46.0686 5.6639,46.6926 8.1929,46.6076 C9.3899,46.5676 10.5749,46.4756 11.7639,46.4026 C11.8979,46.3946 12.0239,46.3576 12.1529,46.3326 C12.9729,46.1726 13.4559,45.9056 13.4349,45.2646 C13.4029,44.3006 13.5659,43.3436 13.6509,42.3326 C13.1219,42.3876 12.6469,42.4666 12.1589,42.4826 C10.8689,42.5226 9.5739,42.5386 8.2789,42.5556 C8.0519,42.5596 7.8569,42.5426 7.8429,42.7396 C7.7769,43.6536 7.6969,44.5676 7.6239,45.4806 C7.6219,45.5076 7.6419,45.5366 7.6619,45.5946 C9.1329,45.7326 10.5589,45.7326 11.8419,45.2666 C11.9209,45.2376 12.0059,45.1736 12.0119,45.1186 C12.0689,44.5846 12.1089,44.0486 12.1549,43.4926 C12.0039,43.4946 11.9169,43.4946 11.8299,43.4956 C11.0099,43.5096 10.1929,43.5366 9.3709,43.5296 C9.0769,43.5266 8.9589,43.5636 8.9549,43.7516 C8.9489,44.0416 8.9149,44.3296 8.8819,44.6166 C8.8629,44.7766 8.9579,44.8616 9.2189,44.8576 C9.6889,44.8496 10.1659,44.8606 10.6269,44.8216 C11.0299,44.7886 10.8949,44.5426 10.8899,44.3736 C10.8879,44.3346 10.6659,44.2776 10.5369,44.2486 C10.4879,44.2376 10.3639,44.2756 10.3589,44.3016 C10.2809,44.6846 9.8369,44.5256 9.4139,44.5306 C9.4299,44.3306 9.4169,44.1566 9.4729,43.9946 C9.4939,43.9346 9.6679,43.8706 9.7859,43.8656 C10.3609,43.8406 10.9409,43.8346 11.5719,43.8206 C11.5409,44.1836 11.5149,44.5426 11.4769,44.9006 C11.4719,44.9396 11.4099,44.9886 11.3509,45.0066 C10.3979,45.2956 9.3949,45.4436 8.2339,45.2886 C8.2959,44.5496 8.3489,43.8306 8.4329,43.1146 C8.4389,43.0606 8.6639,42.9966 8.8009,42.9906 C9.6339,42.9506 10.4759,42.9386 11.3069,42.8916 C11.8599,42.8606 12.4019,42.7856 12.9799,42.7276 C12.9979,42.7926 13.0259,42.8386 13.0219,42.8816 C12.9529,43.7566 12.8869,44.6326 12.7959,45.5056 C12.7869,45.5986 12.6609,45.7256 12.5309,45.7566 C9.7649,46.4376 6.9229,46.6176 3.9869,45.7146 C3.2419,45.4856 2.5729,45.1416 1.8789,44.8406 C1.7849,44.7986 1.6959,44.6916 1.7009,44.6226 C1.7689,43.6996 1.8549,42.7776 1.9379,41.8556 C1.9399,41.8396 1.9689,41.8256 1.9769,41.8186" id="Fill-74" fill="#FFFFFF"></path>
                            <path d="M16.9173,13.2517 C16.1543,13.3907 15.4063,13.5987 14.6103,13.6587 C12.3343,13.8317 10.0353,13.6757 7.7453,13.3407 C6.1003,13.0997 4.5753,12.6597 3.1613,12.0387 C3.1003,12.0117 3.0283,11.9957 2.9133,11.9597 C2.8743,12.0897 2.8513,12.2007 2.8093,12.3077 C2.7353,12.4927 2.8423,12.5937 3.1233,12.7067 C6.0303,13.8667 9.1503,14.3427 12.4203,14.2987 C13.4523,14.2847 14.4753,14.1997 15.4933,14.1197 C15.8293,14.0927 16.1523,13.9937 16.4543,13.8977 C17.0143,13.7197 17.0453,13.6507 16.9173,13.2517" id="Fill-70" fill="#000000"></path>
                            <path d="M2.7328,13.1419 C2.0538,21.2329 1.3788,29.3249 0.6848,37.4149 C0.6568,37.7369 0.8398,37.9109 1.2468,38.0859 C2.7998,38.7559 4.4958,39.1589 6.2808,39.3669 C8.8268,39.6639 11.3358,39.6729 13.7718,39.2629 C13.8298,39.2529 13.8878,39.2449 13.9458,39.2359 C14.5798,39.1409 14.8588,38.9229 14.8958,38.4649 C15.5408,30.4489 16.2188,22.4349 16.8908,14.4199 C16.8988,14.3249 16.9068,14.2299 16.9198,14.0759 C14.6018,14.6079 12.2428,14.7609 9.7658,14.4669 C7.3368,14.1789 4.9268,13.8669 2.7728,12.8909 C2.7588,12.9789 2.7398,13.0599 2.7328,13.1419 Z" id="Fill-62" fill="#000000"></path>
                            <path d="M9.3978,8.5979 C9.3398,9.2849 9.2768,10.0369 9.2108,10.8379 C8.1898,10.6859 7.1798,10.5549 6.2738,10.1789 C6.1648,10.1339 6.0618,10.0139 6.0628,9.9339 C6.0678,9.5799 6.1108,9.2269 6.1438,8.8439 C6.7978,8.9619 7.4078,9.0679 8.0118,9.1889 C8.0958,9.2049 8.2018,9.2989 8.2078,9.3559 C8.2228,9.5169 8.1898,9.6779 8.1758,9.8539 C7.7448,9.8139 7.2988,9.8889 7.2458,9.4879 C7.2388,9.4349 6.9598,9.3829 6.7998,9.3269 C6.5448,9.8299 6.5838,9.8879 7.2918,10.0519 C7.5708,10.1179 7.8558,10.1709 8.1418,10.2189 C8.3038,10.2459 8.4738,10.2489 8.6728,10.2659 C8.7098,9.8339 8.7438,9.4259 8.7768,9.0329 C7.7568,8.8259 6.7448,8.6189 5.6788,8.4019 C5.6318,8.9669 5.5778,9.5389 5.5448,10.1129 C5.5428,10.1669 5.6598,10.2509 5.7518,10.2869 C6.8638,10.7289 8.0368,11.0609 9.3048,11.2249 C9.6088,11.2649 9.7138,11.2119 9.7278,11.0229 C9.7898,10.1659 9.8648,9.3109 9.9408,8.4569 C9.9538,8.3179 9.9358,8.2139 9.6618,8.1729 C7.8418,7.8939 6.0608,7.5249 4.2978,6.9649 C4.2738,7.1049 4.2488,7.2049 4.2418,7.3059 C4.1718,8.3159 4.1148,9.3269 4.0328,10.3359 C4.0158,10.5429 4.1178,10.6719 4.3878,10.8069 C6.5888,11.9089 9.0268,12.4349 11.7028,12.3319 C12.7608,12.2919 13.8018,12.1779 14.8488,12.0899 C15.0108,12.0769 15.1628,12.0299 15.3168,11.9949 C16.0008,11.8439 16.3958,11.6019 16.3878,11.0679 C16.3758,10.1699 16.5128,9.2799 16.5878,8.3859 C16.5958,8.2909 16.6038,8.1959 16.6148,8.0629 C16.4388,8.0709 16.3068,8.0669 16.1858,8.0849 C14.6218,8.3259 13.0048,8.3389 11.3748,8.2689 C10.9438,8.2509 10.7888,8.3219 10.7738,8.5989 C10.7248,9.4939 10.6338,10.3849 10.5558,11.3189 C11.6918,11.3859 12.7908,11.4629 13.8338,11.2399 C14.9638,10.9969 14.9598,10.9909 15.0228,10.2379 C15.0498,9.9029 15.0788,9.5679 15.1058,9.2449 C14.0458,9.2639 13.0228,9.2809 11.9548,9.2989 C11.9228,9.6779 11.8878,10.0949 11.8458,10.5919 C12.4418,10.5769 13.0178,10.5909 13.5698,10.5379 C14.0138,10.4959 13.8028,10.2209 13.8528,10.0249 C13.5818,9.9619 13.3538,9.8709 13.2588,10.1339 C13.1788,10.3579 12.8328,10.2629 12.6018,10.2369 C12.5168,10.2269 12.3958,10.0649 12.3948,9.9779 C12.3908,9.5729 12.4048,9.5769 13.0418,9.5699 C13.5258,9.5649 14.0088,9.5459 14.5348,9.5319 C14.5038,9.8929 14.4878,10.2389 14.4358,10.5799 C14.4258,10.6469 14.3018,10.7229 14.1958,10.7549 C13.3778,11.0019 12.4988,11.1079 11.5558,11.0589 C11.2848,11.0449 11.1728,10.9839 11.1918,10.8019 C11.2578,10.1779 11.3088,9.5539 11.3518,8.9279 C11.3638,8.7619 11.4668,8.7079 11.7338,8.6979 C13.1258,8.6409 14.5138,8.5699 15.9418,8.5009 C15.9418,8.5039 15.9738,8.5669 15.9688,8.6269 C15.8978,9.4829 15.8288,10.3379 15.7398,11.1919 C15.7298,11.2879 15.6408,11.4269 15.5228,11.4569 C12.7328,12.1659 9.8638,12.3319 6.8988,11.4159 C6.1688,11.1899 5.5138,10.8519 4.8348,10.5559 C4.7398,10.5139 4.6498,10.4069 4.6558,10.3369 C4.7248,9.4139 4.8108,8.4929 4.8958,7.5709 C4.8968,7.5559 4.9298,7.5429 4.9378,7.5369 C6.4078,7.8869 7.8718,8.2349 9.3978,8.5979 M17.5278,6.8089 C17.3788,8.5859 17.2218,10.3639 17.0918,12.1429 C17.0738,12.3899 16.9388,12.5339 16.5888,12.6069 C16.4338,12.6399 16.2878,12.6869 16.1308,12.7189 C14.4808,13.0509 12.7598,13.2109 10.9958,13.2159 C10.1668,13.2179 9.3018,13.1669 8.4868,13.0309 C6.6048,12.7159 4.9458,12.0619 3.3478,11.3349 C3.0148,11.1839 2.9328,11.0319 2.9548,10.7959 C3.1228,8.9519 3.2708,7.1059 3.4268,5.2619 C3.4328,5.1909 3.4538,5.1219 3.4728,5.0319 C6.4048,7.2199 13.6448,8.0839 17.5628,6.3849 C17.5478,6.5639 17.5378,6.6859 17.5278,6.8089" id="Fill-64" fill="#000000"></path>
                            <path d="M6.4613,42.8801 C6.4013,43.5901 6.3383,44.3431 6.2733,45.1291 C5.2723,44.9681 4.2953,44.8541 3.4213,44.5031 C3.2893,44.4501 3.1163,44.3391 3.1153,44.2631 C3.1133,43.8891 3.1623,43.5181 3.1953,43.1231 C3.8683,43.2461 4.4823,43.3551 5.0923,43.4761 C5.1653,43.4911 5.2603,43.5731 5.2633,43.6221 C5.2713,43.7931 5.2433,43.9621 5.2273,44.1541 C4.8023,44.0931 4.3413,44.1731 4.2943,43.7711 C4.2883,43.7191 4.0073,43.6671 3.7963,43.5951 C3.7593,43.8081 3.7313,43.9661 3.6903,44.1951 C4.2783,44.3081 4.8663,44.4261 5.4593,44.5261 C5.5433,44.5401 5.7343,44.4671 5.7413,44.4201 C5.7953,44.0401 5.8173,43.6571 5.8463,43.3161 C4.7883,43.1051 3.7973,42.9061 2.7263,42.6931 C2.7143,42.8311 2.6993,43.0061 2.6853,43.1821 C2.6543,43.5471 2.6123,43.9111 2.6023,44.2781 C2.6003,44.3671 2.6643,44.5071 2.7673,44.5481 C3.9863,45.0301 5.2573,45.4221 6.7033,45.5311 C6.7273,45.4581 6.7593,45.3971 6.7653,45.3341 C6.8393,44.4791 6.9093,43.6231 6.9823,42.7681 C6.9933,42.6301 7.0233,42.4971 6.7123,42.4501 C4.8883,42.1801 3.1033,41.8171 1.3623,41.2471 C1.3353,41.3511 1.3053,41.4201 1.3003,41.4901 C1.2313,42.5591 1.1553,43.6271 1.1123,44.6971 C1.1083,44.8121 1.2553,44.9781 1.4093,45.0551 C3.4393,46.0681 5.6643,46.6931 8.1933,46.6081 C9.3893,46.5671 10.5753,46.4751 11.7643,46.4021 C11.8983,46.3941 12.0233,46.3571 12.1523,46.3321 C12.9733,46.1731 13.4563,45.9051 13.4353,45.2651 C13.4023,44.3001 13.5663,43.3441 13.6503,42.3331 C13.1213,42.3881 12.6473,42.4671 12.1593,42.4831 C10.8693,42.5231 9.5733,42.5381 8.2783,42.5561 C8.0513,42.5591 7.8573,42.5421 7.8433,42.7401 C7.7773,43.6541 7.6973,44.5671 7.6243,45.4801 C7.6223,45.5071 7.6423,45.5361 7.6613,45.5941 C9.1333,45.7331 10.5593,45.7321 11.8413,45.2671 C11.9213,45.2381 12.0063,45.1731 12.0123,45.1181 C12.0683,44.5841 12.1083,44.0481 12.1553,43.4921 C12.0043,43.4941 11.9173,43.4951 11.8293,43.4961 C11.0103,43.5091 10.1923,43.5371 9.3713,43.5291 C9.0763,43.5261 8.9593,43.5631 8.9543,43.7521 C8.9483,44.0411 8.9153,44.3291 8.8813,44.6161 C8.8633,44.7761 8.9583,44.8611 9.2183,44.8571 C9.6893,44.8501 10.1663,44.8601 10.6273,44.8221 C11.0293,44.7881 10.8953,44.5431 10.8893,44.3731 C10.8883,44.3351 10.6663,44.2781 10.5373,44.2491 C10.4873,44.2381 10.3643,44.2761 10.3583,44.3021 C10.2813,44.6851 9.8373,44.5261 9.4133,44.5311 C9.4303,44.3301 9.4173,44.1561 9.4723,43.9951 C9.4933,43.9341 9.6683,43.8711 9.7863,43.8661 C10.3613,43.8401 10.9403,43.8351 11.5723,43.8201 C11.5413,44.1831 11.5153,44.5421 11.4763,44.9001 C11.4723,44.9401 11.4093,44.9891 11.3513,45.0061 C10.3983,45.2951 9.3953,45.4441 8.2343,45.2881 C8.2963,44.5491 8.3483,43.8311 8.4323,43.1151 C8.4393,43.0601 8.6643,42.9971 8.8003,42.9901 C9.6343,42.9501 10.4753,42.9381 11.3073,42.8911 C11.8603,42.8601 12.4013,42.7861 12.9803,42.7281 C12.9983,42.7921 13.0253,42.8381 13.0223,42.8821 C12.9523,43.7571 12.8873,44.6321 12.7963,45.5051 C12.7863,45.5991 12.6603,45.7251 12.5313,45.7571 C9.7653,46.4371 6.9233,46.6181 3.9863,45.7141 C3.2423,45.4851 2.5723,45.1421 1.8793,44.8401 C1.7843,44.7991 1.6953,44.6921 1.7013,44.6231 C1.7693,43.6991 1.8553,42.7771 1.9383,41.8561 C1.9403,41.8391 1.9693,41.8261 1.9773,41.8181 C3.4613,42.1701 4.9413,42.5201 6.4613,42.8801 M0.2543,40.7371 C0.3413,40.3541 0.4273,39.9701 0.5093,39.6071 C5.1093,41.4681 9.7993,41.6611 14.6133,40.8241 C14.6163,40.8981 14.6283,40.9841 14.6223,41.0681 C14.4963,42.6831 14.3463,44.2961 14.2503,45.9131 C14.2103,46.5811 13.7073,47.0101 12.8473,47.3061 C11.8003,47.6671 10.6293,47.7911 9.4353,47.8801 C5.9393,48.1391 2.9403,47.4401 0.4813,45.6611 C0.1463,45.4191 -0.0077,45.1801 0.0173,44.8641 C0.0813,44.0481 0.0863,43.2281 0.1143,42.4101 C0.1613,41.8521 0.2083,41.2951 0.2543,40.7371" id="Fill-60" fill="#000000"></path>
                            <path d="M11.8329,1.5696 C11.8289,1.5886 11.8239,1.6086 11.8189,1.6276 C11.9169,1.5986 12.0259,1.5336 12.1129,1.5476 C12.3799,1.5896 12.6339,1.6876 12.8999,1.7176 C14.3189,1.8746 15.5429,2.3076 16.6249,2.9206 C18.3379,3.8916 18.2699,5.1116 16.4609,5.8216 C16.0019,6.0026 15.4869,6.1516 14.9579,6.2386 C12.1729,6.7006 9.4049,6.4826 6.6839,5.6556 C5.6889,5.3546 4.8039,4.9446 4.1789,4.3446 C3.5089,3.7006 3.5159,3.0236 4.2019,2.4876 C4.7859,2.0326 5.5809,1.7706 6.4649,1.5966 C6.5589,1.5786 6.7229,1.5556 6.7599,1.5836 C7.1139,1.8476 7.1089,1.5746 7.1839,1.5136 C7.5039,1.5406 7.7849,1.5646 8.0759,1.5886 C8.0819,1.5166 8.0869,1.4516 8.0919,1.3856 C8.1369,1.3876 8.1809,1.3886 8.2249,1.3906 C8.2179,1.4716 8.2419,1.5636 8.1919,1.6296 C8.1649,1.6656 8.0079,1.6696 7.9099,1.6636 C7.7649,1.6566 7.6199,1.6286 7.4749,1.6096 C7.4709,1.6326 7.4679,1.6566 7.4639,1.6806 C7.8119,1.7306 8.1599,1.7806 8.5199,1.8326 C8.5519,1.6456 8.5739,1.5136 8.5989,1.3596 L9.0729,1.3596 C9.0749,1.5456 9.0769,1.7016 9.0779,1.8326 C9.6659,1.8816 10.1879,1.9256 10.7249,1.9706 C10.7609,1.7856 10.7929,1.6176 10.8339,1.4066 C11.1909,1.4656 11.5119,1.5176 11.8329,1.5696" id="Fill-52" fill="#FFFFFF"></path>
                            <path d="M11.8329,1.5696 C11.5119,1.5176 11.1909,1.4656 10.8339,1.4066 C10.7929,1.6176 10.7609,1.7856 10.7249,1.9706 C10.1879,1.9256 9.6659,1.8816 9.0779,1.8326 C9.0769,1.7016 9.0749,1.5456 9.0729,1.3596 L8.5989,1.3596 C8.5739,1.5136 8.5519,1.6456 8.5199,1.8326 C8.1599,1.7806 7.8119,1.7306 7.4639,1.6806 C7.4679,1.6566 7.4709,1.6326 7.4749,1.6096 C7.6199,1.6286 7.7649,1.6566 7.9099,1.6636 C8.0079,1.6696 8.1649,1.6656 8.1919,1.6296 C8.2419,1.5636 8.2179,1.4716 8.2249,1.3906 C8.1809,1.3886 8.1369,1.3876 8.0919,1.3856 C8.0869,1.4516 8.0819,1.5166 8.0759,1.5886 C7.7849,1.5646 7.5039,1.5406 7.1839,1.5136 C7.1089,1.5746 7.1139,1.8476 6.7599,1.5836 C6.7229,1.5556 6.5589,1.5786 6.4649,1.5966 C5.5809,1.7706 4.7859,2.0326 4.2019,2.4876 C3.5159,3.0236 3.5089,3.7006 4.1789,4.3446 C4.8039,4.9446 5.6889,5.3546 6.6839,5.6556 C9.4049,6.4826 12.1729,6.7006 14.9579,6.2386 C15.4869,6.1516 16.0019,6.0026 16.4609,5.8216 C18.2699,5.1116 18.3379,3.8916 16.6249,2.9206 C15.5429,2.3076 14.3189,1.8746 12.8999,1.7176 C12.6339,1.6876 12.3799,1.5896 12.1129,1.5476 C12.0259,1.5336 11.9169,1.5986 11.8189,1.6276 C11.8239,1.6086 11.8289,1.5886 11.8329,1.5696" id="Fill-66" fill="#000000"></path>
                            <path d="M14.7142,39.3064 C12.6362,40.0734 10.3292,39.8804 8.0422,39.7434 C5.5112,39.5904 3.1132,39.1264 0.9402,38.1604 C0.8912,38.1394 0.8322,38.1264 0.7162,38.0894 C0.6792,38.2354 0.6592,38.3654 0.6102,38.4894 C0.5482,38.6494 0.6652,38.7314 0.8842,38.8164 C3.5602,39.8514 6.3862,40.4314 9.4372,40.4284 C10.8772,40.4264 12.3182,40.4614 13.6792,40.1874 C13.8632,40.1504 14.0452,40.1044 14.2152,40.0494 C14.8202,39.8514 14.8412,39.8174 14.7142,39.3064" id="Fill-68" fill="#000000"></path>
                        </g>
                    </g>
                </g>
                <g id="Page-1" transform="translate(85.000000, 13.000000)"></g>
                <path d="M102.253,30.8204 C102.062,31.0784 101.789,31.3194 101.612,31.4304 C100.23,29.2564 98.61,27.1744 96.912,25.1594 C95.506,27.3014 94.165,29.5464 93.026,31.8234 C92.821,31.7274 92.552,31.5714 92.361,31.3504 C92.108,31.0894 91.972,30.7194 92.197,30.3144 C93.23,28.4164 94.767,26.0184 95.869,24.3474 C94.462,24.4884 93.059,24.7334 91.697,25.0184 C91.706,24.7264 91.732,24.3704 91.82,24.0754 C91.93,23.7994 92.104,23.6054 92.444,23.5284 C93.686,23.2904 94.849,23.0964 96.195,22.9374 C96.246,21.7264 96.127,20.2924 96.061,19.1694 C94.673,19.3094 93.248,19.5134 91.888,19.8194 C91.878,19.5904 91.844,19.2374 91.952,18.9204 C92.041,18.6254 92.252,18.3664 92.652,18.2874 C93.334,18.1554 94.357,18.0084 94.88,17.9664 C94.292,16.9064 93.682,15.8264 92.936,14.8564 C93.288,14.5914 93.741,14.3024 94.037,14.1444 C94.679,15.0354 95.175,15.7864 95.737,16.7014 C95.889,16.9454 95.877,17.1544 95.785,17.3664 C95.712,17.5574 95.577,17.7094 95.441,17.8604 C96.065,17.7934 97.15,17.6864 97.956,17.6324 C97.956,17.6324 97.726,17.4334 97.672,17.1024 C97.645,16.9364 97.677,16.7474 97.789,16.5134 C98.255,15.5774 98.91,14.3204 99.249,13.7024 C99.576,13.8144 100.171,14.0604 100.5,14.1934 C99.858,15.2824 99.299,16.4104 98.78,17.5364 C99.425,17.5094 100.754,17.4344 101.441,17.4274 C101.475,17.7804 101.499,18.3634 101.515,18.7374 C100.123,18.7744 98.774,18.8704 97.426,18.9884 C97.472,20.1124 97.55,21.5274 97.541,22.7574 C98.828,22.6424 100.558,22.4874 101.992,22.4914 C102.024,22.7824 102.052,23.4694 102.047,23.8444 C100.636,23.9024 99.144,23.9434 97.677,24.1074 C98.821,25.4154 101.385,28.3754 102.294,29.8604 C102.531,30.2254 102.443,30.5414 102.253,30.8204 M89.443,16.3544 C89.43,16.0214 89.341,15.8164 89.174,15.6984 C89.049,15.5994 88.885,15.5434 88.704,15.5504 C88.179,15.5514 87.617,15.6364 87.118,15.7614 C87.023,16.8914 86.969,18.0404 86.894,19.1694 C87.715,19.0104 88.698,18.8444 89.645,18.7854 C89.579,18.1834 89.488,16.9364 89.443,16.3544 M89.737,20.0534 C88.73,20.1154 87.766,20.2384 86.827,20.4854 C86.786,21.4454 86.724,22.8864 86.713,24.0964 C87.754,23.8874 88.818,23.7394 89.925,23.6524 C89.855,22.4254 89.796,21.0094 89.737,20.0534 M91.156,31.0244 C90.951,31.4284 90.561,31.7574 89.901,31.9304 C89.5,31.9874 88.936,32.0114 88.529,31.9444 C88.204,31.8954 88.052,31.6304 87.958,31.3214 C87.888,31.0744 87.876,30.7824 87.826,30.5554 C88.192,30.6244 88.899,30.6364 89.422,30.5944 C89.705,30.5834 89.879,30.4084 89.973,30.2384 C90.123,29.9404 90.086,29.5464 90.076,29.2964 C90.042,27.9844 89.998,25.9224 89.977,24.9224 C88.89,25.0084 87.705,25.1404 86.664,25.3704 C86.617,27.1654 86.558,29.6694 86.62,32.1684 C86.377,32.1364 85.993,32.1314 85.663,31.9784 C85.416,31.8634 85.244,31.5994 85.245,31.1404 C85.183,27.6614 85.483,19.2264 85.803,16.1904 C85.545,16.3054 85.228,16.4434 85.011,16.5774 C84.999,16.2864 84.982,15.8904 85.049,15.5334 C85.079,15.2814 85.232,15.0674 85.509,14.9514 C86.362,14.5834 87.159,14.3214 88.085,14.2414 C88.648,14.1774 89.275,14.2144 89.792,14.5054 C90.288,14.7774 90.671,15.2824 90.772,16.2374 C91.004,18.4594 91.437,27.0304 91.416,29.4704 C91.417,29.9914 91.399,30.5554 91.156,31.0244" id="Fill-1" fill="#FFFFFF"></path>
                <path d="M119.2218,17.8057 C119.1538,17.5157 118.8648,17.2517 118.6418,17.2167 C117.8698,17.0487 117.0848,17.1107 116.2788,17.1517 C116.3348,17.7967 116.3898,19.1287 116.4068,19.7957 C117.2328,19.7327 118.5238,19.6997 119.4918,19.6747 C119.4568,19.0917 119.3388,18.4277 119.2218,17.8057 M114.7418,14.6697 C113.8948,14.7117 113.1288,14.7737 112.3038,14.8577 C112.2538,15.2967 112.2068,15.8187 112.1978,16.2357 C113.0628,16.1297 114.0098,16.0637 114.8958,15.9787 C114.8638,15.4997 114.7908,15.0227 114.7418,14.6697 M114.9888,17.2267 C114.0408,17.2927 113.0748,17.3807 112.1288,17.4877 C112.0918,18.3847 112.0958,19.3647 112.1358,20.1137 C113.1018,20.0267 114.0898,19.9597 115.0768,19.8917 C115.0748,19.0167 115.0718,18.0997 114.9888,17.2267 M111.1218,24.6627 C110.7288,25.0897 110.3978,25.5567 110.0858,25.9817 C111.4648,26.2377 112.8258,26.5567 114.1668,26.9187 C115.3208,26.2637 116.3648,25.2577 117.3488,24.2527 C115.3118,24.3467 112.9748,24.5107 111.1218,24.6627 M107.9858,18.0947 C107.9078,18.9517 107.8278,19.8077 107.8508,20.7027 C108.5148,20.6027 109.9218,20.3787 110.8468,20.2507 C110.8048,19.3767 110.8238,18.5427 110.8608,17.6457 C109.8748,17.7547 108.9308,17.9457 107.9858,18.0947 M122.2218,30.9007 C119.6768,30.0287 117.4158,29.2317 114.2658,28.3957 C111.5608,29.9657 108.5328,30.7527 105.4398,31.3737 C105.3648,30.7927 105.3928,30.3327 105.5888,30.0777 C105.8028,29.7597 106.2028,29.6247 106.8058,29.5257 C108.1718,29.2817 110.6378,28.6347 112.2938,27.8627 C110.7698,27.4647 109.1658,27.0887 107.6438,26.7947 C108.0728,26.1797 108.5798,25.5197 109.0688,24.8817 C107.8408,25.0177 106.5728,25.1757 105.3478,25.4157 C105.3228,25.2077 105.3548,24.8937 105.4498,24.6417 C105.5428,24.3677 105.6788,24.1567 105.9598,24.0867 C106.9828,23.8517 108.7738,23.6177 110.2228,23.4767 C110.6738,22.9447 111.5758,21.8997 112.0468,21.3667 C110.1948,21.5807 108.2428,21.8187 106.4768,22.2187 C106.4258,20.9907 106.5118,19.6337 106.6608,18.3787 C106.4198,18.4267 106.1588,18.4957 105.9188,18.5437 C105.8308,18.2747 105.8418,17.9207 105.9558,17.6467 C106.0518,17.4357 106.2088,17.2647 106.4288,17.1967 C107.3298,16.9237 109.8248,16.5677 110.9308,16.4347 C110.9408,16.0177 110.9888,15.5157 111.0538,14.9307 C109.3638,15.1207 107.3318,15.4017 105.4648,15.8047 C105.4358,15.4717 105.4498,15.2007 105.6028,14.8837 C105.6978,14.6517 105.8948,14.4597 106.1958,14.3887 C108.9248,13.7567 116.8438,13.2197 121.3048,13.2087 C121.2908,13.4797 121.3278,14.1247 121.3368,14.4577 C119.6008,14.4607 117.7438,14.4677 116.0308,14.5737 C116.0828,15.0307 116.1358,15.5087 116.1668,15.9457 C116.7518,15.9307 117.5178,15.8897 118.1638,15.8947 C118.6488,15.9027 119.2148,15.9507 119.6868,16.2517 C120.0558,16.4917 120.3278,16.8397 120.5048,17.4597 C120.8158,18.5567 120.8808,19.5347 120.9568,20.9297 C118.5948,20.9067 114.8848,21.0437 112.4288,21.3147 C112.7348,21.4317 113.2228,21.6077 113.6108,21.7437 C113.1788,22.2337 112.6868,22.7257 112.2368,23.2587 C115.1788,23.0787 119.5938,22.8607 122.2358,22.7717 C122.2678,23.2507 122.3018,23.7707 122.2898,24.1047 C121.4828,24.1047 119.9898,24.1427 119.2238,24.1827 C118.2238,25.3137 117.0828,26.4897 115.8538,27.3547 C117.6628,27.8707 120.2058,28.6387 121.9158,29.1787 C122.3428,29.3137 122.4938,29.6847 122.4628,30.0607 C122.4508,30.3947 122.3188,30.7107 122.2218,30.9007" id="Fill-4" fill="#FFFFFF"></path>
                <path d="M140.2706,24.3062 C140.1866,23.9312 139.8606,23.6002 139.4166,23.5832 C137.9846,23.5332 136.5336,23.7122 135.1846,24.0142 C134.8756,25.6852 134.7916,27.4572 134.7256,29.2302 C136.6396,28.8802 138.6556,28.7802 140.6926,28.7222 C140.6996,27.1582 140.5246,25.6382 140.2706,24.3062 M133.2676,30.8262 C133.3696,28.6582 133.4906,26.4472 133.8356,24.3392 C133.5336,24.3832 133.2116,24.4902 132.9306,24.6172 C132.9286,24.4092 132.9056,24.0962 132.9636,23.8042 C133.0216,23.5122 133.1406,23.2402 133.4416,23.1332 C135.0306,22.5362 138.1746,22.1972 139.6476,22.3102 C140.2736,22.3472 140.7406,22.6552 141.0866,23.0902 C141.4136,23.5042 141.5996,24.0452 141.6846,24.5022 C141.9386,25.9182 142.1806,28.1252 142.1366,30.0022 C139.0896,29.9862 136.0256,30.1992 133.2676,30.8262 M141.9596,19.1432 C141.8036,19.7072 141.6056,20.1262 141.2856,20.4412 C140.9656,20.7772 140.5646,21.0102 140.0206,21.1182 C139.4576,21.2482 138.8716,21.2122 138.3466,21.1742 C138.0036,21.1562 137.7796,20.9292 137.6766,20.6592 C137.5326,20.3682 137.4896,19.9932 137.4466,19.7442 C138.1536,19.8422 138.9396,19.8142 139.6866,19.7872 C139.9286,19.7852 140.1096,19.7012 140.2496,19.5542 C140.4096,19.4062 140.5286,19.1972 140.5866,18.9462 C140.8796,17.8602 140.8896,16.6512 140.8186,15.4632 C140.7956,15.1512 140.6716,14.8812 140.4886,14.6952 C140.3266,14.5292 140.1236,14.4272 139.9016,14.4082 C139.5176,14.3692 138.8526,14.3742 138.4086,14.3992 C136.4336,16.9172 134.6206,19.4962 133.0906,22.1982 C132.8876,22.0952 132.6646,21.8892 132.5006,21.6602 C132.2756,21.3502 132.1316,20.9962 132.2706,20.7662 C133.5036,18.7342 135.0986,16.4902 136.5946,14.5812 C135.2036,14.7392 133.8136,15.0002 132.4856,15.3872 C132.4236,15.1582 132.4206,14.8032 132.5186,14.5112 C132.5966,14.2182 132.7756,13.9672 133.0576,13.8812 C134.6066,13.3892 138.5376,13.0222 140.1726,13.1752 C140.7786,13.2332 141.2456,13.5422 141.5716,13.9562 C141.8976,14.3702 142.1246,14.9522 142.1506,15.5352 C142.2216,16.7022 142.2526,17.9942 141.9596,19.1432 M129.7096,16.2232 C129.6666,15.9932 129.4426,15.7452 129.1806,15.7262 C128.5346,15.7112 127.9506,15.7792 127.3666,15.9292 C127.2206,17.6602 127.0736,19.3292 127.0286,21.0602 C128.0156,20.9062 129.0236,20.7932 130.0516,20.7432 C129.9786,19.2852 129.9446,17.7012 129.7096,16.2232 M126.9596,22.3942 C126.9336,23.9792 126.9306,25.9382 126.9066,27.8772 C127.9136,27.6602 129.0016,27.5682 130.0506,27.5382 C130.0756,25.7252 130.1196,23.8482 130.0836,22.0772 C129.0146,22.1272 127.9656,22.1572 126.9596,22.3942 M125.5696,29.5352 C125.6176,25.7412 125.5926,20.6342 125.9986,16.3162 C125.8376,16.3802 125.5356,16.4872 125.3956,16.5502 C125.3326,16.2382 125.3096,15.9262 125.3666,15.6332 C125.4246,15.3412 125.5636,15.1112 125.9066,15.0032 C127.0326,14.6192 128.2006,14.3382 129.4116,14.4112 C129.9766,14.4492 130.4636,14.7992 130.7496,15.2552 C130.9956,15.6492 131.1016,16.2322 131.1256,16.7112 C131.3376,20.1072 131.5106,26.1092 131.3536,28.8622 C129.4366,28.8152 127.3606,28.9782 125.5696,29.5352" id="Fill-6" fill="#FFFFFF"></path>
                <path d="M159.6017,25.4854 C159.5647,25.1314 159.4867,24.8804 159.3067,24.7114 C159.0867,24.4804 158.7647,24.3934 158.3407,24.3894 C155.1547,24.3164 152.0277,24.3474 149.0757,24.9854 C148.8217,26.2974 148.6667,27.6504 148.5527,29.0454 C151.8847,28.6404 156.4057,28.5184 159.7137,28.5504 C159.7227,27.5504 159.6717,26.5284 159.6017,25.4854 M146.9847,30.6354 C147.0407,28.8434 147.3007,27.0734 147.5797,25.3464 C147.4177,25.3654 147.0537,25.4664 146.8917,25.5274 C146.8737,25.2354 146.8567,24.9434 146.8997,24.6734 C146.9637,24.2984 147.0877,24.0074 147.5927,23.8664 C150.4457,23.1234 155.5327,22.7774 158.6977,23.0164 C159.4027,23.0654 159.9857,23.2794 160.3847,23.7214 C160.7047,24.0584 160.9027,24.4974 160.9567,25.0824 C161.0687,26.0624 161.2047,28.8364 161.1527,29.9824 C156.0897,29.8704 151.6717,29.8264 146.9847,30.6354 M145.7097,22.5134 C145.7337,22.1384 145.7787,21.7014 145.9427,21.3694 C146.0667,21.1204 146.2697,20.9354 146.6137,20.8764 C148.2487,20.6214 151.1787,20.2124 153.4397,20.0884 C153.4887,19.1514 153.5227,17.7344 153.5097,16.8794 C151.7347,16.9654 149.9357,17.2394 148.2587,17.5154 C147.8697,18.1574 147.4797,18.8204 147.1707,19.5064 C146.8707,19.3154 146.5697,19.0834 146.3907,18.8104 C146.1717,18.5164 146.1147,18.1614 146.3397,17.7884 C147.3237,16.1934 148.2447,14.8674 149.2867,13.4394 C149.7077,13.6524 150.1097,13.8854 150.5107,14.1184 C150.0607,14.7394 149.6307,15.3604 149.2217,15.9824 C150.3327,15.8264 152.0697,15.6344 153.5027,15.5454 C153.4707,14.7104 153.4187,13.7514 153.3257,13.0004 C153.7077,13.0244 154.3337,13.0304 154.7167,13.0344 C154.7517,13.5974 154.8237,14.6194 154.8757,15.4124 C156.6927,15.3264 158.9327,15.2644 161.0107,15.2014 C161.0277,15.5354 161.0207,16.2444 160.9977,16.5984 C158.9597,16.5994 156.9217,16.6624 154.9437,16.7684 C154.9567,17.4974 154.9207,19.1444 154.9137,19.9784 C157.4357,19.8774 159.5757,19.8154 162.5807,19.8034 C162.5777,20.1574 162.5917,20.8034 162.5877,21.2204 C157.5447,21.1714 150.5627,21.3314 145.7097,22.5134" id="Fill-8" fill="#FFFFFF"></path>
                <path d="M175.3829,21.4761 C177.9329,24.0531 180.5579,26.7781 182.5359,29.5461 C182.7689,29.8661 182.6779,30.2171 182.4869,30.5241 C182.3179,30.8111 182.0469,31.0741 181.8179,31.3381 C179.7489,28.1921 177.2099,25.2821 174.4639,22.5331 C171.6799,25.2031 169.1519,28.1301 166.9829,31.1721 C166.7289,30.8931 166.4539,30.5931 166.3029,30.2761 C166.1699,29.9801 166.1389,29.6461 166.3319,29.2761 C168.6529,26.5721 170.9669,24.0561 173.4639,21.5231 C170.9569,21.6171 168.4669,21.8761 166.0519,22.2851 C166.0599,22.0351 166.0899,21.6811 166.1589,21.3921 C166.2499,21.0401 166.4399,20.7741 166.8849,20.7251 C169.2359,20.4401 171.4839,20.2141 173.9279,20.1621 C174.0339,18.6011 174.1319,16.6441 173.9929,15.1811 C171.8089,15.3041 169.6419,15.5321 167.4939,15.8021 C167.5429,15.4911 167.5539,15.1161 167.6839,14.8281 C167.8129,14.5611 168.0219,14.3381 168.4269,14.2871 C171.4869,13.8771 177.9589,13.4841 182.0079,13.8121 C181.9969,14.1871 181.9729,14.9991 181.9449,15.2701 C179.9279,15.1891 177.7719,15.0841 175.4069,15.1401 C175.4689,16.4761 175.4639,18.7261 175.4039,20.0801 C177.6039,20.1031 180.9529,20.1811 183.0089,20.3041 C182.9999,20.6171 182.9599,21.2621 182.9689,21.6791 C180.4279,21.5621 177.9279,21.4471 175.3829,21.4761" id="Fill-11" fill="#FFFFFF"></path>
                <path d="M203.6437,16.4224 C201.2087,16.2154 197.0707,16.1304 194.3997,16.2044 C194.2707,17.1574 194.1457,18.4234 194.0747,19.4434 C196.3657,20.8944 199.3767,22.8624 201.1957,24.4784 C201.4857,24.7434 201.4887,25.0774 201.3717,25.4044 C201.2537,25.7124 201.0567,26.0154 200.8827,26.2564 C198.7437,24.2074 196.2427,22.5154 193.9547,21.0014 C193.7977,23.7064 193.4937,28.9284 193.6037,31.9384 C193.0987,31.9344 192.5337,31.9264 192.1697,31.9074 C192.1227,28.0664 192.5577,19.8454 192.9397,16.2974 C190.7767,16.3124 188.5217,16.5524 186.5447,16.8694 C186.5837,16.4964 186.6307,15.9774 186.8477,15.6744 C187.0007,15.4534 187.2497,15.3194 187.6777,15.2574 C191.8067,14.7164 197.8157,14.5834 203.7137,15.0274 L203.6437,16.4224 Z" id="Fill-13" fill="#FFFFFF"></path>
                <path d="M210.1339,28.2305 C209.8719,28.2105 209.4879,28.2245 209.2469,28.1855 C209.4039,24.9795 209.6699,19.4815 209.8149,16.4415 C210.1369,16.4655 210.7799,16.5135 211.2249,16.5255 C210.9409,19.5345 210.4419,24.9095 210.1339,28.2305 M208.7479,31.9095 C208.7939,31.2865 208.8949,30.2075 208.9289,29.4785 L210.2169,29.5745 L210.0389,31.9635 C209.6339,31.9755 209.0299,31.9305 208.7479,31.9095" id="Fill-15" fill="#FFFFFF"></path>
            </g>
        </g>
    </g>
</svg>