<?xml version="1.0" encoding="UTF-8"?>
<svg width="88px" height="114px" viewBox="0 0 88 114" version="1.1" xmlns="http://www.w3.org/2000/svg" xmlns:xlink="http://www.w3.org/1999/xlink">
    <!-- Generator: Sketch 46.1 (44463) - http://www.bohemiancoding.com/sketch -->
    <title>king-think</title>
    <desc>Created with Sketch.</desc>
    <defs>
        <polygon id="path-1" points="0.000294769808 0.61 87.3267105 0.61 87.3267105 112 0.000294769808 112 0.000294769808 0.61"></polygon>
    </defs>
    <g id="Symbols" stroke="none" stroke-width="1" fill="none" fill-rule="evenodd">
        <g id="king-think">
            <g id="Page-1">
                <text id="皇" font-family="DFWaWaTC-W5, Wawati TC" font-size="11.0431" font-weight="normal" fill="#000000">
                    <tspan x="38.3962" y="30.3730287">皇</tspan>
                </text>
                <path d="M42.1299,26.0755 C41.9299,26.0865 41.7379,26.1175 41.5639,26.1585 C41.5939,26.4335 41.6499,26.7185 41.7199,27.0025 C41.4169,27.0395 41.1049,27.0775 40.8019,27.1365 L40.8389,27.8265 C41.2559,27.8045 41.7919,27.7545 42.4469,27.6565 C43.1709,27.6385 43.6609,27.6235 43.9179,27.6205 C43.9809,27.8945 44.0139,28.0735 44.0189,28.1585 L44.0969,29.6445 C43.9419,29.7595 43.3999,29.8525 42.4699,29.9225 C41.4509,29.9765 40.7109,29.9625 40.2389,29.8815 L40.2119,29.3715 C41.2429,29.2425 41.9289,29.1215 42.2759,28.9965 C42.2879,28.9105 42.2999,28.8245 42.2939,28.7185 C42.2899,28.6335 42.2689,28.5385 42.2479,28.4545 C41.5899,28.4895 40.9019,28.5785 40.1859,28.7235 C40.1649,28.3305 40.1429,27.9165 40.1279,27.4695 L39.5739,27.4995 C39.5619,27.8725 39.5619,28.1705 39.5729,28.3935 C39.6219,29.3065 39.6759,30.0285 39.7349,30.5465 C40.1629,30.7155 41.0989,30.7625 42.5589,30.6845 C43.5539,30.6325 44.2619,30.4775 44.6829,30.2215 C44.7019,29.9645 44.6829,29.3055 44.6269,28.2435 C44.5669,27.4165 44.4939,26.9625 44.3929,26.8715 C43.9749,26.8725 43.3799,26.8825 42.6009,26.9235 C42.4969,26.9295 42.3929,26.9455 42.2889,26.9505 C42.2419,26.6655 42.1859,26.3705 42.1299,26.0755 Z M44.0779,30.9665 C42.9309,31.0275 41.7069,31.1665 40.4159,31.3845 C40.4299,31.6595 40.4729,31.8715 40.5529,32.0155 C41.0819,31.9665 41.5619,31.9085 41.9929,31.8645 C42.0229,32.1195 42.0519,32.3625 42.0889,32.6155 C41.7629,32.6755 41.4439,32.7355 41.1339,32.7945 C41.1619,33.0265 41.1969,33.2275 41.2369,33.3845 C41.5569,33.3465 41.8769,33.3085 42.1959,33.2595 C42.2319,33.4815 42.2759,33.6925 42.3199,33.9235 C41.8389,33.9705 41.3689,34.0485 40.9229,34.1365 C40.9329,34.3275 40.9519,34.5295 40.9939,34.7185 C42.0929,34.6595 43.2039,34.5165 44.3269,34.2975 L44.3119,34.0105 C44.3059,33.9045 44.2939,33.8195 44.2899,33.7455 C43.8079,33.7705 43.3439,33.8065 42.8879,33.8615 C42.8589,33.6285 42.8239,33.4075 42.7859,33.1545 C43.1129,33.1045 43.4319,33.0455 43.7499,32.9645 C43.7219,32.7535 43.6959,32.5525 43.6539,32.3625 C43.3179,32.4125 42.9989,32.4615 42.6789,32.5095 C42.6349,32.2785 42.5829,32.0465 42.5369,31.7935 C43.2559,31.7025 43.7749,31.6105 44.1079,31.5295 C44.1199,31.4435 44.1309,31.3465 44.1249,31.2415 C44.1199,31.1455 44.0989,31.0505 44.0779,30.9665 Z" id="Stroke-1" stroke="#000000" stroke-width="2" stroke-linecap="round" stroke-linejoin="round"></path>
                <text id="皇" font-family="DFWaWaTC-W5, Wawati TC" font-size="11.0431" font-weight="normal" fill="#000000">
                    <tspan x="38.3962" y="30.3730287">皇</tspan>
                </text>
                <g id="Group-276" transform="translate(0.000000, 0.390000)">
                    <path d="M42.1299,25.6855 C41.9299,25.6965 41.7379,25.7275 41.5639,25.7685 C41.5939,26.0435 41.6499,26.3285 41.7199,26.6125 C41.4169,26.6495 41.1049,26.6875 40.8019,26.7465 L40.8389,27.4365 C41.2559,27.4145 41.7919,27.3645 42.4469,27.2665 C43.1709,27.2485 43.6609,27.2335 43.9179,27.2305 C43.9809,27.5045 44.0139,27.6835 44.0189,27.7685 L44.0969,29.2545 C43.9419,29.3695 43.3999,29.4625 42.4699,29.5325 C41.4509,29.5865 40.7109,29.5725 40.2389,29.4915 L40.2119,28.9815 C41.2429,28.8525 41.9289,28.7315 42.2759,28.6065 C42.2879,28.5205 42.2999,28.4345 42.2939,28.3285 C42.2899,28.2435 42.2689,28.1485 42.2479,28.0645 C41.5899,28.0995 40.9019,28.1885 40.1859,28.3335 C40.1649,27.9405 40.1429,27.5265 40.1279,27.0795 L39.5739,27.1095 C39.5619,27.4825 39.5619,27.7805 39.5729,28.0035 C39.6219,28.9165 39.6759,29.6385 39.7349,30.1565 C40.1629,30.3255 41.0989,30.3725 42.5589,30.2945 C43.5539,30.2425 44.2619,30.0875 44.6829,29.8315 C44.7019,29.5745 44.6829,28.9155 44.6269,27.8535 C44.5669,27.0265 44.4939,26.5725 44.3929,26.4815 C43.9749,26.4825 43.3799,26.4925 42.6009,26.5335 C42.4969,26.5395 42.3929,26.5555 42.2889,26.5605 C42.2419,26.2755 42.1859,25.9805 42.1299,25.6855 Z M44.0779,30.5765 C42.9309,30.6375 41.7069,30.7765 40.4159,30.9945 C40.4299,31.2695 40.4729,31.4815 40.5529,31.6255 C41.0819,31.5765 41.5619,31.5185 41.9929,31.4745 C42.0229,31.7295 42.0519,31.9725 42.0889,32.2255 C41.7629,32.2855 41.4439,32.3455 41.1339,32.4045 C41.1619,32.6365 41.1969,32.8375 41.2369,32.9945 C41.5569,32.9565 41.8769,32.9185 42.1959,32.8695 C42.2319,33.0915 42.2759,33.3025 42.3199,33.5335 C41.8389,33.5805 41.3689,33.6585 40.9229,33.7465 C40.9329,33.9375 40.9519,34.1395 40.9939,34.3285 C42.0929,34.2695 43.2039,34.1265 44.3269,33.9075 L44.3119,33.6205 C44.3059,33.5145 44.2939,33.4295 44.2899,33.3555 C43.8079,33.3805 43.3439,33.4165 42.8879,33.4715 C42.8589,33.2385 42.8239,33.0175 42.7859,32.7645 C43.1129,32.7145 43.4319,32.6555 43.7499,32.5745 C43.7219,32.3635 43.6959,32.1625 43.6539,31.9725 C43.3179,32.0225 42.9989,32.0715 42.6789,32.1195 C42.6349,31.8885 42.5829,31.6565 42.5369,31.4035 C43.2559,31.3125 43.7749,31.2205 44.1079,31.1395 C44.1199,31.0535 44.1309,30.9565 44.1249,30.8515 C44.1199,30.7555 44.0989,30.6605 44.0779,30.5765 Z" id="Stroke-3" stroke="#000000" stroke-width="2" stroke-linecap="round" stroke-linejoin="round"></path>
                    <path d="M15.4483,103.4524 C13.1313,103.3704 12.8173,102.2144 12.7893,101.7214 C12.7603,101.1544 12.8073,100.4514 13.4313,99.8824 C13.6473,99.6854 13.9163,99.5144 14.2773,99.3444 C14.7223,99.1334 16.0793,98.0484 16.5903,97.6404 L16.8233,97.4534 C17.2163,97.1394 17.5483,96.8724 17.7383,96.7334 C18.0953,96.4724 18.4883,96.3234 18.9073,96.2894 C18.9333,96.2864 19.0583,96.2824 19.0853,96.2824 C19.5553,96.2824 19.8933,96.4324 19.9853,96.4794 C20.2523,96.6124 20.4453,96.8574 20.5113,97.1474 C20.5793,97.4374 20.5133,97.7434 20.3333,97.9794 L16.4583,103.0634 C16.2683,103.3114 15.9743,103.4564 15.6623,103.4564 L15.4483,103.4524 Z" id="Fill-5" fill="#000000"></path>
                    <path d="M19.085,95.2825 C19.002,95.2825 18.915,95.2855 18.825,95.2925 C18.229,95.3405 17.648,95.5595 17.148,95.9275 C16.947,96.0735 16.596,96.3535 16.183,96.6845 L15.965,96.8595 C14.816,97.7785 14.102,98.3115 13.842,98.4435 C13.394,98.6565 13.047,98.8795 12.758,99.1435 C11.724,100.0865 11.767,101.2995 11.789,101.7305 C11.79,101.7555 11.791,101.7805 11.793,101.8035 C11.824,102.3755 12.184,104.3385 15.418,104.4525 C15.519,104.4565 15.604,104.4565 15.663,104.4565 C16.287,104.4565 16.875,104.1655 17.253,103.6695 L21.086,98.6415 C21.37,98.2965 21.54,97.8545 21.54,97.3735 C21.54,97.2395 21.527,97.1075 21.502,96.9805 C21.429,96.5945 21.248,96.2565 20.981,95.9855 C20.791,95.7875 20.561,95.6295 20.303,95.5225 C19.952,95.3675 19.54,95.2825 19.085,95.2825 M19.538,97.3735 L19.543,97.3735 M19.085,97.2825 C19.356,97.2825 19.538,97.3735 19.538,97.3735 L15.663,102.4565 C15.621,102.4565 15.561,102.4565 15.488,102.4535 C14.977,102.4355 13.824,102.3215 13.788,101.6655 L13.788,101.6505 C13.762,101.1635 13.832,100.8705 14.105,100.6215 C14.246,100.4935 14.437,100.3755 14.705,100.2485 C15.219,100.0045 16.327,99.1315 17.215,98.4215 C17.693,98.0385 18.111,97.7005 18.33,97.5405 C18.564,97.3675 18.793,97.3025 18.987,97.2865 C19.021,97.2835 19.054,97.2825 19.085,97.2825" id="Fill-7" fill="#000000"></path>
                    <path d="M27.2925,110.9998 C25.6205,110.9998 24.4515,110.0118 21.8915,107.8448 C20.9725,107.0668 20.2595,106.2068 19.7615,105.2738 C19.5815,105.2908 19.4155,105.2908 19.2875,105.2908 C18.4545,105.2908 17.7595,104.8488 17.3725,104.0918 C17.2805,104.0828 17.1895,104.0678 17.0985,104.0488 C16.4205,103.9068 15.8825,103.5328 15.5495,103.2448 C15.3925,103.1088 15.3035,103.0108 15.3035,103.0108 C14.9845,102.6588 14.9505,102.1238 15.2305,101.7408 C15.2305,101.7408 15.6855,101.1218 16.3055,100.2948 L17.3265,98.9488 C17.6965,98.4668 18.0245,98.0458 18.3135,97.6848 C18.1555,97.4448 18.1025,97.1408 18.1895,96.8468 C18.8505,94.6468 19.1515,77.0718 18.9155,73.6508 C18.8955,73.3638 18.8975,73.0948 18.9135,72.8388 C18.8875,72.1938 18.9755,71.5728 19.1735,70.9958 C9.1745,68.4318 2.8595,63.8838 1.9095,58.5928 C1.5505,58.4898 1.2195,58.2208 1.1345,57.8738 C1.0385,57.4388 0.8215,56.1298 1.3175,54.2108 C1.4805,53.5808 1.7095,52.9378 1.9985,52.2958 C1.9995,52.2778 2.0005,52.2598 2.0005,52.2408 C1.8285,52.0238 1.7495,51.7368 1.7995,51.4488 C2.0135,50.2168 2.2805,48.9808 2.5915,47.7748 C3.2475,44.6958 4.4305,41.7848 6.0055,39.3998 C7.4425,37.1238 9.0935,35.6068 10.7675,35.0308 C10.9245,34.9768 11.0685,34.9178 11.2035,34.8568 C11.2725,34.8268 11.3335,34.7928 11.3955,34.7598 C11.4015,34.7558 11.4905,34.7098 11.4975,34.7068 C11.6325,34.6318 11.7135,34.5778 11.7905,34.5228 C11.8885,34.4528 11.9595,34.3948 12.0235,34.3348 C12.2285,34.1478 12.3555,33.9528 12.4335,33.7688 C11.7145,33.8668 10.9875,33.9168 10.2575,33.9168 C5.5575,33.9168 2.1875,31.8888 2.0465,31.8018 C1.7245,31.6048 1.5415,31.2448 1.5715,30.8688 C1.6025,30.4928 1.8415,30.1658 2.1905,30.0228 C2.2795,29.9868 4.4145,29.1378 9.6365,28.9298 C12.3395,28.3278 17.1255,25.4248 23.8625,20.3008 C24.8665,19.4868 25.8495,18.6748 26.7535,17.9278 C27.9345,16.9528 28.9825,16.0868 29.8275,15.4238 C32.8385,13.0628 35.7815,11.9598 37.6945,11.4528 C37.6675,11.1578 37.6685,10.8608 37.7015,10.5678 C37.8365,9.3518 38.4825,8.1768 39.4805,7.3328 C39.4305,7.0348 39.4175,6.6728 39.4915,6.2638 C39.5345,5.5568 39.8405,4.5248 40.9975,3.4588 C41.2975,3.1418 42.8965,1.6098 45.7195,1.6098 C45.8275,1.6098 45.9385,1.6118 46.0505,1.6168 C47.2285,1.6658 48.2635,2.3198 48.9665,3.4578 C49.0375,3.5888 49.8865,5.2388 49.5795,6.9998 C49.5395,7.4618 49.4345,7.8928 49.2655,8.2878 C49.3195,8.3688 49.3695,8.4518 49.4145,8.5368 C49.7165,9.1008 50.0245,9.7868 50.1685,11.3978 C50.1945,11.6898 50.1845,12.0098 50.1395,12.3358 C61.4655,15.6818 70.2295,24.1138 74.5005,28.2238 C75.3085,29.0008 75.9465,29.6148 76.4215,30.0258 C77.7505,31.1728 79.4345,31.7568 80.7875,32.2268 C82.2665,32.7398 83.4335,33.1458 83.7055,34.2078 C83.9455,35.1488 83.2555,35.9098 83.0295,36.1598 C82.4335,36.8178 81.5765,37.2148 80.4765,37.3448 C80.5165,37.3608 80.5575,37.3768 80.5975,37.3928 C81.5745,37.7788 82.4185,38.0818 83.1225,38.3348 C85.1585,39.0658 86.1815,39.4338 86.3135,40.4598 C86.4385,41.4198 85.5335,42.0428 85.0465,42.3778 C84.4665,42.7768 83.6775,42.9708 82.6345,42.9708 L82.6335,42.9708 C82.2235,42.9708 81.8005,42.9408 81.3825,42.8938 C82.7495,44.9468 83.0355,47.4778 83.0505,47.6248 C83.0555,47.6738 83.0575,47.7238 83.0555,47.7728 C84.3715,49.6888 85.5105,53.0558 82.3765,57.4878 C80.8035,61.8578 75.4965,65.7518 67.2925,68.6038 C67.5555,68.8138 67.7255,69.0238 67.8295,69.2248 C71.6395,69.8158 71.6435,72.1848 71.6465,73.7838 C71.6475,74.0318 71.6465,74.2798 71.6605,74.5228 C71.7295,75.6928 71.5545,80.5288 71.3855,85.2058 C71.2565,88.7858 71.1095,92.8428 71.1555,93.3408 C71.1645,93.4048 71.1725,93.5208 71.1775,93.6558 C71.1785,93.6618 71.1845,94.2368 71.1845,94.2368 L71.1815,94.4778 C71.1745,94.8548 71.1605,95.3048 71.1365,95.8088 L71.1055,96.3968 L71.0615,97.0768 C70.8735,99.7968 70.4715,103.3128 69.6285,104.6228 C68.6145,106.2008 66.2495,106.5318 64.4445,106.5318 C63.3375,106.5318 62.1435,106.4088 61.0815,106.1858 C59.2565,105.8008 47.0185,104.8848 40.8015,104.4548 C40.5415,104.4368 40.3105,104.3198 40.1435,104.1428 C39.8205,104.0208 39.5755,103.7368 39.5115,103.3838 L39.3825,102.6638 L37.6965,102.8218 C37.6915,102.9698 37.6745,103.1228 37.6435,103.2778 C37.3525,104.7318 36.3125,106.4838 34.8885,107.0188 C34.6375,107.1118 33.9825,107.6088 33.4045,108.0468 C32.1715,108.9808 30.6385,110.1448 29.1045,110.6558 C28.3895,110.8938 27.8305,110.9998 27.2925,110.9998" id="Fill-9" fill="#000000"></path>
                    <g id="Group-13">
                        <mask id="mask-2" fill="white">
                            <use xlink:href="#path-1"></use>
                        </mask>
                        <g id="Clip-12"></g>
                        <path d="M45.7188,0.6096 L45.7188,0.6096 C42.5718,0.6096 40.7538,2.2676 40.2928,2.7496 C38.9468,4.0016 38.5648,5.2556 38.4968,6.1436 C38.4498,6.4246 38.4348,6.6886 38.4398,6.9326 C37.4738,7.9026 36.8518,9.1576 36.7078,10.4586 C36.6978,10.5396 36.6918,10.6206 36.6858,10.7026 C34.7058,11.3096 31.9818,12.4636 29.2108,14.6376 C28.3518,15.3106 27.3178,16.1646 26.1208,17.1536 C25.2248,17.8936 24.2518,18.6976 23.2328,19.5236 C15.1538,25.6666 11.3138,27.5026 9.5028,27.9346 C4.2668,28.1516 2.0508,29.0006 1.8128,29.0976 C1.1148,29.3826 0.6358,30.0366 0.5748,30.7886 C0.5138,31.5396 0.8818,32.2616 1.5248,32.6556 C1.6608,32.7386 4.6248,34.5236 8.8768,34.8616 C7.5488,35.7266 6.2818,37.0886 5.1488,38.8826 C3.5348,41.3276 2.3048,44.3406 1.6128,47.5666 C1.2998,48.7846 1.0308,50.0336 0.8138,51.2766 C0.7518,51.6346 0.7888,51.9876 0.9058,52.3066 C0.6768,52.8596 0.4908,53.4136 0.3498,53.9586 C0.3478,53.9656 0.3458,53.9746 0.3438,53.9826 C-0.1852,56.0466 0.0248,57.4856 0.1398,58.0096 C0.1428,58.0256 0.1468,58.0436 0.1508,58.0586 L0.1658,58.1216 C0.2948,58.6316 0.6148,59.0556 1.0368,59.3246 C2.3088,64.6636 8.3258,69.0736 17.9818,71.7156 C17.9258,72.0886 17.9008,72.4756 17.9098,72.8726 C17.8958,73.1596 17.8978,73.4366 17.9178,73.7186 C18.1668,77.3376 17.8218,94.5946 17.2318,96.5596 C17.1368,96.8766 17.1248,97.1986 17.1818,97.5036 C16.9888,97.7506 16.7728,98.0276 16.5328,98.3406 L16.1758,98.8076 C15.9408,99.1166 15.7138,99.4176 15.5058,99.6946 C14.8818,100.5266 14.4248,101.1496 14.4248,101.1496 C13.8668,101.9096 13.9388,102.9806 14.5658,103.6856 C14.5658,103.6856 14.6828,103.8176 14.8958,104.0026 C15.2958,104.3476 15.9358,104.7926 16.7578,104.9966 C17.3298,105.7876 18.2018,106.2616 19.1958,106.2896 C19.7218,107.1236 20.4068,107.8986 21.2458,108.6086 C23.9148,110.8666 25.2538,112.0006 27.2928,112.0006 C27.9348,112.0006 28.6108,111.8746 29.4208,111.6046 C31.1108,111.0406 32.7178,109.8226 34.0088,108.8436 C34.4568,108.5046 35.0718,108.0386 35.2798,107.9386 C36.9908,107.2976 38.1598,105.3676 38.5628,103.7456 L38.5638,103.7456 C38.6678,104.1446 38.9188,104.6086 39.5018,104.9146 C39.8268,105.2196 40.2558,105.4196 40.7328,105.4516 C47.9298,105.9506 59.2328,106.8176 60.8758,107.1636 C62.0038,107.4016 63.2708,107.5316 64.4448,107.5316 C67.3908,107.5316 69.4738,106.7136 70.4698,105.1636 C70.7568,104.7176 71.6278,103.3626 72.0588,97.1506 C72.0588,97.1496 72.0588,97.1476 72.0588,97.1466 C72.0738,96.9406 72.0858,96.7426 72.0978,96.5466 L72.1038,96.4506 C72.1148,96.2606 72.1248,96.0726 72.1338,95.8896 C72.1598,95.3396 72.1748,94.8796 72.1808,94.4946 L72.1848,94.2426 L72.1848,94.0346 C72.1838,93.9336 72.1828,93.8446 72.1808,93.7616 L72.1768,93.6166 C72.1718,93.4726 72.1628,93.3456 72.1528,93.2516 C72.1188,92.6126 72.2658,88.5286 72.3858,85.2416 C72.5938,79.4666 72.7258,75.5966 72.6588,74.4636 C72.6458,74.2396 72.6468,74.0106 72.6468,73.7816 C72.6438,72.4326 72.6388,69.9146 69.8128,68.7326 C76.9938,65.8836 81.6918,62.1456 83.2698,57.9556 C86.5368,53.2586 85.4438,49.6116 84.0358,47.4386 C83.9838,46.9986 83.7688,45.5326 83.0928,43.9596 C84.1278,43.9036 84.9558,43.6546 85.6138,43.2016 C86.1808,42.8116 87.5088,41.8976 87.3058,40.3316 C87.0938,38.6986 85.6488,38.1796 83.4608,37.3936 C83.3908,37.3686 83.3208,37.3436 83.2498,37.3176 C83.4368,37.1706 83.6108,37.0076 83.7708,36.8316 C84.6178,35.8966 84.9218,34.9306 84.6738,33.9606 C84.2688,32.3776 82.7378,31.8456 81.1158,31.2826 C79.8428,30.8406 78.2598,30.2906 77.0748,29.2686 C76.6198,28.8766 75.9588,28.2396 75.1938,27.5036 C70.9598,23.4286 62.3708,15.1646 51.1808,11.6096 C51.1788,11.5066 51.1738,11.4066 51.1648,11.3086 C51.0138,9.6306 50.6808,8.8046 50.3638,8.1936 C50.4678,7.8546 50.5378,7.4996 50.5718,7.1286 C50.9088,5.0926 49.9948,3.2626 49.8878,3.0576 C49.8658,3.0156 49.8428,2.9736 49.8178,2.9326 C48.9478,1.5236 47.5898,0.6796 46.0918,0.6176 C45.9658,0.6126 45.8408,0.6096 45.7188,0.6096 M19.4498,102.3956 L19.9098,102.1796 C19.8978,102.0046 19.8928,101.8306 19.8928,101.6596 L19.5798,102.2906 C19.5798,102.2906 19.5348,102.3326 19.4498,102.3956 M35.7968,97.4786 L39.7878,97.4156 L39.7878,97.4206 L40.0168,97.4166 C39.9778,97.2156 39.9368,97.0296 39.8918,96.8656 L37.3438,96.8686 C37.3088,97.1606 37.2878,97.3316 37.2878,97.3316 L35.8118,97.3316 L35.7968,97.4786 M45.7188,2.6096 C45.8138,2.6096 45.9098,2.6116 46.0088,2.6156 C46.9208,2.6536 47.6418,3.2156 48.1148,3.9836 C48.1648,4.0776 48.8498,5.4696 48.5868,6.8706 C48.5488,7.3866 48.4068,7.9176 48.0598,8.4016 C48.2438,8.5846 48.4108,8.7806 48.5328,9.0086 C48.7448,9.4046 49.0348,9.9536 49.1728,11.4876 C49.2148,11.9496 49.1228,12.5366 48.9418,13.0386 C62.5818,16.6766 72.5618,28.0146 75.7678,30.7826 C79.1618,33.7126 84.3378,33.2276 82.2888,35.4886 C81.6828,36.1566 80.7078,36.3926 79.6358,36.3926 C77.0808,36.3926 73.9718,35.0566 73.9718,35.0566 C73.9718,35.0566 75.6688,36.5216 80.2308,38.3236 C84.7918,40.1246 86.5138,40.1546 84.4798,41.5536 C84.0328,41.8616 83.3688,41.9716 82.6338,41.9716 C80.8578,41.9716 78.6698,41.3306 78.1478,41.2836 C78.1268,41.2816 78.1098,41.2806 78.0948,41.2806 C77.9248,41.2806 78.0828,41.4006 78.7358,41.7416 C81.5808,43.2256 82.0558,47.7296 82.0558,47.7296 L81.7828,47.7466 L81.7828,47.7516 C83.6778,50.0036 84.2958,53.1206 81.4808,57.0226 C79.8718,61.7436 73.3628,65.8356 64.1828,68.5526 L64.6588,68.5156 C65.5028,68.5346 66.0668,68.8306 66.4488,69.2336 C66.7918,69.4466 66.9988,69.6696 66.9708,69.8386 C66.9588,69.9086 66.9578,69.9796 66.9608,70.0516 C66.9718,70.0796 66.9858,70.1056 66.9958,70.1326 C71.2228,70.4886 70.5518,72.6826 70.6628,74.5816 C70.7878,76.7066 70.0378,92.4566 70.1628,93.4566 C70.1698,93.5126 70.1748,93.5966 70.1788,93.6956 C70.1798,93.7296 70.1808,93.7706 70.1818,93.8096 C70.1828,93.8806 70.1838,93.9576 70.1848,94.0436 C70.1848,94.1026 70.1848,94.1636 70.1848,94.2296 C70.1838,94.3026 70.1828,94.3816 70.1808,94.4626 C70.1758,94.8296 70.1608,95.2686 70.1368,95.7606 L70.1358,95.7936 C70.1278,95.9696 70.1168,96.1516 70.1068,96.3396 C70.1048,96.3686 70.1028,96.3966 70.1018,96.4256 C70.0898,96.6166 70.0778,96.8086 70.0638,97.0086 L70.0638,97.0096 C69.8788,99.6826 69.4728,103.0156 68.7878,104.0816 C68.0898,105.1686 66.2828,105.5316 64.4448,105.5316 C63.3228,105.5316 62.1888,105.3966 61.2878,105.2066 C58.9128,104.7066 40.8708,103.4566 40.8708,103.4566 C40.8708,103.4566 40.8708,103.3716 40.8698,103.2376 C40.6348,103.2176 40.4958,103.2066 40.4958,103.2066 L40.4958,103.2066 L40.2048,101.5816 C40.2048,101.5816 40.2908,101.5896 40.4348,101.6036 C40.4298,101.5116 40.4258,101.4206 40.4208,101.3226 L40.1818,101.3536 L40.2048,101.5816 L36.3218,101.9476 C36.5708,102.1286 36.7868,102.4626 36.6628,103.0816 C36.4128,104.3316 35.5378,105.7066 34.5378,106.0816 C33.5378,106.4566 31.0378,108.9566 28.7878,109.7066 C28.2138,109.8976 27.7378,109.9996 27.2928,109.9996 C25.9928,109.9996 24.9588,109.1306 22.5378,107.0816 C21.1568,105.9136 20.4568,104.7006 20.1328,103.5276 L20.1208,103.9986 C20.1208,103.9986 20.3708,104.2906 19.2878,104.2906 C18.6108,104.2906 18.3078,103.8016 18.1768,103.4356 C18.0968,103.2156 18.0798,103.0406 18.0798,103.0406 C17.9298,103.0866 17.7828,103.1056 17.6408,103.1056 C17.5248,103.1056 17.4118,103.0926 17.3028,103.0696 C16.8188,102.9686 16.4178,102.6736 16.2048,102.4896 C16.0978,102.3966 16.0378,102.3316 16.0378,102.3316 C16.0378,102.3316 16.4888,101.7166 17.1058,100.8946 C17.3108,100.6206 17.5348,100.3236 17.7668,100.0196 C17.8828,99.8666 18.0008,99.7126 18.1188,99.5586 C18.9478,98.4776 19.8088,97.3946 20.2458,96.9566 C20.2458,96.9566 20.3168,96.9276 20.4278,96.8896 L19.6388,96.8906 C19.7238,96.6056 19.7958,96.1106 19.8568,95.4676 L19.1478,97.1336 C19.8978,94.6336 20.1368,76.8266 19.9128,73.5816 C19.8958,73.3406 19.8978,73.1146 19.9108,72.8996 C19.8708,71.7586 20.1938,70.9276 20.6508,70.3286 C10.1348,67.8776 3.0728,63.2086 2.7928,57.5316 C2.7608,56.8906 2.8258,56.2556 2.9638,55.6266 C2.9448,55.6746 2.9228,55.7246 2.9048,55.7736 C2.8758,55.8476 2.8498,55.9206 2.8238,55.9936 C2.8018,56.0546 2.7788,56.1176 2.7578,56.1766 C2.7328,56.2526 2.7108,56.3236 2.6878,56.3966 C2.6698,56.4526 2.6508,56.5086 2.6348,56.5636 C2.5228,56.9386 2.4438,57.2876 2.3868,57.6086 C2.4048,57.6846 2.4178,57.7286 2.4178,57.7286 L2.3808,57.6396 L2.2208,57.6376 L2.1548,57.6366 L2.1058,57.6366 C2.1058,57.6366 2.1008,57.6146 2.0938,57.5826 C2.0938,57.5816 2.0938,57.5816 2.0928,57.5806 C2.0378,57.3296 1.8398,56.1856 2.2858,54.4616 L2.2868,54.4606 L2.2868,54.4596 C2.4458,53.8456 2.6878,53.1586 3.0478,52.4126 L2.9938,52.4156 C3.0118,52.0066 3.0478,51.6076 3.0838,51.2086 C2.8868,51.4686 2.7838,51.6206 2.7838,51.6206 L2.7848,51.6206 L2.7838,51.6206 C3.0068,50.3456 3.2688,49.1516 3.5598,48.0246 C4.2468,44.8006 5.4648,42.0346 6.8398,39.9506 C8.1938,37.8066 9.6788,36.4636 11.0928,35.9766 C11.2808,35.9116 11.4538,35.8416 11.6148,35.7686 C11.7158,35.7236 11.8038,35.6746 11.8948,35.6276 C11.9448,35.6006 11.9988,35.5746 12.0468,35.5476 C12.1648,35.4786 12.2728,35.4076 12.3738,35.3356 C12.3828,35.3286 12.3928,35.3226 12.4028,35.3156 C12.5108,35.2356 12.6108,35.1546 12.7008,35.0716 C13.9278,33.9426 13.4478,32.5726 13.4478,32.5726 C12.3358,32.8176 11.2648,32.9176 10.2578,32.9176 C5.7848,32.9176 2.5688,30.9496 2.5688,30.9496 C2.5688,30.9496 4.5928,30.1236 9.7618,29.9256 C13.3258,29.1796 19.5048,24.8726 24.4678,21.0966 C26.8338,19.1796 28.9568,17.3786 30.4448,16.2116 C33.9588,13.4556 37.4028,12.5036 38.8818,12.2006 C38.7038,11.7176 38.6378,11.1906 38.6958,10.6786 C38.8088,9.6526 39.3828,8.7036 40.1818,8.0496 C40.3328,7.9256 40.4988,7.8216 40.6638,7.7176 C40.6568,7.7096 40.6458,7.7076 40.6398,7.6976 C40.6188,7.6626 40.3288,7.1476 40.4868,6.3826 C40.5058,5.8106 40.7608,5.0266 41.7028,4.1696 C41.7028,4.1696 43.0588,2.6096 45.7188,2.6096" id="Fill-11" fill="#000000" mask="url(#mask-2)"></path>
                    </g>
                    <path d="M81.8653,54.3948 C82.3123,63.4578 64.7943,70.8548 43.2043,71.9208 C21.6143,72.9858 3.7493,66.5028 3.3023,57.4398 C2.8553,48.3758 19.9943,40.1658 41.5843,39.0998 C63.1743,38.0338 81.4183,45.3318 81.8653,54.3948" id="Fill-14" fill="#FB7073"></path>
                    <path d="M41.5845,39.0999 C19.9945,40.1649 2.8555,48.3759 3.3025,57.4399 C3.3435,58.2739 3.5345,59.0849 3.8595,59.8709 C9.2505,53.4819 23.1865,48.4549 39.7535,47.6379 C59.3575,46.6699 75.8875,51.9269 79.0985,59.6869 C80.7315,57.7499 81.5905,55.6889 81.4865,53.5799 C81.0395,44.5169 63.1745,38.0349 41.5845,39.0999" id="Fill-16" fill="#DD575E"></path>
                    <path d="M81.3721,54.489 C81.2641,63.432 64.3001,71.01 42.7061,72.076 C21.1121,73.142 3.2421,66.63 2.7921,57.531 C2.3441,48.432 19.4851,40.193 41.0801,39.127 C62.6741,38.061 81.4831,45.38 81.3721,54.489 Z" id="Stroke-18" stroke="#000000"></path>
                    <path d="M66.6627,96.8318 C66.2877,95.9568 62.9127,95.5818 59.1627,95.7068 C55.4127,95.8318 56.0377,95.7068 50.5377,96.0818 C45.0377,96.4568 40.1177,96.2238 40.1177,96.2238 C40.8677,97.2238 40.8707,103.4568 40.8707,103.4568 C40.8707,103.4568 58.9127,104.7068 61.2877,105.2068 C63.6627,105.7068 67.6627,105.8318 68.7877,104.0818 C69.9127,102.3318 70.2877,94.4568 70.1627,93.4568 C70.0377,92.4568 70.7877,76.7068 70.6627,74.5818 C70.5377,72.4568 71.4127,69.9568 65.2877,70.0818 C59.1627,70.2068 34.2877,70.8318 29.9127,69.8318 C25.5377,68.8318 23.0377,68.8318 23.0377,68.8318 C23.0377,68.8318 19.6627,69.4568 19.9127,73.0818 C20.1367,76.3268 20.3887,94.3908 19.6387,96.8908" id="Fill-20" fill="#FFED3B"></path>
                    <path d="M37.4166,87.9441 L37.0236,87.4781 C37.8626,86.6731 38.6276,85.9651 39.4946,85.2361 C39.6066,85.1411 39.6716,85.0021 39.6726,84.8551 C39.6726,84.7091 39.6086,84.5691 39.4976,84.4731 C39.3416,84.3401 39.0516,84.0951 38.8856,83.9731 C38.6976,83.8351 38.4366,83.8451 38.2586,84.0001 C37.0176,85.0911 35.9306,86.1131 34.8426,87.2151 C34.8756,86.3891 34.9276,85.4281 34.9926,84.4291 C35.0016,84.2881 34.9496,84.1481 34.8496,84.0471 C34.7496,83.9451 34.6146,83.8941 34.4696,83.8981 L34.2926,83.9051 C34.0746,83.9141 33.8176,83.9251 33.6646,83.9431 C33.4226,83.9691 33.2346,84.1661 33.2196,84.4091 C33.0306,87.4811 32.9866,89.7641 33.0716,92.0441 C33.0816,92.3121 33.3016,92.5251 33.5706,92.5251 C33.7776,92.5251 34.0936,92.5141 34.3656,92.5041 C34.4996,92.4981 34.6246,92.4401 34.7156,92.3401 C34.8056,92.2411 34.8526,92.1101 34.8446,91.9761 C34.8036,91.2421 34.7936,90.3311 34.7926,89.7541 C35.1066,89.4021 35.4366,89.0531 35.7646,88.7131 C36.8046,89.9261 37.6636,90.9611 38.5616,92.3501 C38.6406,92.4721 38.7776,92.5471 38.9226,92.5661 C38.9426,92.5691 38.9636,92.5701 38.9836,92.5701 C39.1096,92.5701 39.2376,92.5201 39.3316,92.4361 C39.4546,92.3251 39.6406,92.1591 39.7576,91.9641 C39.9626,91.6571 39.9676,91.2931 39.7716,90.9881 C39.0326,89.8541 38.3546,89.0531 37.4166,87.9441" id="Fill-22" fill="#000000"></path>
                    <path d="M41.5494,83.908 L40.7424,83.897 C40.4664,83.897 40.2424,84.121 40.2424,84.397 L40.2534,92.025 C40.2534,92.301 40.4774,92.525 40.7534,92.525 L41.5494,92.514 C41.8254,92.514 42.0494,92.291 42.0494,92.014 L42.0494,84.408 C42.0494,84.132 41.8254,83.908 41.5494,83.908" id="Fill-24" fill="#000000"></path>
                    <path d="M48.8482,83.908 C48.6342,83.908 48.2572,83.908 48.0942,83.898 C47.9502,83.887 47.8052,83.945 47.7032,84.05 C47.6022,84.155 47.5512,84.299 47.5652,84.445 C47.7302,86.169 47.8292,87.606 47.8712,88.899 C46.8362,87.274 45.8612,85.861 44.5822,84.122 C44.4882,83.994 44.3392,83.919 44.1802,83.919 C43.9992,83.919 43.6712,83.919 43.4992,83.909 C43.2412,83.89 42.9962,84.093 42.9722,84.361 C42.7522,86.693 42.6392,89.481 42.6822,91.464 C42.6822,91.468 42.6832,91.473 42.6832,91.478 C42.7072,91.958 42.9472,92.203 43.1052,92.298 C43.3672,92.494 43.6962,92.536 43.9252,92.536 C44.0592,92.536 44.1882,92.482 44.2832,92.386 C44.3762,92.289 44.4282,92.159 44.4252,92.025 C44.3832,90.073 44.4102,88.402 44.5092,86.958 C45.5272,88.39 46.7082,90.229 47.9192,92.27 C48.0092,92.422 48.1732,92.514 48.3492,92.514 L49.1452,92.514 C49.2782,92.514 49.4062,92.461 49.5002,92.366 C49.5942,92.272 49.6462,92.144 49.6452,92.011 C49.6232,89.282 49.5292,86.854 49.3472,84.371 C49.3272,84.11 49.1102,83.908 48.8482,83.908" id="Fill-26" fill="#000000"></path>
                    <path d="M57.2125,88.0901 C57.1715,87.8481 56.9315,87.6601 56.7145,87.6741 C55.4845,87.6861 54.5875,87.7871 53.8065,88.0001 C53.4895,88.0881 53.2475,88.2951 53.0965,88.6201 C52.9745,88.9151 52.9625,89.2191 52.9745,89.4221 C52.9835,89.5841 53.0705,89.7321 53.2085,89.8181 C53.3465,89.9041 53.5175,89.9171 53.6665,89.8551 C54.2665,89.6041 54.9135,89.5081 55.6665,89.4411 C55.6925,89.6211 55.7165,89.8031 55.7345,89.9781 C55.3375,90.3741 54.9045,90.6291 54.4165,90.7571 C53.8455,90.9091 53.2685,90.8921 52.7925,90.7091 C52.3505,90.5411 51.9915,90.2321 51.7545,89.8151 C51.1675,88.7841 51.2125,87.3051 51.8565,86.4501 C52.1745,86.0321 52.6015,85.7541 53.1245,85.6261 C53.6205,85.5061 54.3825,85.5101 54.8765,85.7481 C55.3915,86.0011 55.7965,86.5231 55.8405,86.9901 C55.8565,87.1521 55.9495,87.2971 56.0905,87.3781 C56.2325,87.4591 56.4045,87.4651 56.5515,87.3961 C56.7825,87.2871 57.0725,87.1271 57.2745,86.8331 C57.4505,86.5451 57.4705,86.2031 57.3295,85.8681 C56.9915,85.0721 56.3115,84.4211 55.4665,84.0831 C54.5955,83.7271 53.5245,83.6911 52.5255,83.9811 C51.5225,84.2781 50.6925,84.9121 50.1895,85.7651 C49.2625,87.3131 49.3935,89.6541 50.4865,91.0971 C50.9655,91.7271 51.5935,92.1711 52.3595,92.4181 C52.7845,92.5501 53.2335,92.6171 53.6885,92.6171 C54.0475,92.6171 54.4115,92.5751 54.7715,92.4921 C55.1615,92.4041 55.5165,92.2501 55.8325,92.0711 C55.8475,92.1851 55.9015,92.2911 55.9865,92.3701 C56.0955,92.4711 56.2435,92.5191 56.3895,92.5001 C56.5255,92.4831 56.8715,92.4211 57.2025,92.1741 C57.4895,91.9171 57.5495,91.6341 57.5485,91.4231 C57.5045,90.2451 57.3945,89.1551 57.2125,88.0901" id="Fill-28" fill="#000000"></path>
                    <path d="M60.9127,73.8318 L61.0377,78.2068 C61.0377,78.2068 59.9127,90.9568 57.5377,92.8318 C55.1627,94.7068 44.4497,95.9638 46.2877,96.3318 C50.6627,97.2068 61.5377,95.0818 61.5377,95.0818 L61.6627,95.3318 C61.6627,95.3318 61.7337,94.5498 62.8597,94.3528 C62.5647,94.0808 62.3567,93.7098 62.2877,93.2068 C62.2017,92.5758 60.9127,73.8318 60.9127,73.8318" id="Fill-30" fill="#FFCE00"></path>
                    <path d="M62.8594,94.3523 C63.6244,95.0583 64.9784,95.0813 66.0644,94.9173 C65.7864,94.7303 65.4504,94.6283 64.6624,94.4563 C63.8684,94.2843 63.2894,94.2763 62.8594,94.3523" id="Fill-32" fill="#FFCE00"></path>
                    <path d="M61.2408,104.7322 C62.2768,104.8192 63.0858,104.8892 63.7468,104.9352 C62.5768,105.1052 61.5258,104.8202 61.2408,104.7322 M70.6628,74.5822 C70.5378,72.4572 71.4128,69.9572 65.2878,70.0822 C68.0378,70.4572 68.1628,71.7072 68.7878,72.9572 C69.4128,74.2072 68.1628,94.0822 67.6628,94.4572 C67.4918,94.5852 66.8478,94.7992 66.0648,94.9182 C66.2508,95.0432 66.4118,95.2062 66.6628,95.4572 C67.2878,96.0822 67.2968,94.9292 67.4128,95.8322 C67.8018,98.8412 67.5668,100.8812 67.0108,102.2612 C64.2318,103.9012 40.2048,101.5822 40.2048,101.5822 L40.4958,103.2072 C40.4958,103.2072 50.2048,103.9152 57.2048,104.4152 C58.8558,104.5332 60.1638,104.6412 61.2368,104.7322 C61.6158,104.8562 63.4918,105.4122 65.4078,104.9912 C66.0008,104.9742 66.4818,104.9002 67.0378,104.7482 C67.7298,104.5602 67.8988,104.1572 67.8418,103.7302 C69.0928,102.5472 69.9938,100.4552 69.9128,96.8322 C69.9118,96.7742 70.0188,96.9142 70.0638,97.0102 C70.1828,95.2942 70.2118,93.8482 70.1628,93.4572 C70.0378,92.4572 70.7878,76.7072 70.6628,74.5822" id="Fill-34" fill="#FFCE00"></path>
                    <path d="M25.0377,75.3318 C25.0377,75.3318 26.2457,78.5818 24.3707,88.0818 C24.3707,88.0818 23.9127,92.7068 21.9127,92.9568 C19.9127,93.2068 23.6627,92.2068 23.6627,92.2068 L21.6627,97.3318 L37.2877,97.3318 C37.2877,97.3318 38.9547,83.4568 39.7047,82.5818 C40.4547,81.7068 40.7877,81.7068 45.0377,80.0818 C49.2877,78.4568 48.0797,76.7898 48.7047,76.4148 C49.3297,76.0398 48.9127,76.5818 49.7877,75.8318 C50.6627,75.0818 50.1387,77.1818 51.8887,76.9318 C53.6387,76.6818 55.8887,73.1818 56.8887,71.9318 C57.8887,70.6818 58.2217,67.8908 57.4717,67.2658 C56.7217,66.6408 39.7877,70.3318 38.1627,71.0818 C36.5377,71.8318 31.4127,76.0818 29.0377,76.0818 C26.6627,76.0818 26.1627,75.8318 25.0377,75.3318" id="Fill-36" fill="#FFCE00"></path>
                    <path d="M38.0342,91.5754 C38.1452,90.7664 38.2642,89.9304 38.3862,89.1084 C38.0862,88.7404 37.7732,88.3664 37.4162,87.9444 L37.0232,87.4774 C37.6712,86.8564 38.2842,86.2954 38.9242,85.7354 C39.0222,85.1794 39.1182,84.6714 39.2102,84.2324 C39.0922,84.1344 38.9722,84.0374 38.8852,83.9734 C38.6972,83.8344 38.4362,83.8454 38.2592,84.0004 C37.0172,85.0914 35.9302,86.1134 34.8422,87.2154 C34.8762,86.3884 34.9282,85.4284 34.9922,84.4294 C35.0012,84.2874 34.9502,84.1484 34.8492,84.0474 C34.7502,83.9454 34.6142,83.8944 34.4702,83.8974 L34.2922,83.9054 C34.0752,83.9144 33.8182,83.9254 33.6642,83.9424 C33.4222,83.9694 33.2352,84.1654 33.2202,84.4084 C33.0312,87.4814 32.9862,89.7644 33.0712,92.0434 C33.0812,92.3124 33.3022,92.5254 33.5712,92.5254 C33.7782,92.5254 34.0932,92.5144 34.3652,92.5034 C34.4992,92.4984 34.6252,92.4394 34.7152,92.3404 C34.8052,92.2414 34.8522,92.1104 34.8442,91.9764 C34.8042,91.2424 34.7942,90.3304 34.7922,89.7534 C35.1062,89.4024 35.4362,89.0534 35.7642,88.7134 C36.5992,89.6874 37.3182,90.5544 38.0342,91.5754" id="Fill-38" fill="#000000"></path>
                    <path d="M30.503,70.4397 C30.278,70.4057 30.08,70.3697 29.913,70.3317 C25.538,69.3317 23.038,69.3317 23.038,69.3317 C23.038,69.3317 19.663,69.9567 19.913,73.5817 C20.137,76.8267 19.898,94.6337 19.148,97.1337" id="Stroke-40" stroke="#000000" stroke-width="1.5" stroke-linecap="round" stroke-linejoin="round"></path>
                    <path d="M66.6627,96.8318 C66.2877,95.9568 62.9127,95.5818 59.1627,95.7068 C55.4127,95.8318 56.0377,95.7068 50.5377,96.0818 C45.0377,96.4568 39.6207,96.2068 39.6207,96.2068 C40.3707,97.2068 40.4957,103.2068 40.4957,103.2068 C40.4957,103.2068 58.9127,104.7068 61.2877,105.2068 C63.6627,105.7068 67.6627,105.8318 68.7877,104.0818 C69.9127,102.3318 70.2877,94.4568 70.1627,93.4568 C70.0377,92.4568 70.7877,76.7068 70.6627,74.5818 C70.5377,72.4568 71.4127,69.9568 65.2877,70.0818 C63.6977,70.1138 60.8437,70.1808 57.4127,70.2428" id="Stroke-42" stroke="#000000" stroke-width="1.5" stroke-linecap="round" stroke-linejoin="round"></path>
                    <polyline id="Fill-44" fill="#F9D8C5" points="34.5377 97.4983 40.1207 97.4153 40.5447 101.3073 33.1207 102.2483 33.9547 97.3313"></polyline>
                    <polyline id="Stroke-46" stroke="#000000" stroke-linecap="round" stroke-linejoin="round" points="34.5377 97.4983 39.7877 97.4153 40.2047 101.5813 33.1207 102.2483 33.9547 97.3313"></polyline>
                    <path d="M22.3712,96.6653 C21.4542,96.4573 20.2462,96.9573 20.2462,96.9573 C19.2462,97.9573 16.0382,102.3323 16.0382,102.3323 C16.0382,102.3323 16.9962,103.3733 18.0792,103.0403 C19.1632,102.7073 19.5792,102.2903 19.5792,102.2903 L22.3712,96.6653 Z" id="Fill-48" fill="#F9D8C5"></path>
                    <path d="M18.3297,97.5403 C17.7047,97.9983 15.4967,99.8733 14.7047,100.2483 C13.9127,100.6233 13.7467,100.9153 13.7877,101.6653 C13.8297,102.4153 15.3297,102.4573 15.6627,102.4573 L19.5377,97.3733 C19.5377,97.3733 18.9547,97.0823 18.3297,97.5403" id="Fill-50" fill="#F9D8C5"></path>
                    <path d="M18.0797,103.0403 C18.0797,103.0403 18.2047,104.2903 19.2877,104.2903 C20.3717,104.2903 20.1217,103.9983 20.1217,103.9983 L20.1697,102.0573 L18.0797,103.0403 Z" id="Fill-52" fill="#F9D8C5"></path>
                    <path d="M23.7877,73.7068 L30.1627,79.3318" id="Stroke-54" stroke="#000000" stroke-width="1.5" stroke-linecap="round" stroke-linejoin="round"></path>
                    <path d="M60.0377,95.0818 C60.4127,93.4568 61.4127,76.4568 61.4127,76.4568" id="Stroke-56" stroke="#000000" stroke-width="1.5" stroke-linecap="round" stroke-linejoin="round"></path>
                    <path d="M64.3887,77.0569 C64.3887,77.0569 62.4127,78.5819 61.5377,80.3319" id="Stroke-58" stroke="#000000" stroke-width="1.5" stroke-linecap="round" stroke-linejoin="round"></path>
                    <path d="M22.3712,96.6653 C21.4542,96.4573 20.2462,96.9573 20.2462,96.9573 C19.2462,97.9573 16.0382,102.3323 16.0382,102.3323 C16.0382,102.3323 16.9962,103.3733 18.0792,103.0403 C19.1632,102.7073 19.5792,102.2903 19.5792,102.2903" id="Stroke-60" stroke="#000000" stroke-linecap="round" stroke-linejoin="round"></path>
                    <path d="M19.5377,97.3733 C19.5377,97.3733 18.9547,97.0813 18.3297,97.5403 C17.7047,97.9983 15.4957,99.8733 14.7047,100.2483 C13.9127,100.6233 13.7457,100.9153 13.7877,101.6653 C13.8297,102.4153 15.3297,102.4563 15.6627,102.4563" id="Stroke-62" stroke="#000000" stroke-linecap="round" stroke-linejoin="round"></path>
                    <path d="M18.0797,103.0403 C18.0797,103.0403 18.2047,104.2903 19.2877,104.2903 C20.3717,104.2903 20.1217,103.9983 20.1217,103.9983" id="Stroke-64" stroke="#000000" stroke-linecap="round" stroke-linejoin="round"></path>
                    <path d="M43.8721,50.3333 C44.0921,50.3113 44.3091,50.2993 44.5231,50.2993 C45.2661,50.2993 45.9561,50.4413 46.5601,50.6833 C46.6361,50.1763 46.7701,49.6903 46.9881,49.2453 C46.0171,48.8763 44.8931,48.7183 43.7161,48.8423 C42.7001,48.9483 41.7651,49.2503 40.9661,49.6923 C41.2881,50.0823 41.5521,50.5153 41.7471,50.9813 C42.3631,50.6543 43.0801,50.4163 43.8721,50.3333" id="Fill-66" fill="#000000"></path>
                    <path d="M43.8721,50.3333 C44.0921,50.3113 44.3091,50.2993 44.5231,50.2993 C45.2661,50.2993 45.9561,50.4413 46.5601,50.6833 C46.6361,50.1763 46.7701,49.6903 46.9881,49.2453 C46.0171,48.8763 44.8931,48.7183 43.7161,48.8423 C42.7001,48.9483 41.7651,49.2503 40.9661,49.6923 C41.2881,50.0823 41.5521,50.5153 41.7471,50.9813 C42.3631,50.6543 43.0801,50.4163 43.8721,50.3333 Z" id="Stroke-68" stroke="#000000"></path>
                    <path d="M57.2203,51.7283 C57.0643,54.5543 54.5343,56.7123 51.5703,56.5483 C48.6063,56.3843 46.3303,53.9603 46.4873,51.1343 C46.6433,48.3083 49.1733,46.1493 52.1373,46.3133 C55.1003,46.4783 57.3773,48.9023 57.2203,51.7283" id="Fill-70" fill="#000000"></path>
                    <path d="M48.3624,51.8621 C48.0784,51.8461 47.7924,51.8071 47.5054,51.7441 C47.4824,51.5481 47.4754,51.3651 47.4854,51.1891 C47.6114,48.9181 49.6724,47.1791 52.0814,47.3121 C52.7074,47.3471 53.3194,47.5131 53.8804,47.7981 C53.3904,50.2291 51.0384,52.0101 48.3624,51.8621" id="Fill-72" fill="#FFDC0F"></path>
                    <path d="M51.4952,48.3171 C51.4952,48.3171 50.3052,49.6401 48.8892,49.8071" id="Stroke-74" stroke="#FFFFFF" stroke-linecap="round" stroke-linejoin="round"></path>
                    <path d="M43.8721,50.3333 C44.0921,50.3113 44.3091,50.2993 44.5231,50.2993 C45.2661,50.2993 45.9561,50.4413 46.5601,50.6833 C46.6361,50.1763 46.7701,49.6903 46.9881,49.2453 C46.0171,48.8763 44.8931,48.7183 43.7161,48.8423 C42.7001,48.9483 41.7651,49.2503 40.9661,49.6923 C41.2881,50.0823 41.5521,50.5153 41.7471,50.9813 C42.3631,50.6543 43.0801,50.4163 43.8721,50.3333" id="Fill-76" fill="#FFDC0F"></path>
                    <path d="M41.9986,52.3342 C41.8426,55.1602 39.3126,57.3182 36.3486,57.1542 C33.3846,56.9902 31.1086,54.5662 31.2656,51.7402 C31.4216,48.9142 33.9506,46.7562 36.9156,46.9202 C39.8786,47.0842 42.1546,49.5082 41.9986,52.3342" id="Fill-78" fill="#000000"></path>
                    <path d="M33.1407,52.468 C32.8567,52.452 32.5707,52.413 32.2837,52.351 C32.2607,52.155 32.2537,51.972 32.2637,51.796 C32.3897,49.525 34.4507,47.785 36.8597,47.919 C37.4857,47.953 38.0977,48.119 38.6577,48.404 C38.1687,50.835 35.8167,52.616 33.1407,52.468" id="Fill-80" fill="#FFDC0F"></path>
                    <path d="M36.2037,49.0046 C36.2037,49.0046 35.0137,50.3276 33.5967,50.4946" id="Stroke-82" stroke="#FFFFFF" stroke-linecap="round" stroke-linejoin="round"></path>
                    <path d="M43.0005,72.6355 C41.6355,72.5235 40.3885,72.2515 39.2375,71.8655 C39.2785,72.9365 40.1225,74.9055 38.9045,78.0415 C37.8755,80.6935 51.6265,80.6275 52.5065,78.7855 C52.9155,77.9295 51.9885,72.0005 51.6955,71.1265 C49.3565,72.2915 46.5005,72.9225 43.0005,72.6355" id="Fill-84" fill="#F9D8C5"></path>
                    <path d="M52.4717,76.2239 C52.2607,74.6709 51.8297,71.5279 51.6957,71.1269 C49.3567,72.2909 46.4997,72.9229 43.0007,72.6359 C41.6357,72.5239 40.3887,72.2509 39.2377,71.8659 C39.2797,72.9359 40.1217,74.9059 38.9047,78.0409 C38.4827,79.1289 40.5467,79.7579 43.1877,79.9969 C45.3427,78.9659 45.6797,81.7429 47.9717,80.2659 C48.8487,79.6999 51.7567,76.7119 52.4717,76.2239" id="Fill-86" fill="#DDA792"></path>
                    <path d="M52.1387,76.5574 C52.0527,75.9284 51.9307,75.0384 51.8077,74.1754 C50.8957,74.9244 50.0707,75.5534 49.7877,75.8314 C49.3447,76.2684 46.2827,79.1864 44.8207,79.9134 C45.7577,80.3084 46.4127,81.2694 47.9717,80.2654 C48.8487,79.7004 51.4237,77.0454 52.1387,76.5574" id="Fill-88" fill="#EAB8A0"></path>
                    <path d="M62.4444,48.7117 C63.9654,48.3247 64.6684,49.5027 64.3094,51.8677 C63.9414,54.2987 61.8634,54.9317 61.8634,54.9317 C61.8634,54.9317 59.5584,73.9937 43.0004,72.6357 C29.8034,71.5537 27.2634,57.1817 27.2634,57.1817 C27.2634,57.1817 23.5814,55.1167 24.2014,52.4627 C24.8204,49.8097 27.1404,51.0307 27.1404,51.0307 L26.4864,40.8367 L29.7984,34.3757 L34.9434,32.9607 C34.9434,32.9607 44.6324,33.7297 45.1324,33.7197 C45.6324,33.7117 51.8094,33.9767 52.8064,33.7697 C53.8034,33.5637 56.4544,32.5717 56.4544,32.5717 L58.3294,34.8027 L62.4444,48.7117 Z" id="Fill-90" fill="#F9D8C5"></path>
                    <path d="M62.4444,48.7117 L58.3294,34.8027 L56.4544,32.5717 C56.4544,32.5717 56.3064,32.6267 56.0744,32.7117 L60.1534,46.5027 C61.6744,46.1157 62.3784,47.2937 62.0194,49.6587 C61.6514,52.0897 59.5724,52.7227 59.5724,52.7227 C59.5724,52.7227 57.2684,71.7847 40.7104,70.4267 C37.2284,70.1417 34.4774,68.8527 32.3054,67.1167 C34.7194,69.9067 38.1564,72.2387 43.0004,72.6357 C59.5584,73.9937 61.8634,54.9317 61.8634,54.9317 C61.8634,54.9317 63.9414,54.2987 64.3094,51.8677 C64.6684,49.5027 63.9654,48.3247 62.4444,48.7117" id="Fill-92" fill="#EAB8A0"></path>
                    <path d="M46.7984,56.8728 C46.7984,56.8728 45.6804,55.6898 44.2574,55.8158 C42.8344,55.9418 41.8134,56.4508 41.8634,56.8618 C41.9174,57.2968 46.3984,57.1128 46.7984,56.8728" id="Fill-94" fill="#EAB8A0"></path>
                    <path d="M38.7691,54.2263 C38.8101,55.3373 37.1861,56.2973 35.1441,56.3723 C33.1021,56.4473 31.4131,55.6063 31.3731,54.4963 C31.3321,53.3863 32.9551,52.4253 34.9971,52.3503 C37.0401,52.2763 38.7281,53.1163 38.7691,54.2263" id="Fill-96" fill="#F9A388"></path>
                    <path d="M34.0504,53.5637 L33.0444,54.5827" id="Stroke-98" stroke="#000000" stroke-width="0.75" stroke-linecap="round" stroke-linejoin="round"></path>
                    <path d="M35.7173,53.5027 L34.1003,54.9377" id="Stroke-100" stroke="#000000" stroke-width="0.75" stroke-linecap="round" stroke-linejoin="round"></path>
                    <path d="M36.5757,54.1589 L35.7707,54.9739" id="Stroke-102" stroke="#000000" stroke-width="0.75" stroke-linecap="round" stroke-linejoin="round"></path>
                    <path d="M57.9444,53.4802 C57.9854,54.5902 56.3614,55.5512 54.3194,55.6262 C52.2774,55.7002 50.5884,54.8602 50.5484,53.7502 C50.5074,52.6392 52.1304,51.6782 54.1734,51.6042 C56.2154,51.5292 57.9034,52.3692 57.9444,53.4802" id="Fill-104" fill="#F9A388"></path>
                    <path d="M53.1309,52.8674 L52.1249,53.8864" id="Stroke-106" stroke="#000000" stroke-width="0.75" stroke-linecap="round" stroke-linejoin="round"></path>
                    <path d="M54.7974,52.8069 L53.1804,54.2409" id="Stroke-108" stroke="#000000" stroke-width="0.75" stroke-linecap="round" stroke-linejoin="round"></path>
                    <path d="M55.6558,53.4631 L54.8508,54.2781" id="Stroke-110" stroke="#000000" stroke-width="0.75" stroke-linecap="round" stroke-linejoin="round"></path>
                    <path d="M60.128,57.8162 C60.128,57.8162 59.598,62.2962 57.152,66.5252 C59.763,63.1102 60.986,59.1142 61.51,56.8162 C60.884,57.5712 60.128,57.8162 60.128,57.8162" id="Fill-112" fill="#EAB8A0"></path>
                    <path d="M29.0137,54.5881 L28.9887,45.0541 L31.8997,39.2121 L36.4277,37.9351 C36.4277,37.9351 44.9547,38.6341 45.3947,38.6261 C45.8347,38.6181 51.2707,38.8611 52.1487,38.6741 C53.0257,38.4881 55.3587,37.5921 55.3587,37.5921 L57.0097,39.6101 L60.6367,52.1911 C61.9047,51.8601 62.5167,52.8121 62.3117,54.7301 C62.9427,54.3981 64.0487,53.5881 64.3097,51.8681 C64.6687,49.5021 63.9647,48.3251 62.4447,48.7121 L58.3297,34.8021 L56.4537,32.5711 C56.4537,32.5711 53.8037,33.5631 52.8057,33.7701 C51.8087,33.9771 45.6327,33.7111 45.1327,33.7201 C44.6317,33.7291 34.9437,32.9611 34.9437,32.9611 L29.7977,34.3751 L26.4867,40.8371 L27.1397,51.0311 C27.1397,51.0311 24.9137,49.8411 24.2947,52.4941 C23.6757,55.1481 27.7017,57.2131 27.7017,57.2131 C27.7017,57.2131 28.5137,64.3611 34.4637,69.2191 C30.5137,64.8181 29.4687,58.8831 29.4687,58.8831" id="Fill-114" fill="#EAB8A0"></path>
                    <path d="M56.3536,47.6506 C56.7116,47.4686 54.3146,50.5336 49.5416,49.4216 C49.5416,49.4216 49.1526,48.9796 49.7206,48.8186 C50.2886,48.6586 51.4556,50.1356 56.3536,47.6506" id="Fill-116" fill="#000000"></path>
                    <path d="M51.7203,49.5125 C53.7103,49.4765 55.0653,48.6815 55.7303,48.1295 C52.3663,49.6855 50.8923,49.2515 50.1583,49.0365 C49.9973,48.9895 49.8443,48.9455 49.7833,48.9615 C49.6403,49.0015 49.6193,49.0525 49.6123,49.0695 C49.5833,49.1375 49.6293,49.2345 49.6683,49.2935 C50.4133,49.4605 51.0973,49.5235 51.7203,49.5125 M56.3713,47.4975 C56.4263,47.4965 56.4823,47.5095 56.5173,47.5355 C56.6473,47.6335 56.5423,47.7745 56.4923,47.8425 C55.9413,48.5845 53.4703,50.4945 49.4863,49.5665 C49.4443,49.5565 49.4083,49.5355 49.3843,49.5085 C49.3593,49.4795 49.1453,49.2265 49.2483,48.9785 C49.2873,48.8825 49.3903,48.7525 49.6573,48.6775 C49.8513,48.6215 50.0473,48.6805 50.2953,48.7535 C51.0213,48.9675 52.5313,49.4115 56.2503,47.5245 C56.2833,47.5075 56.3273,47.4985 56.3713,47.4975" id="Fill-118" fill="#000000"></path>
                    <path d="M38.8365,50.05 C38.8365,50.05 37.8255,51.003 36.1175,51.176 C34.4085,51.35 31.7255,50.189 31.8675,49.858 C32.0095,49.527 33.4455,51.228 37.1285,50.224 C38.9785,49.719 38.9785,49.719 38.8365,50.05" id="Fill-120" fill="#000000"></path>
                    <path d="M36.4005,50.5466 C34.8285,50.8466 33.7065,50.6436 32.9645,50.3976 C33.8195,50.7566 35.1105,51.1266 36.1155,51.0246 C37.5675,50.8766 38.5035,50.1266 38.6715,49.9826 C38.4465,50.0186 37.9105,50.1656 37.1695,50.3676 C36.9015,50.4406 36.6455,50.4996 36.4005,50.5466 M31.8985,49.6676 C32.0355,49.6416 32.1765,49.7066 32.4125,49.8156 C33.0915,50.1296 34.5035,50.7836 37.0875,50.0796 C38.6215,49.6606 38.8575,49.5966 39.0155,49.7256 C39.1295,49.8176 39.0715,49.9536 39.0155,50.0846 C39.0065,50.1046 38.9925,50.1246 38.9745,50.1416 C38.9315,50.1826 37.8865,51.1486 36.1185,51.3276 C34.5725,51.4846 32.2595,50.6096 31.7785,50.1136 C31.7415,50.0756 31.6305,49.9606 31.6895,49.8236 C31.7175,49.7576 31.7745,49.7066 31.8495,49.6806 C31.8655,49.6746 31.8815,49.6706 31.8985,49.6676" id="Fill-122" fill="#000000"></path>
                    <path d="M41.6837,56.4343 C41.6137,56.4353 41.5447,56.4103 41.5007,56.3613 C41.4297,56.2813 41.4517,56.1693 41.5507,56.1113 C41.6117,56.0753 43.0587,55.2273 44.4127,55.0803 C45.8207,54.9283 46.7577,55.1783 47.5457,55.9163 C47.6247,55.9913 47.6147,56.1033 47.5217,56.1683 C47.4297,56.2333 47.2897,56.2263 47.2107,56.1513 C46.5217,55.5063 45.7257,55.2983 44.4677,55.4353 C43.2267,55.5693 41.8237,56.3913 41.8087,56.3993 C41.7707,56.4223 41.7267,56.4333 41.6837,56.4343" id="Fill-124" fill="#000000"></path>
                    <path d="M41.6837,56.4343 C41.6137,56.4353 41.5447,56.4103 41.5007,56.3613 C41.4297,56.2813 41.4517,56.1693 41.5507,56.1113 C41.6117,56.0753 43.0587,55.2273 44.4127,55.0803 C45.8207,54.9283 46.7577,55.1783 47.5457,55.9163 C47.6247,55.9913 47.6147,56.1033 47.5217,56.1683 C47.4297,56.2333 47.2897,56.2263 47.2107,56.1513 C46.5217,55.5063 45.7257,55.2983 44.4677,55.4353 C43.2267,55.5693 41.8237,56.3913 41.8087,56.3993 C41.7707,56.4223 41.7267,56.4333 41.6837,56.4343 Z" id="Stroke-126" stroke="#000000" stroke-width="0.75"></path>
                    <path d="M62.4444,48.7117 C63.9654,48.3247 64.7474,50.1917 64.3884,52.5567 C64.0204,54.9877 61.8884,55.5567 61.8884,55.5567 C61.8884,55.5567 59.5584,73.9937 43.0004,72.6357 C29.8034,71.5537 27.8884,57.4317 27.8884,57.4317 C27.8884,57.4317 23.5134,56.1817 24.1384,52.3067 C24.5724,49.6177 27.1404,51.0307 27.1404,51.0307 L26.4864,40.8367 L29.7984,34.3757 L34.9434,32.9607 C34.9434,32.9607 44.6324,33.7297 45.1324,33.7197 C45.6324,33.7117 51.8094,33.9767 52.8064,33.7697 C53.8034,33.5637 56.4544,32.5717 56.4544,32.5717 L58.3294,34.8027 L62.4444,48.7117 Z" id="Stroke-128" stroke="#000000" stroke-linecap="round" stroke-linejoin="round"></path>
                    <path d="M39.7061,45.6165 C39.7061,45.6165 37.9301,47.4185 33.9131,46.4915" id="Stroke-130" stroke="#000000" stroke-width="0.75" stroke-linecap="round" stroke-linejoin="round"></path>
                    <path d="M53.8638,43.9563 C53.8638,43.9563 51.3228,45.9143 47.9618,44.8133" id="Stroke-132" stroke="#000000" stroke-width="0.75" stroke-linecap="round" stroke-linejoin="round"></path>
                    <path d="M60.6617,21.0305 L60.3357,21.6505 C57.7827,25.5795 54.2117,24.4025 54.2117,24.4025 C43.2187,21.7705 33.4867,26.2875 33.4867,26.2875 C28.0967,28.2725 26.2027,32.5335 26.1927,32.5525 C21.4447,41.3205 24.7567,48.8795 24.7927,48.9615 C24.8007,48.9795 24.8107,48.9975 24.8237,49.0125 L26.8267,51.1815 C26.8827,51.2535 27.0957,51.5665 27.1697,51.5255 C27.2447,51.4855 27.6377,51.6545 27.6387,51.5565 C27.6467,50.9895 27.1577,46.7845 28.5717,41.4745 C28.8617,40.3845 29.6647,39.5925 30.3107,38.9265 C30.3107,38.9265 33.6897,41.1275 42.4637,39.7125 C45.5347,39.4125 47.9977,38.8195 49.8167,38.2305 C53.1237,37.1605 54.9647,35.9385 55.4177,35.6155 C61.9887,40.9105 61.0977,49.6845 60.8507,51.3975 C60.8337,51.5175 60.8927,51.6755 60.9937,51.7015 C61.0077,51.7055 61.0207,51.7065 61.0347,51.7065 C61.1197,51.7055 61.1987,51.6325 61.2207,51.5305 C61.7157,49.2925 62.6727,49.1925 62.7107,49.1895 C62.8007,49.1845 62.8757,49.1055 62.8907,48.9995 L63.1987,46.7105 C67.0467,30.6975 60.6617,21.0305 60.6617,21.0305" id="Fill-134" fill="#000000"></path>
                    <path d="M40.6387,62.8069 C46.6847,59.8239 48.8887,61.9319 48.8887,61.9319" id="Stroke-136" stroke="#000000" stroke-width="0.75" stroke-linecap="round" stroke-linejoin="round"></path>
                    <path d="M44.9888,30.0002 C47.3228,29.4282 50.3118,28.9902 53.9078,29.0492" id="Stroke-138" stroke="#FFFFFF" stroke-linecap="round" stroke-linejoin="round"></path>
                    <path d="M38.9644,32.3206 C38.9644,32.3206 40.0494,31.6146 42.1374,30.8586" id="Stroke-140" stroke="#FFFFFF" stroke-linecap="round" stroke-linejoin="round"></path>
                    <path d="M43.8887,63.1819 C43.8887,63.1819 45.1387,63.1819 45.8887,62.9319" id="Stroke-142" stroke="#000000" stroke-width="0.75" stroke-linecap="round" stroke-linejoin="round"></path>
                    <path d="M43.0005,72.6355 C41.6355,72.5235 40.3885,72.2515 39.2375,71.8655 C39.2785,72.9365 40.1225,74.9055 38.9045,78.0415 C37.8755,80.6935 51.6265,80.6275 52.5065,78.7855 C52.9155,77.9295 51.9885,72.0005 51.6955,71.1265 C49.3565,72.2915 46.5005,72.9225 43.0005,72.6355 Z" id="Stroke-144" stroke="#000000" stroke-linecap="round" stroke-linejoin="round"></path>
                    <path d="M42.6114,72.6057 C41.2484,72.4687 40.0064,72.1737 38.8624,71.7677 C38.8844,72.8387 39.6924,74.8227 38.4184,77.9367 C37.3414,80.5687 51.0914,80.7517 52.0044,78.9267 C52.4284,78.0777 51.6094,72.1327 51.3324,71.2537 C48.9724,72.3757 46.1054,72.9557 42.6114,72.6057" id="Fill-146" fill="#F9D8C5"></path>
                    <path d="M51.8834,74.6877 C51.7004,73.1307 51.4594,71.6577 51.3324,71.2537 C48.9724,72.3757 46.1054,72.9557 42.6114,72.6057 C41.2484,72.4687 40.0064,72.1737 38.8624,71.7677 C38.8844,72.8387 39.6924,74.8227 38.4184,77.9367 C37.9774,79.0157 40.0294,79.6827 42.6654,79.9687 C44.8384,78.9767 47.1534,77.6587 49.4714,76.2237 C50.3594,75.6737 51.1594,75.1627 51.8834,74.6877" id="Fill-148" fill="#EAB8A0"></path>
                    <path d="M62.4844,49.0369 C64.0124,48.6779 64.6934,49.8679 64.2924,52.2269 C63.8804,54.6509 61.7914,55.2459 61.7914,55.2459 C61.7914,55.2459 59.1414,74.2629 42.6114,72.6059 C29.4364,71.2849 26.9364,55.8119 26.9364,55.8119 C26.9364,55.8119 24.0984,54.3029 24.7664,51.6609 C25.4334,49.0189 27.1444,50.7169 27.1444,50.7169 L26.6754,40.5139 L30.1034,34.1119 L35.2734,32.7909 C35.2734,32.7909 44.9464,33.7349 45.4464,33.7349 C45.9464,33.7349 52.1174,34.1119 53.1184,33.9239 C54.1194,33.7349 56.7874,32.7909 56.7874,32.7909 L58.6224,35.0559 L62.4844,49.0369 Z" id="Fill-150" fill="#F9D8C5"></path>
                    <path d="M62.4844,49.0369 L58.6224,35.0559 L56.7874,32.7909 C56.7874,32.7909 56.6394,32.8439 56.4044,32.9249 L60.2344,46.7869 C61.7624,46.4279 62.4434,47.6179 62.0424,49.9769 C61.6304,52.4009 59.5414,52.9959 59.5414,52.9959 C59.5414,52.9959 56.8914,72.0129 40.3614,70.3559 C36.8844,70.0069 34.1574,68.6689 32.0174,66.8939 C34.3814,69.7269 37.7754,72.1209 42.6114,72.6059 C59.1414,74.2629 61.7914,55.2459 61.7914,55.2459 C61.7914,55.2459 63.8804,54.6509 64.2924,52.2269 C64.6934,49.8679 64.0124,48.6779 62.4844,49.0369" id="Fill-152" fill="#EAB8A0"></path>
                    <path d="M46.6939,56.9138 C46.6939,56.9138 45.5969,55.7108 44.1729,55.8108 C42.7469,55.9118 41.7169,56.4018 41.7599,56.8138 C41.8059,57.2498 46.2889,57.1468 46.6939,56.9138" id="Fill-154" fill="#EAB8A0"></path>
                    <path d="M38.7134,54.1228 C38.7344,55.2338 37.0934,56.1648 35.0504,56.2028 C33.0064,56.2398 31.3334,55.3698 31.3134,54.2588 C31.2934,53.1478 32.9324,52.2168 34.9764,52.1788 C37.0194,52.1418 38.6924,53.0118 38.7134,54.1228" id="Fill-156" fill="#F9A388"></path>
                    <path d="M34.0079,53.3748 L32.9839,54.3748" id="Stroke-158" stroke="#000000" stroke-width="0.75" stroke-linecap="round" stroke-linejoin="round"></path>
                    <path d="M35.6754,53.344 L34.0334,54.749" id="Stroke-160" stroke="#000000" stroke-width="0.75" stroke-linecap="round" stroke-linejoin="round"></path>
                    <path d="M36.522,54.0159 L35.703,54.8159" id="Stroke-162" stroke="#000000" stroke-width="0.75" stroke-linecap="round" stroke-linejoin="round"></path>
                    <path d="M57.8995,53.7234 C57.9195,54.8344 56.2795,55.7654 54.2365,55.8034 C52.1925,55.8414 50.5195,54.9704 50.4995,53.8594 C50.4785,52.7484 52.1185,51.8174 54.1625,51.7794 C56.2055,51.7424 57.8785,52.6124 57.8995,53.7234" id="Fill-164" fill="#F9A388"></path>
                    <path d="M53.0972,53.0242 L52.0732,54.0242" id="Stroke-166" stroke="#000000" stroke-width="0.75" stroke-linecap="round" stroke-linejoin="round"></path>
                    <path d="M54.7652,52.9934 L53.1222,54.3974" id="Stroke-168" stroke="#000000" stroke-width="0.75" stroke-linecap="round" stroke-linejoin="round"></path>
                    <path d="M55.6114,53.6648 L54.7924,54.4658" id="Stroke-170" stroke="#000000" stroke-width="0.75" stroke-linecap="round" stroke-linejoin="round"></path>
                    <path d="M60.004,58.0984 C60.004,58.0984 59.393,62.5684 56.871,66.7524 C59.543,63.3854 60.838,59.4114 61.404,57.1234 C60.764,57.8674 60.004,58.0984 60.004,58.0984" id="Fill-172" fill="#EAB8A0"></path>
                    <path d="M62.4844,49.0369 L58.6224,35.0559 L56.7874,32.7909 C56.7874,32.7909 54.1194,33.7349 53.1184,33.9239 C52.1174,34.1129 45.9464,33.7349 45.4464,33.7349 C44.9464,33.7349 35.2734,32.7909 35.2734,32.7909 L30.1034,34.1129 L26.6754,40.5139 L27.1444,50.7169 C27.1444,50.7169 25.4334,49.0189 24.7664,51.6609 C24.0984,54.3029 26.9364,55.8119 26.9364,55.8119 C26.9364,55.8119 28.2764,64.0709 34.1374,69.0359 C30.2684,64.5629 29.3304,58.6109 29.3304,58.6109 C29.3304,58.6109 26.8334,57.2449 27.4204,54.8559 C28.0074,52.4669 29.5134,54.0029 29.5134,54.0029 L29.1004,44.7749 L32.1174,38.9859 L36.6674,37.7909 C36.6674,37.7909 45.1804,38.6449 45.6204,38.6449 C46.0604,38.6449 51.4914,38.9859 52.3724,38.8149 C53.2524,38.6449 55.6014,37.7909 55.6014,37.7909 L57.2154,39.8389 L60.6144,52.4839 C61.8874,52.1759 62.4824,53.1379 62.2424,55.0519 C62.8794,54.7309 64.0014,53.9419 64.2924,52.2269 C64.6934,49.8679 64.0124,48.6779 62.4844,49.0369" id="Fill-174" fill="#EAB8A0"></path>
                    <path d="M56.4141,47.8665 C56.7761,47.6905 54.3231,50.7115 49.5711,49.5135 C49.5711,49.5135 49.1911,49.0645 49.7611,48.9145 C50.3311,48.7645 51.4721,50.2625 56.4141,47.8665" id="Fill-176" fill="#000000"></path>
                    <path d="M51.7481,49.6438 C53.7381,49.6438 55.1071,48.8738 55.7821,48.3338 C52.3911,49.8288 50.9241,49.3688 50.1951,49.1398 C50.0351,49.0888 49.8831,49.0428 49.8211,49.0578 C49.6781,49.0958 49.6551,49.1458 49.6481,49.1628 C49.6181,49.2308 49.6621,49.3278 49.7001,49.3878 C50.4421,49.5688 51.1251,49.6438 51.7481,49.6438 M56.4351,47.7138 C56.4901,47.7138 56.5451,47.7268 56.5801,47.7538 C56.7081,47.8538 56.6011,47.9938 56.5491,48.0608 C55.9841,48.7918 53.4801,50.6578 49.5131,49.6568 C49.4711,49.6468 49.4361,49.6258 49.4121,49.5968 C49.3881,49.5688 49.1791,49.3108 49.2861,49.0648 C49.3271,48.9698 49.4331,48.8418 49.7001,48.7718 C49.8951,48.7198 50.0901,48.7818 50.3371,48.8598 C51.0591,49.0858 52.5601,49.5578 56.3131,47.7378 C56.3471,47.7218 56.3911,47.7138 56.4351,47.7138" id="Fill-178" fill="#000000"></path>
                    <path d="M38.8565,49.9485 C38.8565,49.9485 37.8285,50.8825 36.1175,51.0245 C34.4055,51.1675 31.7445,49.9585 31.8925,49.6305 C32.0405,49.3025 33.4445,51.0285 37.1455,50.0915 C39.0045,49.6195 39.0045,49.6195 38.8565,49.9485" id="Fill-180" fill="#000000"></path>
                    <path d="M36.4122,50.4006 C34.8342,50.6716 33.7172,50.4486 32.9792,50.1896 C33.8282,50.5646 35.1122,50.9566 36.1182,50.8726 C37.5732,50.7516 38.5222,50.0186 38.6922,49.8776 C38.4672,49.9096 37.9292,50.0476 37.1842,50.2356 C36.9152,50.3036 36.6582,50.3586 36.4122,50.4006 M31.9262,49.4406 C32.0642,49.4166 32.2042,49.4836 32.4372,49.5966 C33.1112,49.9236 34.5112,50.6036 37.1062,49.9456 C38.6482,49.5556 38.8852,49.4956 39.0412,49.6276 C39.1542,49.7216 39.0932,49.8566 39.0352,49.9856 C39.0252,50.0056 39.0112,50.0256 38.9932,50.0426 C38.9492,50.0826 37.8872,51.0286 36.1162,51.1766 C34.5672,51.3056 32.2702,50.3886 31.7982,49.8836 C31.7632,49.8456 31.6532,49.7286 31.7142,49.5926 C31.7442,49.5266 31.8022,49.4776 31.8772,49.4526 C31.8932,49.4466 31.9102,49.4426 31.9262,49.4406" id="Fill-182" fill="#000000"></path>
                    <path d="M41.5875,56.3831 C41.5185,56.3831 41.4495,56.3561 41.4065,56.3061 C41.3365,56.2261 41.3605,56.1141 41.4605,56.0571 C41.5225,56.0231 42.9845,55.2011 44.3405,55.0791 C45.7515,54.9521 46.6835,55.2181 47.4585,55.9711 C47.5355,56.0471 47.5235,56.1601 47.4295,56.2231 C47.3365,56.2861 47.1965,56.2761 47.1185,56.2001 C46.4425,55.5431 45.6505,55.3211 44.3895,55.4341 C43.1465,55.5461 41.7285,56.3421 41.7135,56.3511 C41.6755,56.3721 41.6315,56.3831 41.5875,56.3831" id="Fill-184" fill="#000000"></path>
                    <path d="M41.5875,56.3831 C41.5185,56.3831 41.4495,56.3561 41.4065,56.3061 C41.3365,56.2261 41.3605,56.1141 41.4605,56.0571 C41.5225,56.0231 42.9845,55.2011 44.3405,55.0791 C45.7515,54.9521 46.6835,55.2181 47.4585,55.9711 C47.5355,56.0471 47.5235,56.1601 47.4295,56.2231 C47.3365,56.2861 47.1965,56.2761 47.1185,56.2001 C46.4425,55.5431 45.6505,55.3211 44.3895,55.4341 C43.1465,55.5461 41.7285,56.3421 41.7135,56.3511 C41.6755,56.3721 41.6315,56.3831 41.5875,56.3831 Z" id="Stroke-186" stroke="#000000" stroke-width="0.75"></path>
                    <path d="M62.4844,49.0369 C64.0124,48.6779 64.6934,49.8679 64.2924,52.2269 C63.8804,54.6509 61.7914,55.2459 61.7914,55.2459 C61.7914,55.2459 59.1414,74.2629 42.6114,72.6059 C29.4364,71.2849 26.9364,55.8119 26.9364,55.8119 C26.9364,55.8119 24.0984,54.3029 24.7664,51.6609 C25.4334,49.0189 27.1444,50.7169 27.1444,50.7169 L26.6754,40.5139 L30.1034,34.1119 L35.2734,32.7909 C35.2734,32.7909 44.9464,33.7349 45.4464,33.7349 C45.9464,33.7349 52.1174,34.1119 53.1184,33.9239 C54.1194,33.7349 56.7874,32.7909 56.7874,32.7909 L58.6224,35.0559 L62.4844,49.0369 Z" id="Stroke-188" stroke="#000000" stroke-width="1.5" stroke-linecap="round" stroke-linejoin="round"></path>
                    <path d="M42.6114,72.6057 C41.2484,72.4687 40.0064,72.1737 38.8624,71.7677 C38.8844,72.8387 39.6924,74.8227 38.4184,77.9367 C37.3414,80.5687 51.0914,80.7517 52.0044,78.9267 C52.4284,78.0777 51.6094,72.1327 51.3324,71.2537 C48.9724,72.3757 46.1054,72.9557 42.6114,72.6057 Z" id="Stroke-190" stroke="#000000" stroke-width="1.5" stroke-linecap="round" stroke-linejoin="round"></path>
                    <path d="M32.3301,46.6604 C32.3301,46.6604 34.1391,44.8904 38.1391,45.8904" id="Stroke-192" stroke="#000000" stroke-width="0.75" stroke-linecap="round" stroke-linejoin="round"></path>
                    <path d="M48.5552,45.2239 C48.5552,45.2239 51.1312,43.3129 54.4722,44.4739" id="Stroke-194" stroke="#000000" stroke-width="0.75" stroke-linecap="round" stroke-linejoin="round"></path>
                    <path d="M61.2032,21.3284 L60.8662,21.9424 C58.2422,25.8254 54.6932,24.5834 54.6932,24.5834 C43.7492,21.7534 33.9372,26.0934 33.9372,26.0934 C28.5122,27.9794 26.5422,32.2064 26.5312,32.2254 C21.6252,40.9054 24.8002,48.5234 24.8342,48.6054 C24.8422,48.6244 24.8522,48.6414 24.8642,48.6574 L26.8602,51.2484 C26.9162,51.3214 27.0042,51.3434 27.0782,51.3034 C27.1542,51.2644 27.5292,51.8514 27.5212,51.7554 C27.5162,51.6774 27.2382,46.4714 28.7482,41.1884 C29.0582,40.1044 29.8762,39.3264 30.5332,38.6714 C30.5332,38.6714 33.8722,40.9334 42.6692,39.6784 C45.7452,39.4334 48.2202,38.8854 50.0492,38.3294 C53.3742,37.3194 55.2382,36.1304 55.6962,35.8164 C62.1702,41.2284 61.1202,49.9864 60.8432,51.6944 C60.8232,51.8134 60.8802,51.9724 60.9802,52.0004 C60.9942,52.0044 61.0072,52.0064 61.0212,52.0064 C61.1062,52.0064 61.1862,51.9344 61.2102,51.8334 C61.7452,49.6044 62.7042,49.5224 62.7422,49.5194 C62.8322,49.5164 62.9092,49.4394 62.9252,49.3334 L63.2752,47.0504 C67.4122,31.1094 61.2032,21.3284 61.2032,21.3284" id="Fill-196" fill="#000000"></path>
                    <path d="M39.8052,61.4739 C39.8052,61.4739 45.3052,61.9739 49.8052,61.2239" id="Stroke-198" stroke="#000000" stroke-width="0.75" stroke-linecap="round" stroke-linejoin="round"></path>
                    <path d="M45.3702,30.0129 C47.7152,29.4829 50.7102,29.0999 54.3052,29.2239" id="Stroke-200" stroke="#FFFFFF" stroke-linecap="round" stroke-linejoin="round"></path>
                    <path d="M39.3052,32.2239 C39.3052,32.2239 40.4032,31.5379 42.5042,30.8189" id="Stroke-202" stroke="#FFFFFF" stroke-linecap="round" stroke-linejoin="round"></path>
                    <path d="M34.8155,66.8904 C34.8155,66.8904 34.0445,66.6244 31.3835,70.2864 C30.1965,71.9204 25.4355,73.5184 31.8845,77.9834 C37.5715,81.9204 46.3845,81.1084 46.3845,81.1084 C46.3845,81.1084 45.5715,82.6084 57.2215,78.5154 C70.9915,73.6784 66.6965,71.4654 66.9705,69.8384 C67.0445,69.3994 65.5555,68.5984 64.1385,68.5574 C63.7305,68.5454 63.7185,67.3584 63.4305,67.1404 C60.8735,65.2054 59.2335,63.5474 58.2215,65.1824 C57.9515,65.6194 56.7955,66.4454 56.9095,66.7654 C57.7215,69.0574 57.2635,70.7764 55.3465,73.2654 C52.5535,76.8944 47.9825,79.7914 47.9825,79.7914 C47.9825,79.7914 46.5105,80.8304 40.1075,75.9184 C36.5165,73.1644 34.9575,71.1284 34.7535,70.0464 C34.5935,69.1994 36.6905,68.6404 36.6905,68.6404" id="Fill-204" fill="#FFED3B"></path>
                    <path d="M61.8887,55.5569 C61.8887,55.5569 59.5587,73.9939 43.0007,72.6359" id="Stroke-206" stroke="#000000" stroke-linecap="round" stroke-linejoin="round"></path>
                    <path d="M63.8467,68.5569 C63.6247,66.5559 60.5597,64.0359 58.8047,64.4739" id="Stroke-208" stroke="#000000" stroke-width="1.5" stroke-linecap="round" stroke-linejoin="round"></path>
                    <path d="M34.878,66.6716 C34.878,66.6716 31.004,68.8496 31.384,70.2866 C31.384,70.2866 31.097,71.5156 32.847,73.0156" id="Stroke-210" stroke="#000000" stroke-linecap="round" stroke-linejoin="round"></path>
                    <path d="M40.4512,79.4846 C40.2842,80.1776 40.4302,95.6186 40.4302,95.6186" id="Stroke-212" stroke="#000000" stroke-width="1.5" stroke-linecap="round" stroke-linejoin="round"></path>
                    <path d="M54.7637,77.9631 C54.5967,78.7341 54.7637,95.4291 54.7637,95.4291" id="Stroke-214" stroke="#000000" stroke-width="1.5" stroke-linecap="round" stroke-linejoin="round"></path>
                    <path d="M56.9302,67.2654 C56.9302,67.2654 60.8612,68.8674 52.7632,76.0574 C48.3052,80.0154 47.5132,79.9944 46.6592,79.7034 C39.3652,77.2124 36.5972,73.0574 34.9302,71.2234 C33.2632,69.3904 36.5342,68.4524 36.5342,68.4524" id="Stroke-216" stroke="#000000" stroke-width="1.5" stroke-linecap="round" stroke-linejoin="round"></path>
                    <path d="M63.8467,68.5569 C63.8467,68.5569 64.0967,70.0149 62.7217,71.6399" id="Stroke-218" stroke="#000000" stroke-width="1.5" stroke-linecap="round" stroke-linejoin="round"></path>
                    <path d="M30.8467,71.1404 C30.8467,71.1404 26.4717,72.3904 29.0967,75.8904 C30.5967,77.8904 37.5967,81.0574 43.5967,81.0574 C49.5967,81.0574 52.0967,81.3904 58.5967,78.2234 C65.0967,75.0574 67.0557,73.3694 67.2217,71.7024 C67.2217,71.7024 67.4717,68.5774 64.6597,68.5154" id="Stroke-220" stroke="#000000" stroke-width="1.5" stroke-linecap="round" stroke-linejoin="round"></path>
                    <path d="M46.8033,74.988 C46.8033,74.988 47.2873,76.498 44.3713,77.665 C41.4543,78.832 37.2873,79.748 37.2873,79.748 C37.2043,80.082 34.9543,91.832 34.5373,93.665 C34.1213,95.498 34.2043,99.582 33.7043,100.998 C33.2043,102.415 30.6213,104.998 28.4543,105.165 C26.2873,105.332 24.0373,104.415 23.2873,102.832 C22.5373,101.248 23.1213,97.832 23.1213,97.832 L31.2043,76.165 C30.0373,74.915 29.5373,71.748 29.7873,70.498 C30.0373,69.248 29.8713,67.998 29.8713,67.998 C29.5373,67.248 29.0373,66.248 27.2873,65.165 C25.5373,64.082 25.7043,63.332 26.2873,62.665 C26.8713,61.998 28.5373,61.915 30.1213,62.248 C31.7043,62.582 33.5373,65.165 33.5373,65.165 C33.5373,65.165 36.1213,68.665 38.4543,68.832 C38.4543,68.832 40.3713,69.582 43.5373,68.915 C45.7563,68.448 49.4543,67.082 51.4543,67.248 C53.4543,67.415 55.2873,67.832 56.1213,68.998 C56.9543,70.165 56.7043,70.915 55.7043,71.332 C54.7043,71.748 54.1213,71.665 52.9543,71.748 C51.7873,71.832 47.2043,72.165 44.3713,73.582 L48.6003,72.144 C48.6003,72.144 47.9073,74.363 46.8033,74.988" id="Fill-222" fill="#F9D5C1"></path>
                    <path d="M54.0377,69.4983 C51.4547,69.8313 44.1207,71.5813 43.2877,73.0813 L35.4547,77.7483 C35.4547,77.7483 35.3707,81.8313 34.8707,82.0813 C34.5997,82.2173 35.5827,82.9433 36.5367,83.5783 C36.9437,81.4823 37.2577,79.8693 37.2877,79.7483 C37.2877,79.7483 41.4547,78.8313 44.3707,77.6653 C47.2877,76.4983 46.4547,75.0813 46.4547,75.0813 L45.6727,74.5193 C45.9607,74.4403 46.2647,74.3583 46.6007,74.2693 C48.7257,73.7063 47.9127,72.7693 47.9127,72.7693 L44.4777,73.6583 L44.3707,73.5813 C47.2047,72.1653 51.7877,71.8313 52.9547,71.7483 C54.1207,71.6653 54.7047,71.7483 55.7047,71.3313 C56.2417,71.1083 56.5537,70.7843 56.6057,70.3553 C55.9717,69.7813 55.1067,69.3603 54.0377,69.4983" id="Fill-224" fill="#EAB8A0"></path>
                    <path d="M48.3712,72.6653 C48.3712,72.6653 48.6212,73.9983 47.6212,74.4153 C46.6212,74.8323 42.2312,76.0513 42.2312,76.0513" id="Stroke-226" stroke="#000000" stroke-linecap="round" stroke-linejoin="round"></path>
                    <path d="M32.7047,76.1653 C30.5377,73.4983 31.1217,69.1653 31.4547,68.4983 C31.7877,67.8323 32.0377,66.4983 28.9547,64.7483 C27.8707,64.1333 26.9927,63.5323 26.2957,63.0063 C25.9587,63.5913 26.0777,64.2613 27.5377,65.1653 C29.2877,66.2483 29.7877,67.2483 30.1217,67.9983 C30.1217,67.9983 30.2877,69.2483 30.0377,70.4983 C29.7877,71.7483 30.2877,74.9153 31.4547,76.1653 C32.6217,75.9983 32.7047,76.1653 32.7047,76.1653" id="Fill-228" fill="#EAB8A0"></path>
                    <path d="M44.6627,73.0818 C47.4957,71.6648 52.0377,71.8318 53.2047,71.7488 C54.3707,71.6648 54.9547,71.7488 55.9547,71.3318 C56.9547,70.9148 57.2047,70.1648 56.3707,68.9988 C55.5377,67.8318 53.7047,67.4148 51.7047,67.2488 C49.7047,67.0818 46.0057,68.4478 43.7877,68.9148 C40.6207,69.5818 38.7047,68.8318 38.7047,68.8318 C36.3707,68.6648 33.7877,65.1648 33.7877,65.1648 C33.7877,65.1648 31.9547,62.5818 30.3707,62.2488 C28.7877,61.9148 27.1207,61.9988 26.5377,62.6648 C25.9547,63.3318 25.7877,64.0818 27.5377,65.1648 C29.2877,66.2488 29.7877,67.2488 30.1207,67.9988 C30.1207,67.9988 30.2877,69.2488 30.0377,70.4988 C29.7877,71.7488 30.2877,74.9148 31.4547,76.1648 L23.3707,97.8318 C23.3707,97.8318 22.7877,101.2488 23.5377,102.8318 C24.2877,104.4148 26.5377,105.3318 28.7047,105.1648 C30.8707,104.9988 33.4547,102.4148 33.9547,100.9988 C34.4547,99.5818 34.3707,95.4988 34.7877,93.6648 C35.2047,91.8318 37.4547,80.0818 37.5377,79.7488 C37.5377,79.7488 41.7047,78.8318 44.6207,77.6648 C47.5377,76.4988 46.7047,75.0818 46.7047,75.0818" id="Stroke-230" stroke="#000000" stroke-linecap="round" stroke-linejoin="round"></path>
                    <path d="M31.5377,106.4568 L34.7877,102.9568 C35.3917,102.3008 35.7807,101.7378 36.0177,101.2588 C36.9117,99.4558 35.6627,98.8318 35.6627,98.8318 L37.2877,82.4568 C33.9127,83.2068 29.2877,79.9568 29.2877,79.9568 C29.2877,79.9568 20.5377,97.0818 20.1627,99.2068 C19.7877,101.3318 19.2877,104.3318 22.5377,107.0818 C25.7877,109.8318 26.5377,110.4568 28.7877,109.7068 C31.0377,108.9568 33.5377,106.4568 34.5377,106.0818 C35.5377,105.7068 36.4127,104.3318 36.6627,103.0818 C36.9127,101.8318 35.7807,101.7378 35.7807,101.7378" id="Fill-232" fill="#FFCE00"></path>
                    <path d="M29.6397,80.3591 L23.1207,97.8321 C23.1207,97.8321 22.5377,101.2481 23.2877,102.8321 C24.0377,104.4151 26.2877,105.3321 28.4547,105.1651 C30.6207,104.9981 33.2047,102.4151 33.7047,100.9981 C34.2047,99.5821 34.1207,95.4981 34.5377,93.6651 C34.8377,92.3471 36.0837,85.9071 36.7917,82.2651 C33.8527,81.8411 31.5127,81.1611 29.6397,80.3591" id="Fill-234" fill="#FFED3B"></path>
                    <path d="M31.0377,104.9153 L34.7877,102.9573 C35.3917,102.3003 35.7807,101.7383 36.0177,101.2593 C36.9117,99.4563 35.6627,98.8323 35.6627,98.8323 L37.2877,82.4573 C33.9127,83.2073 29.2877,79.9573 29.2877,79.9573 C29.2877,79.9573 20.5377,97.0823 20.1627,99.2073 C19.7877,101.3323 19.2877,104.3323 22.5377,107.0823 C25.7877,109.8323 26.5377,110.4573 28.7877,109.7073 C31.0377,108.9573 33.5377,106.4573 34.5377,106.0823 C35.5377,105.7073 36.4127,104.3323 36.6627,103.0823 C36.9127,101.8323 35.7807,101.7383 35.7807,101.7383" id="Stroke-236" stroke="#000000" stroke-width="1.5" stroke-linecap="round" stroke-linejoin="round"></path>
                    <path d="M48.668,13.6194 C49.032,13.0664 49.232,12.1464 49.173,11.4874 C49.035,9.9534 48.745,9.4054 48.533,9.0094 C47.735,7.5194 45.439,7.0724 43.996,6.8974 C43.67,6.8584 43.341,6.8704 43.015,6.9084 C41.989,7.0254 40.981,7.3954 40.182,8.0494 C39.383,8.7034 38.809,9.6524 38.695,10.6784 C38.581,11.7044 38.959,12.7934 39.744,13.4634 C39.744,13.4634 46.033,12.5624 47.871,13.6394 C49.71,14.7164 48.668,13.6194 48.668,13.6194" id="Fill-238" fill="#F3FF00"></path>
                    <path d="M48.668,13.6194 C49.032,13.0664 49.232,12.1464 49.173,11.4874 C49.035,9.9534 48.745,9.4054 48.533,9.0094 C47.735,7.5194 45.439,7.0724 43.996,6.8974 C43.67,6.8584 43.341,6.8704 43.015,6.9084 C41.989,7.0254 40.981,7.3954 40.182,8.0494 C39.383,8.7034 38.809,9.6524 38.695,10.6784 C38.581,11.7044 38.959,12.7934 39.744,13.4634 C39.744,13.4634 46.033,12.5624 47.871,13.6394 C49.71,14.7164 48.668,13.6194 48.668,13.6194 Z" id="Stroke-240" stroke="#000000"></path>
                    <path d="M40.9483,7.5144 C40.9483,7.5144 40.2383,6.3214 41.8963,4.8114 C43.5543,3.3034 46.4963,2.4984 47.7623,4.5494 C47.7623,4.5494 48.8683,6.7124 47.7513,8.2234 C47.7513,8.2234 44.5193,6.1334 40.9483,7.5144" id="Fill-242" fill="#F3FF00"></path>
                    <path d="M45.9605,2.9929 C46.8735,3.0309 47.5935,3.5929 48.0675,4.3609 C48.1305,4.4819 49.2745,6.7649 48.0405,8.4369 C47.9875,8.5079 47.9145,8.5549 47.8345,8.5729 C47.7425,8.5949 47.6425,8.5799 47.5575,8.5249 C47.5265,8.5059 44.4295,6.5549 41.0775,7.8489 C40.9115,7.9129 40.7295,7.8479 40.6395,7.6979 C40.6045,7.6389 39.8015,6.2339 41.6545,4.5469 C41.6545,4.5469 43.1085,2.8739 45.9605,2.9929" id="Fill-244" fill="#F3FF00"></path>
                    <path d="M45.9605,2.9929 C46.8735,3.0309 47.5935,3.5929 48.0675,4.3609 C48.1305,4.4819 49.2745,6.7649 48.0405,8.4369 C47.9875,8.5079 47.9145,8.5549 47.8345,8.5729 C47.7425,8.5949 47.6425,8.5799 47.5575,8.5249 C47.5265,8.5059 44.4295,6.5549 41.0775,7.8489 C40.9115,7.9129 40.7295,7.8479 40.6395,7.6979 C40.6045,7.6389 39.8015,6.2339 41.6545,4.5469 C41.6545,4.5469 43.1085,2.8739 45.9605,2.9929" id="Fill-246" fill="#F3FF00"></path>
                    <path d="M46.0084,2.6155 C46.9214,2.6535 47.6414,3.2165 48.1154,3.9835 C48.1784,4.1045 49.3224,6.3885 48.0884,8.0595 C48.0354,8.1305 47.9614,8.1775 47.8824,8.1965 C47.7894,8.2175 47.6904,8.2025 47.6044,8.1485 C47.5744,8.1285 44.4774,6.1775 41.1254,7.4715 C40.9584,7.5355 40.7774,7.4715 40.6874,7.3205 C40.6524,7.2615 39.8494,5.8565 41.7024,4.1695 C41.7024,4.1695 43.1564,2.4965 46.0084,2.6155 Z" id="Stroke-248" stroke="#000000"></path>
                    <path d="M40.4551,9.0164 C40.4551,9.0164 44.5511,8.8344 44.5641,11.7404 C44.5721,13.5524 47.8541,13.2024 47.8541,13.2024 C47.8541,13.2024 49.4461,10.7184 47.3501,8.8474 C45.3671,7.0764 41.5641,7.0774 40.4551,9.0164" id="Fill-250" fill="#FFCD2E"></path>
                    <path d="M43.3384,4.5833 C43.3384,4.5833 45.7824,5.4613 45.4274,6.3283 L47.4114,7.3153 C47.4114,7.3153 48.3574,6.4213 47.2914,5.2183 C46.2244,4.0153 44.3234,4.0163 43.3384,4.5833" id="Fill-252" fill="#FFCD2E"></path>
                    <path d="M39.6378,12.0725 C39.6378,12.0725 35.1008,12.5605 30.4448,16.2115 C25.7888,19.8625 14.9328,29.7285 9.7628,29.9255 C4.5928,30.1235 2.5688,30.9485 2.5688,30.9485 C2.5688,30.9485 7.3968,33.9035 13.4488,32.5725 C13.4488,32.5725 14.2688,34.8835 11.0928,35.9765 C7.9158,37.0705 4.3788,42.4625 2.7838,51.6205 C2.7838,51.6205 11.3298,38.8515 31.1798,36.3245 C51.0298,33.7985 77.0288,40.8505 81.7878,47.8225 C81.7878,47.8225 81.5808,43.2265 78.7358,41.7415 C75.8908,40.2575 82.4468,42.9545 84.4798,41.5545 C86.5138,40.1545 84.7918,40.1245 80.2298,38.3225 C75.6688,36.5215 73.9718,35.0565 73.9718,35.0565 C73.9718,35.0565 80.2408,37.7495 82.2888,35.4885 C84.3378,33.2275 79.1618,33.7115 75.7678,30.7825 C72.3748,27.8535 61.3968,15.3205 46.5198,12.4785 C46.5198,12.4785 41.6608,11.2465 39.6378,12.0725" id="Fill-254" fill="#FF0000"></path>
                    <path d="M68.46,34.7581 C66.412,33.8981 65.182,33.4641 61.494,31.9561 C57.807,30.4471 54.304,30.1801 52.878,29.1241 C51.452,28.0681 35.159,27.7851 33.389,28.6251 C31.62,29.4661 28.104,30.1391 25.639,29.4771 C23.175,28.8161 21.293,30.2271 19.405,32.0511 C17.983,33.4251 15.624,34.7811 12.701,35.0711 C12.334,35.4081 11.823,35.7251 11.093,35.9771 C7.916,37.0701 4.378,42.4621 2.784,51.6201 C2.784,51.6201 11.33,38.8511 31.18,36.3251 C51.03,33.7991 77.029,40.8511 81.788,47.8231 C81.788,47.8231 81.581,43.2261 78.736,41.7421 C75.891,40.2571 82.446,42.9541 84.48,41.5541 C80.022,39.5371 77.076,37.5891 75.853,36.7431 C74.629,35.8971 70.508,35.6191 68.46,34.7581" id="Fill-256" fill="#C11E1E"></path>
                    <path d="M82.0562,47.7297 C82.0562,47.7297 81.5802,43.2267 78.7362,41.7417 C75.8912,40.2567 82.4462,42.9547 84.4802,41.5547 C86.5142,40.1537 84.7922,40.1247 80.2302,38.3227 C75.6682,36.5217 73.9722,35.0567 73.9722,35.0567 C73.9722,35.0567 80.2402,37.7497 82.2882,35.4887 C84.3372,33.2277 79.1622,33.7117 75.7682,30.7827 C72.3742,27.8537 61.3972,15.3197 46.5192,12.4787 C46.5192,12.4787 44.3342,12.0037 41.6982,12.2567 C41.6982,12.2567 35.5432,12.3437 29.8072,16.9177 C25.1812,20.6077 14.8262,28.8657 9.7622,29.9257 C4.6712,30.9907 2.5682,30.9487 2.5682,30.9487 C2.5682,30.9487 7.3972,33.9037 13.4482,32.5727 C13.4482,32.5727 14.2692,34.8837 11.0932,35.9767 C7.9162,37.0697 3.3782,43.7027 2.9932,52.4157" id="Stroke-258" stroke="#000000"></path>
                    <path d="M81.731,47.6848 C79.48,45.0618 70.046,38.0758 54.585,35.7988 C39.125,33.5208 24.59,35.6368 12.403,43.1758 C0.216,50.7148 2.106,57.6368 2.106,57.6368 L2.38,57.6408 C2.992,54.0918 6.48,47.0318 23.353,40.7818 C47.043,32.0068 72.778,42.2118 78.616,48.6288 C81.451,51.7448 83.836,55.5618 78.889,59.4948 C83.826,54.9948 83.981,50.3078 81.731,47.6848" id="Fill-260" fill="#FFF310"></path>
                    <path d="M80.9976,49.6755 C78.7466,47.0525 69.3126,40.0665 53.8516,37.7895 C38.3916,35.5115 23.8566,37.6265 11.6696,45.1655 C6.1376,48.5895 3.5106,51.8815 2.2866,54.4605 C1.7786,56.4215 2.1056,57.6365 2.1056,57.6365 L2.2216,57.6375 C2.3136,57.4065 2.4176,57.1675 2.5346,56.9225 C3.4896,53.1975 7.5516,46.6345 23.3526,40.7815 C47.0426,32.0075 72.6516,42.3295 78.6166,48.6295 C81.2316,51.3905 82.4106,53.6785 80.7586,56.3055 C80.7506,56.3745 80.7386,56.4425 80.7276,56.5105 C81.2496,55.8585 81.6786,55.2035 82.0086,54.5545 C82.4446,52.6525 82.0656,50.9205 80.9976,49.6755" id="Fill-262" fill="#FFCD2E"></path>
                    <path d="M81.731,47.6848 C79.48,45.0618 70.046,38.0758 54.585,35.7988 C39.125,33.5208 24.59,35.6368 12.403,43.1758 C0.216,50.7148 2.418,57.7288 2.418,57.7288 L2.38,57.6408 C2.992,54.0918 6.48,47.0318 23.353,40.7818 C47.043,32.0068 72.651,42.3298 78.616,48.6288 C82.108,52.3158 81.951,55.6198 79.826,58.9948 C84.514,54.1198 83.981,50.3078 81.731,47.6848 Z" id="Stroke-264" stroke="#000000"></path>
                    <path d="M41.3809,19.9084 C41.3809,19.9084 36.0379,21.2974 34.7159,24.6534 C33.4879,27.7734 33.1979,29.0664 34.6839,33.1074 C36.1709,37.1474 36.1829,38.5774 37.2669,38.4204 C38.3499,38.2624 39.2589,37.2584 38.5439,35.6564 C37.8289,34.0554 36.6349,29.6234 36.8739,27.6724 C37.0259,26.4324 37.3139,24.9654 41.9729,23.1674 C41.9729,23.1674 46.6529,22.6814 47.9949,27.0694 C47.9949,27.0694 48.8769,29.6354 47.4559,33.5194 C46.0359,37.4044 45.2339,36.9874 46.2289,38.0134 C47.2249,39.0404 47.9319,37.5444 48.7129,36.6504 C49.4939,35.7554 51.5659,30.3114 51.9079,28.9084 C52.2499,27.5044 51.1409,24.8014 49.4869,23.0114 C47.8339,21.2214 44.6759,18.8434 41.3809,19.9084" id="Fill-266" fill="#F3FF00"></path>
                    <path d="M37.1685,35.7332 C36.4535,34.1312 35.2775,29.4632 35.5165,27.5112 C35.6685,26.2722 36.3075,23.2832 40.9665,21.4852 C40.9665,21.4852 46.3535,19.5042 50.5945,24.9402 C50.5945,24.9402 50.6725,24.8952 50.8105,24.8202 C50.4355,24.1742 49.9865,23.5512 49.4875,23.0112 C47.8345,21.2212 44.6755,18.8432 41.3805,19.9082 C41.3805,19.9082 36.0375,21.2972 34.7165,24.6532 C33.4885,27.7732 33.1975,29.0662 34.6845,33.1072 C36.1705,37.1482 36.1835,38.5782 37.2665,38.4202 C38.3505,38.2622 37.8835,37.3342 37.1685,35.7332" id="Fill-268" fill="#FFF310"></path>
                    <path d="M47.4561,33.5198 C48.8761,29.6358 47.9951,27.0688 47.9951,27.0688 C46.6531,22.6818 41.9731,23.1678 41.9731,23.1678 C37.2101,23.9458 37.0261,26.4328 36.8741,27.6718 C36.6351,29.6238 37.8291,34.0558 38.5441,35.6568 C38.6831,35.9688 38.8311,36.7848 38.8571,37.0498 L46.2361,37.1218 C46.5321,36.5698 46.9491,34.9068 47.4561,33.5198" id="Fill-270" fill="#FFCD2E"></path>
                    <path d="M41.9727,23.1677 C37.2107,23.9457 37.0257,26.4327 36.8737,27.6717 C36.6357,29.6237 37.8287,34.0557 38.5437,35.6567 C38.6827,35.9687 38.8307,36.7847 38.8577,37.0497 L40.9617,37.0697 C40.6317,33.4677 41.0047,28.4977 43.0927,26.5257 C44.0537,25.6187 45.3307,25.0157 46.4997,24.6197 C44.6167,22.8937 41.9727,23.1677 41.9727,23.1677" id="Fill-272" fill="#FF9D00"></path>
                    <path d="M41.3809,19.908 L41.3889,19.909 L41.3809,19.908 Z M43.6739,20.131 C42.9989,20.081 42.2639,20.127 41.4599,20.291 C41.4469,20.294 41.4339,20.296 41.4219,20.298 C41.3799,20.302 37.2149,20.786 35.0619,24.837 C33.5529,27.676 33.9939,29.235 35.0609,33 L35.2029,33.505 C36.2189,37.099 36.5419,38.135 37.2109,38.033 C37.6759,37.965 38.0559,37.72 38.2539,37.361 C38.4789,36.952 38.4559,36.418 38.1869,35.816 C37.4419,34.146 36.2389,29.645 36.4859,27.625 L36.4969,27.531 C36.6549,26.211 36.9849,23.465 41.9189,22.781 C41.9829,22.774 46.9489,22.313 48.3689,26.955 C48.3969,27.001 49.5389,29.441 48.0779,33.435 C47.4649,35.112 46.9249,36.031 46.5679,36.639 C46.1429,37.363 46.1429,37.363 46.5099,37.742 C46.6629,37.9 46.7999,37.975 46.9139,37.969 C47.2159,37.95 47.6069,37.435 47.9519,36.98 C48.1059,36.777 48.2599,36.573 48.4179,36.393 C49.1539,35.549 51.0779,30.851 51.3289,29.019 C51.6099,26.978 50.9329,25.153 49.1999,23.277 C47.7589,21.717 46.0909,20.311 43.6739,20.131 L43.6739,20.131 Z M36.9679,38.823 C35.8699,38.741 35.4659,37.312 34.4499,33.718 L34.3079,33.213 C33.2139,29.35 32.7139,27.586 34.3709,24.47 C36.6699,20.146 40.9429,19.564 41.3199,19.521 C45.3829,18.696 47.8729,20.687 49.7749,22.746 C51.6789,24.807 52.4199,26.835 52.1049,29.126 C51.8339,31.097 49.8149,35.982 49.0069,36.908 C48.8609,37.075 48.7179,37.264 48.5749,37.453 C48.1069,38.071 47.6219,38.71 46.9619,38.75 C46.6099,38.773 46.2679,38.616 45.9479,38.287 C45.1669,37.48 45.4249,37.041 45.8929,36.243 C46.2359,35.659 46.7549,34.777 47.3429,33.166 C48.6809,29.507 47.6529,27.26 47.6419,27.238 C46.3879,23.152 42.0569,23.552 42.0129,23.557 C37.6909,24.157 37.4199,26.412 37.2739,27.624 L37.2629,27.72 C37.0349,29.581 38.2049,33.938 38.9019,35.497 C39.3719,36.552 39.1819,37.298 38.9399,37.738 C38.6229,38.314 38.0329,38.704 37.3229,38.807 C37.1969,38.825 37.0789,38.831 36.9679,38.823 L36.9679,38.823 Z" id="Fill-274" fill="#000000"></path>
                </g>
                <text id="皇" font-family="DFWaWaTC-W5, Wawati TC" font-size="11.0431" font-weight="normal" fill="#000000">
                    <tspan x="36.3962" y="33.3730287">皇</tspan>
                </text>
                <path d="M42.1299,26.0755 C41.9299,26.0865 41.7379,26.1175 41.5639,26.1585 C41.5939,26.4335 41.6499,26.7185 41.7199,27.0025 C41.4169,27.0395 41.1049,27.0775 40.8019,27.1365 L40.8389,27.8265 C41.2559,27.8045 41.7919,27.7545 42.4469,27.6565 C43.1709,27.6385 43.6609,27.6235 43.9179,27.6205 C43.9809,27.8945 44.0139,28.0735 44.0189,28.1585 L44.0969,29.6445 C43.9419,29.7595 43.3999,29.8525 42.4699,29.9225 C41.4509,29.9765 40.7109,29.9625 40.2389,29.8815 L40.2119,29.3715 C41.2429,29.2425 41.9289,29.1215 42.2759,28.9965 C42.2879,28.9105 42.2999,28.8245 42.2939,28.7185 C42.2899,28.6335 42.2689,28.5385 42.2479,28.4545 C41.5899,28.4895 40.9019,28.5785 40.1859,28.7235 C40.1649,28.3305 40.1429,27.9165 40.1279,27.4695 L39.5739,27.4995 C39.5619,27.8725 39.5619,28.1705 39.5729,28.3935 C39.6219,29.3065 39.6759,30.0285 39.7349,30.5465 C40.1629,30.7155 41.0989,30.7625 42.5589,30.6845 C43.5539,30.6325 44.2619,30.4775 44.6829,30.2215 C44.7019,29.9645 44.6829,29.3055 44.6269,28.2435 C44.5669,27.4165 44.4939,26.9625 44.3929,26.8715 C43.9749,26.8725 43.3799,26.8825 42.6009,26.9235 C42.4969,26.9295 42.3929,26.9455 42.2889,26.9505 C42.2419,26.6655 42.1859,26.3705 42.1299,26.0755 Z M44.0779,30.9665 C42.9309,31.0275 41.7069,31.1665 40.4159,31.3845 C40.4299,31.6595 40.4729,31.8715 40.5529,32.0155 C41.0819,31.9665 41.5619,31.9085 41.9929,31.8645 C42.0229,32.1195 42.0519,32.3625 42.0889,32.6155 C41.7629,32.6755 41.4439,32.7355 41.1339,32.7945 C41.1619,33.0265 41.1969,33.2275 41.2369,33.3845 C41.5569,33.3465 41.8769,33.3085 42.1959,33.2595 C42.2319,33.4815 42.2759,33.6925 42.3199,33.9235 C41.8389,33.9705 41.3689,34.0485 40.9229,34.1365 C40.9329,34.3275 40.9519,34.5295 40.9939,34.7185 C42.0929,34.6595 43.2039,34.5165 44.3269,34.2975 L44.3119,34.0105 C44.3059,33.9045 44.2939,33.8195 44.2899,33.7455 C43.8079,33.7705 43.3439,33.8065 42.8879,33.8615 C42.8589,33.6285 42.8239,33.4075 42.7859,33.1545 C43.1129,33.1045 43.4319,33.0455 43.7499,32.9645 C43.7219,32.7535 43.6959,32.5525 43.6539,32.3625 C43.3179,32.4125 42.9989,32.4615 42.6789,32.5095 C42.6349,32.2785 42.5829,32.0465 42.5369,31.7935 C43.2559,31.7025 43.7749,31.6105 44.1079,31.5295 C44.1199,31.4435 44.1309,31.3465 44.1249,31.2415 C44.1199,31.1455 44.0989,31.0505 44.0779,30.9665 Z" id="Stroke-277" stroke="#000000" stroke-width="2"></path>
                <text id="皇" font-family="DFWaWaTC-W5, Wawati TC" font-size="11.0431" font-weight="normal" fill="#F3FF00">
                    <tspan x="37.3962" y="33.3730287">皇</tspan>
                </text>
            </g>
        </g>
    </g>
</svg>