<?xml version="1.0" encoding="UTF-8"?>
<svg width="62px" height="62px" viewBox="0 0 62 62" version="1.1" xmlns="http://www.w3.org/2000/svg" xmlns:xlink="http://www.w3.org/1999/xlink">
    <!-- Generator: Sketch 46.1 (44463) - http://www.bohemiancoding.com/sketch -->
    <title>photoborder</title>
    <desc>Created with Sketch.</desc>
    <defs></defs>
    <g id="Symbols" stroke="none" stroke-width="1" fill="none" fill-rule="evenodd" stroke-linecap="round" stroke-linejoin="round">
        <g id="photoborder" stroke="#000000">
            <g id="Page-1" transform="translate(1.000000, 1.000000)">
                <g id="Group-60">
                    <path d="M13.7384,55.3694 C5.7574,49.9734 0.5004,40.8384 0.5004,30.4994 C0.5004,22.9274 3.3214,16.0004 7.9664,10.7154" id="Stroke-50"></path>
                    <path d="M55.3605,13.7249 C58.6045,18.5169 60.5005,24.2909 60.5005,30.4999 C60.5005,47.0419 47.0425,60.4999 30.5005,60.4999 C27.4615,60.4999 24.5265,60.0459 21.7605,59.2019" id="Stroke-52"></path>
                    <path d="M46.4913,5.1268 C48.0553,6.1158 49.5213,7.2458 50.8733,8.4978" id="Stroke-54"></path>
                    <path d="M13.2902,5.9398 C18.1652,2.5138 24.1022,0.4998 30.5002,0.4998 C36.3742,0.4998 41.8592,2.1968 46.4912,5.1268" id="Stroke-56"></path>
                </g>
            </g>
        </g>
    </g>
</svg>