<?xml version="1.0" encoding="UTF-8"?>
<svg width="74px" height="220px" viewBox="0 0 74 220" version="1.1" xmlns="http://www.w3.org/2000/svg" xmlns:xlink="http://www.w3.org/1999/xlink">
    <!-- Generator: Sketch 46.1 (44463) - http://www.bohemiancoding.com/sketch -->
    <title>total-bt-2-2</title>
    <desc>Created with Sketch.</desc>
    <defs></defs>
    <g id="Symbols" stroke="none" stroke-width="1" fill="none" fill-rule="evenodd">
        <g id="total-bt-2-2">
            <g id="Group">
                <path d="M73.75,73.9997 L73.75,148.9997" id="Stroke-1" stroke="#000000" stroke-width="1.5"></path>
                <path d="M73.75,26.9997 L73.75,58.9997" id="Stroke-4" stroke="#000000" stroke-width="1.5"></path>
                <path d="M0.75,170.0651 L0.75,194.0651" id="Stroke-7" stroke="#000000" stroke-width="1.5"></path>
                <path d="M0.75,80.9997 L0.75,158.9997" id="Stroke-10" stroke="#000000" stroke-width="1.5"></path>
                <g id="total-bt-2" transform="translate(27.000000, 0.000000)">
                    <g id="Group-2" transform="translate(2.000000, 2.000000)">
                        <g id="Group-25" transform="translate(1.000000, 1.000000)" stroke="#000000" stroke-width="6" stroke-linecap="round" stroke-linejoin="round">
                            <path d="M12.8672,7.0156 C12.6802,7.6256 12.3982,8.2586 12.0232,8.9136 C11.8362,8.0706 11.6952,7.1096 11.6012,6.0316 L15.9612,6.0316 L15.9612,4.9766 L11.5312,4.9766 C11.4842,4.2736 11.4612,3.4536 11.4612,2.5156 L11.4612,0.1956 L8.9292,0.1956 L8.9292,2.3746 C8.9292,2.7036 8.9532,3.1956 9.0002,3.8516 L9.0002,4.9766 L5.9762,4.9766 L5.9762,2.6566 C6.9142,2.5156 7.7342,2.3286 8.4372,2.0936 L6.8202,0.1246 C5.3192,1.0636 3.3282,1.8596 0.8442,2.5156 L0.8442,3.0776 C1.7332,3.0776 2.6012,3.0316 3.4452,2.9376 L3.4452,4.9766 L0.3512,4.9766 L0.3512,6.0316 L3.4452,6.0316 L3.4452,8.8436 C1.9442,9.1246 0.9142,9.3126 0.3512,9.4066 L1.1952,12.0776 C1.4762,11.9376 1.8512,11.7506 2.3202,11.5156 C2.8362,11.2816 3.2102,11.1176 3.4452,11.0236 L3.4452,13.8356 C3.4452,14.1646 3.2582,14.3276 2.8832,14.3276 C2.5542,14.3276 2.1552,14.1416 1.6872,13.7656 L1.3362,14.0466 C2.1332,15.0316 3.0232,15.5466 4.0082,15.5936 C5.1792,15.4996 5.8362,14.9136 5.9762,13.8356 L5.9762,9.6176 C6.8202,9.1956 7.6642,8.7026 8.5082,8.1406 L8.2972,7.6486 C7.6872,7.8366 6.9142,8.0476 5.9762,8.2816 L5.9762,6.0316 L9.0702,6.0316 C9.2112,7.8136 9.4682,9.3596 9.8442,10.6716 C9.9372,11.0006 10.0082,11.2116 10.0542,11.3046 C10.1002,11.3996 10.1252,11.4696 10.1252,11.5156 C9.0942,12.7816 7.8752,13.8356 6.4692,14.6796 L6.7502,15.1716 C8.7642,14.2806 10.1002,13.5786 10.7582,13.0626 C11.7882,14.7496 12.8432,15.6166 13.9222,15.6636 C15.0932,15.7106 15.7962,14.6096 16.0312,12.3596 L15.4692,12.2186 C15.3742,12.7816 15.2582,13.2026 15.1172,13.4846 C14.9302,13.8126 14.6482,13.8126 14.2732,13.4846 C13.7572,12.9216 13.2642,12.1956 12.7972,11.3046 C13.8272,10.3206 14.8112,8.8906 15.7502,7.0156 L12.8672,7.0156 Z M12.3752,1.3206 C12.8432,2.2116 13.1722,2.9616 13.3592,3.5706 C13.5002,3.8516 13.3832,4.0626 13.0082,4.2026 L13.2192,4.5546 C13.9222,4.4136 14.4602,4.2026 14.8362,3.9216 C15.5392,3.4996 15.7252,2.9376 15.3982,2.2346 C15.1172,1.5786 14.8112,0.9926 14.4842,0.4766 L12.3752,1.3206 Z" id="Stroke-1"></path>
                            <path d="M7.1719,28.7422 C7.2659,28.6962 7.3359,28.6012 7.3829,28.4612 C7.9909,27.1492 8.4379,25.7192 8.7189,24.1722 C9.8439,24.7342 10.7339,25.6962 11.3909,27.0552 C12.1879,28.9302 12.7019,31.1332 12.9379,33.6642 L15.7499,32.1172 C15.0469,29.5862 14.0379,27.5712 12.7269,26.0702 C11.5549,24.7112 10.2659,23.8672 8.8589,23.5392 C8.9529,22.9762 9.0239,22.4142 9.0699,21.8512 L15.6799,21.8512 L15.6799,20.7972 L9.1409,20.7972 C9.2349,19.9072 9.2349,19.8362 9.1409,20.5862 C9.2349,19.5082 9.2809,18.6872 9.2809,18.1252 L6.5389,18.1252 C6.5389,19.0632 6.5149,19.9532 6.4689,20.7972 L0.7029,20.7972 L0.7029,21.8512 L6.3989,21.8512 C6.3989,21.9922 6.3739,22.2502 6.3279,22.6252 C6.3279,22.9532 6.3039,23.2112 6.2579,23.3982 C4.8519,23.5862 3.5619,24.2192 2.3909,25.2972 C0.9379,26.8912 0.1409,28.8602 -0.0001,31.2032 C-0.0001,32.7502 0.6089,33.5232 1.8279,33.5232 C3.6089,33.4292 5.2969,32.0242 6.8909,29.3042 C7.4989,30.4292 7.9209,31.2732 8.1559,31.8362 C8.2019,31.9762 8.2499,32.0942 8.2969,32.1872 C8.4839,32.4692 8.3429,32.6552 7.8749,32.7502 L7.9449,33.1722 C8.8829,33.1722 9.6089,32.9842 10.1249,32.6092 C10.6879,32.2812 10.8279,31.7652 10.5469,31.0622 C9.9849,29.7972 9.4679,28.7662 8.9999,27.9692 L7.1719,28.7422 Z M1.3359,32.8902 C0.6789,32.8902 0.3519,32.3042 0.3519,31.1332 C0.4919,28.9302 1.2409,27.1022 2.6019,25.6482 C3.6319,24.6182 4.8269,23.9852 6.1879,23.7502 C5.9519,25.6722 5.4849,27.3362 4.7809,28.7422 C3.5619,31.3682 2.4139,32.7502 1.3359,32.8902 Z" id="Stroke-3"></path>
                            <path d="M5.9062,36.7578 C6.1872,37.0388 6.3512,37.2498 6.3982,37.3908 C6.4922,37.5308 6.5622,37.6258 6.6092,37.6718 L0.7032,37.6718 L0.7032,40.7658 L2.3202,40.7658 C1.6632,41.2818 1.3362,41.7978 1.3362,42.3128 C1.3362,43.1558 1.8512,43.6018 2.8832,43.6488 C4.7112,43.4148 6.3512,42.4298 7.8042,40.6958 C9.6782,41.2118 11.5072,42.1958 13.2892,43.6488 L15.1872,41.8908 C14.3892,41.4228 13.6402,41.0468 12.9372,40.7658 L15.4692,40.7658 L15.4692,39.3598 C15.4222,38.3288 14.8112,37.7668 13.6402,37.6718 L9.3512,37.6718 C9.5862,37.3908 9.5862,37.1338 9.3512,36.8988 C9.2112,36.6168 8.9532,36.3358 8.5782,36.0548 L5.9062,36.7578 Z M6.3982,44.0698 L0.9142,44.0698 L0.9142,45.1248 L6.1872,45.1248 C5.6252,47.7968 3.6562,49.7898 0.2812,51.1018 L0.5622,51.5938 C5.5302,50.7028 8.2972,48.5478 8.8592,45.1248 L11.8832,45.1248 C12.3502,45.1248 12.5862,45.3598 12.5862,45.8278 L12.5862,49.3438 C12.3502,50.5148 11.2502,50.5148 9.2812,49.3438 L8.9292,49.7658 C10.0542,50.8908 11.2252,51.4758 12.4452,51.5238 C14.1782,51.4758 15.0702,50.7258 15.1172,49.2738 L15.1172,46.1098 C15.0702,44.7978 14.4142,44.1178 13.1482,44.0698 L9.0702,44.0698 L9.0702,42.4528 L6.4682,42.4528 C6.4682,43.0158 6.4442,43.5548 6.3982,44.0698 Z M8.7892,38.7268 L12.2342,38.7268 C12.6562,38.7738 12.8902,38.9848 12.9372,39.3598 L12.9372,40.7658 C11.6722,40.2028 10.1482,39.8518 8.3672,39.7108 C8.6012,39.4298 8.7422,39.1018 8.7892,38.7268 Z M1.7582,42.1718 C1.8982,41.0468 3.0692,40.4378 5.2732,40.3438 C4.2892,41.7498 3.3042,42.5708 2.3202,42.8048 C1.9442,42.8048 1.7582,42.5938 1.7582,42.1718 Z M3.2342,40.2738 L3.2342,38.7268 L6.0472,38.7268 C6.0002,39.1018 5.8592,39.4298 5.6252,39.7108 C4.6402,39.8518 3.8432,40.0398 3.2342,40.2738 Z" id="Stroke-5"></path>
                            <path d="M0.7734,54.4766 L0.7734,55.4606 L11.3204,55.4606 C11.5064,55.4606 11.6254,55.5086 11.6714,55.6016 C11.7174,55.6956 11.6714,55.8366 11.5314,56.0236 C10.9684,56.6336 10.0784,57.3136 8.8594,58.0626 C8.3904,57.3136 7.7104,56.9146 6.8204,56.8676 C5.3674,56.9146 4.5934,57.5246 4.5004,58.6956 C4.5454,59.7736 5.2964,60.3126 6.7504,60.3126 L6.7504,67.4146 C6.7954,68.1176 6.3984,68.3986 5.5544,68.2576 C4.9924,68.0706 4.4294,67.7656 3.8674,67.3436 L3.5154,67.6246 C4.5454,69.0316 5.8114,69.7106 7.3124,69.6646 C8.7184,69.5696 9.3974,68.7266 9.3514,67.1326 L9.3514,60.1016 L9.3514,59.8206 C11.2734,59.1646 12.8674,58.3206 14.1324,57.2896 C14.9764,56.5856 15.2574,55.9066 14.9764,55.2496 C14.8364,54.7346 14.3894,54.4766 13.6404,54.4766 L0.7734,54.4766 Z M5.7654,57.5706 C6.4684,57.5706 6.7954,58.0626 6.7504,59.0466 C5.5784,59.5166 4.9214,59.3986 4.7814,58.6956 C4.7814,58.0396 5.1084,57.6646 5.7654,57.5706 Z" id="Stroke-7"></path>
                            <path d="M5.094,83.969 C5.047,82.703 4.532,82.048 3.547,82 C2.609,82.094 2.094,82.587 2,83.477 C2.094,84.368 2.609,84.86 3.547,84.953 L3.688,84.953 C3.734,84.953 3.782,84.93 3.828,84.883 L3.899,84.883 C3.852,85.634 3.36,86.524 2.422,87.555 C2.281,87.696 2.187,87.79 2.141,87.836 L2.844,88.328 C4.344,86.735 5.094,85.282 5.094,83.969 Z" id="Stroke-9"></path>
                            <path d="M7.3125,99.4062 L7.3125,104.2582 L0.6325,104.2582 L0.6325,105.1722 L15.8905,105.1722 L15.8905,104.2582 L9.7735,104.2582 L9.7735,99.4062 L14.6955,99.4062 L14.6955,98.4222 L9.7735,98.4222 L9.7735,94.0622 L15.1175,94.0622 L15.1175,93.0782 L9.7735,93.0782 L9.7735,90.2652 L7.3125,90.2652 L7.3125,93.0782 L5.3435,93.0782 C5.4845,92.4222 5.5785,91.7422 5.6255,91.0392 L2.9535,91.0392 C2.9535,91.7422 2.9285,92.4452 2.8825,93.1482 C2.0395,93.2892 1.4065,93.7112 0.9845,94.4142 C0.3755,95.3982 0.3755,96.2662 0.9845,97.0152 C1.6875,97.6252 2.5065,97.6482 3.4455,97.0862 C4.1015,96.6172 4.6645,95.6092 5.1325,94.0622 L7.3125,94.0622 L7.3125,98.4222 L2.1095,98.4222 L2.1095,99.4062 L7.3125,99.4062 Z M0.9845,96.3832 C0.7035,95.1642 1.3115,94.3912 2.8125,94.0622 C2.5775,95.2812 2.3205,96.0552 2.0395,96.3832 C1.5705,96.8042 1.2185,96.8042 0.9845,96.3832 Z" id="Stroke-11"></path>
                            <path d="M12.1641,116.0703 C11.8361,114.3833 11.6471,112.8833 11.6021,111.5703 L15.4691,111.5703 L15.4691,110.5863 L14.6951,110.5863 C14.9301,110.4453 15.0471,110.2343 15.0471,109.9533 C15.0931,109.7193 14.7661,109.1093 14.0621,108.1253 L11.9531,109.0393 C12.3751,109.6013 12.6801,110.1173 12.8671,110.5863 L11.6021,110.5863 L11.6021,108.1953 L9.0001,108.1953 L9.0001,110.5863 L1.6171,110.5863 L1.6171,114.6643 C0.6331,116.3053 0.0941,118.3203 0.0001,120.7113 C0.0001,122.5393 0.3511,123.4533 1.0551,123.4533 C2.2731,123.1723 3.1871,121.6723 3.7971,118.9533 C4.0781,117.5473 4.2191,116.0943 4.2191,114.5933 L5.1331,114.5933 C5.6951,114.5933 5.9521,114.8523 5.9061,115.3673 L5.9061,119.5863 C5.6711,120.6173 5.0621,120.8283 4.0781,120.2183 L3.7261,120.5003 C4.4761,121.3433 5.3671,121.7893 6.3981,121.8363 C7.6171,121.7423 8.2721,121.0623 8.3671,119.7973 L8.3671,115.2973 C8.2721,114.3123 7.7341,113.7743 6.7501,113.6793 L4.2191,113.6793 L4.2191,111.5703 L9.0001,111.5703 C9.0461,113.5393 9.4221,115.7893 10.1251,118.3203 C10.1711,118.6493 10.2661,118.9533 10.4061,119.2343 C9.3271,120.6403 8.1561,121.9063 6.8911,123.0313 L7.3121,123.3823 C9.0461,122.4453 10.2891,121.6253 11.0391,120.9223 C12.0691,122.7023 12.9831,123.5933 13.7811,123.5933 C15.0931,123.5933 15.7501,122.3513 15.7501,119.8673 L15.0471,119.7263 C14.9521,120.6643 14.7661,121.1323 14.4841,121.1323 C14.0161,121.0393 13.5001,120.2663 12.9371,118.8123 C14.0621,117.2193 14.9061,115.3443 15.4691,113.1873 L13.0781,113.1873 C12.8911,114.2193 12.5861,115.1803 12.1641,116.0703 Z M1.6171,116.1403 C1.5701,119.3283 1.2411,121.3673 0.6331,122.2573 C0.4451,122.3983 0.3511,121.8833 0.3511,120.7113 C0.4451,118.3673 0.8671,116.5623 1.6171,115.2973 L1.6171,116.1403 Z" id="Stroke-13"></path>
                            <path d="M8.0859,132.3125 L7.1019,132.3125 L7.1019,128.0235 C7.0549,127.0395 6.4689,126.5005 5.3439,126.4065 L0.7739,126.4065 L0.7739,136.8125 L2.2499,136.8125 L2.2499,127.4605 L5.1329,127.4605 C5.4139,127.5085 5.5779,127.6485 5.6249,127.8825 L5.6249,136.8125 L7.1019,136.8125 L7.1019,133.2265 L8.0859,133.2265 L8.0859,139.6955 C8.1319,140.7725 8.6939,141.4055 9.7729,141.5935 C10.5229,141.6405 11.3909,141.2655 12.3749,140.4685 C12.6089,140.3285 12.7499,140.2345 12.7969,140.1875 C13.2649,140.6555 13.8049,141.1245 14.4139,141.5935 L16.1719,139.3435 C15.7959,139.1565 15.3039,138.8515 14.6949,138.4295 C14.5079,138.2895 14.3669,138.1955 14.2729,138.1485 C14.6479,137.3525 14.8359,136.5555 14.8359,135.7575 C14.7409,134.6805 14.1559,134.0945 13.0779,133.9995 C11.9989,134.0475 11.3439,134.6095 11.1089,135.6875 C10.9689,136.6255 11.1799,137.6095 11.7419,138.6405 C11.9769,138.9695 12.1879,139.3205 12.3749,139.6955 C11.8579,140.0705 11.4839,140.2575 11.2499,140.2575 C10.8279,140.2575 10.6169,140.0705 10.6169,139.6955 L10.6169,133.2265 L15.7499,133.2265 L15.7499,132.3125 L10.6169,132.3125 L10.6169,131.3985 C13.0079,130.3205 14.7409,128.8675 15.8199,127.0395 L12.5859,127.0395 C12.1639,128.3045 11.5069,129.3365 10.6169,130.1325 L10.6169,126.1955 L8.0859,126.1955 L8.0859,132.3125 Z M2.8829,134.9845 C2.8829,135.6875 2.8579,136.3905 2.8129,137.0935 L2.6719,137.0935 C1.4519,137.3285 0.6789,138.1025 0.3519,139.4145 C0.2109,140.4915 0.5159,141.1475 1.2659,141.3825 C2.1549,141.6165 2.9769,141.2425 3.7269,140.2575 C4.0539,139.6025 4.2649,139.0625 4.3589,138.6405 C4.4049,138.6405 4.4529,138.6875 4.4999,138.7815 C4.5459,138.8285 4.5699,138.8755 4.5699,138.9215 C5.1329,139.7655 5.5079,140.6795 5.6949,141.6645 L7.7339,140.1175 C7.0309,139.0395 6.2809,138.2425 5.4839,137.7265 C5.4379,137.6805 5.3669,137.6335 5.2729,137.5855 C5.0379,137.4925 4.8519,137.4225 4.7109,137.3745 C4.8519,136.5315 4.9219,135.7115 4.9219,134.9145 L4.9219,128.4455 L2.8829,128.4455 L2.8829,134.9845 Z M12.1639,135.3355 C12.1169,134.5865 12.4689,134.2345 13.2189,134.2815 C13.9679,134.4695 14.3899,134.8915 14.4839,135.5465 C14.5299,136.2975 14.3439,137.0705 13.9219,137.8675 C13.6869,137.5855 13.4299,137.3285 13.1479,137.0935 C12.4909,136.3445 12.1639,135.7575 12.1639,135.3355 Z M1.1249,140.6795 C0.7489,140.5855 0.5859,140.2115 0.6329,139.5545 C1.0079,138.3365 1.6629,137.6805 2.6019,137.5855 L2.6719,137.5855 C2.4839,138.7585 2.3199,139.5085 2.1799,139.8355 C1.8519,140.4915 1.4999,140.7725 1.1249,140.6795 Z" id="Stroke-15"></path>
                            <path d="M1.9687,144.6123 C2.6247,145.5503 3.1397,146.2063 3.5157,146.5813 C3.7017,146.7693 3.9837,146.8623 4.3597,146.8623 C4.5937,146.8623 4.9457,146.7693 5.4137,146.5813 C7.2877,145.7843 8.9757,145.1993 10.4767,144.8233 C10.6167,144.7773 10.7107,144.7773 10.7577,144.8233 C10.8037,144.8703 10.7817,144.9413 10.6877,145.0343 C10.4067,145.6443 9.9137,146.3473 9.2107,147.1433 L1.0547,147.1433 L1.0547,154.6673 L6.7497,154.6673 L6.7497,156.0733 L0.2107,156.0733 L0.2107,157.1283 L6.7497,157.1283 L6.7497,159.4483 L9.2807,159.4483 L9.2807,157.1283 L15.8907,157.1283 L15.8907,156.0733 L9.2807,156.0733 L9.2807,154.6673 L13.2187,154.6673 C14.3437,154.5733 14.9517,153.9643 15.0467,152.8393 L15.0467,149.1123 C14.9517,147.8463 14.2487,147.1913 12.9377,147.1433 L12.5857,147.1433 C13.4297,146.1133 13.8047,145.4333 13.7107,145.1043 C13.7107,144.4483 13.3127,144.1203 12.5157,144.1203 C11.9987,143.9793 10.0547,144.5193 6.6797,145.7373 C6.3987,145.8783 6.1627,145.8323 5.9767,145.5963 C5.8357,145.4103 5.6487,145.1293 5.4137,144.7533 C5.1787,144.4253 4.9917,144.1673 4.8517,143.9793 L1.9687,144.6123 Z M3.5857,153.6823 L6.7497,153.6823 L6.7497,151.4323 L3.5857,151.4323 L3.5857,153.6823 Z M12.4457,153.0503 C12.3987,153.4253 12.2097,153.6363 11.8827,153.6823 L9.2807,153.6823 L9.2807,151.4323 L12.4457,151.4323 L12.4457,153.0503 Z M3.5857,150.3783 L6.7497,150.3783 L6.7497,148.1983 L3.5857,148.1983 L3.5857,150.3783 Z M9.2807,150.3783 L9.2807,148.1983 L11.8127,148.1983 C12.1877,148.2453 12.3987,148.4563 12.4457,148.8313 L12.4457,150.3783 L9.2807,150.3783 Z" id="Stroke-17"></path>
                            <path d="M6.75,162.125 L6.75,164.656 L5.414,164.656 C5.555,164.094 5.648,163.531 5.695,162.969 L2.953,162.969 C2.953,163.579 2.906,164.141 2.812,164.656 C1.359,164.891 0.608,165.735 0.563,167.187 C0.516,168.266 1.008,168.782 2.039,168.734 C3.305,168.641 4.312,167.609 5.063,165.641 L6.75,165.641 L6.75,167.398 C6.75,168.102 6.726,168.782 6.68,169.437 L0.352,169.437 L0.352,170.422 L6.539,170.422 C6.539,170.516 6.515,170.657 6.469,170.844 C6.422,171.079 6.374,171.243 6.328,171.336 C2.625,171.711 0.563,173.282 0.141,176.047 C0.234,176.937 0.844,177.429 1.969,177.523 C2.858,177.476 3.82,177.195 4.852,176.68 C6.726,175.836 8.016,174.289 8.719,172.039 C10.641,172.79 12.21,174.641 13.43,177.594 L16.102,175.977 C13.805,173.164 11.414,171.665 8.93,171.477 C9.023,171.102 9.094,170.75 9.141,170.422 L15.891,170.422 L15.891,169.437 L9.281,169.437 C9.375,168.594 9.422,167.727 9.422,166.836 L9.422,165.641 L15.047,165.641 L15.047,164.656 L9.422,164.656 L9.422,162.125 L6.75,162.125 Z M1.477,176.75 C0.914,176.703 0.608,176.421 0.563,175.906 C0.984,173.422 2.858,172.016 6.188,171.688 C5.766,173.188 4.852,174.547 3.445,175.766 C2.647,176.328 1.992,176.656 1.477,176.75 Z M0.844,167.258 C0.844,166.321 1.43,165.781 2.602,165.641 C2.32,167.187 1.898,167.985 1.336,168.031 C1.055,168.031 0.89,167.774 0.844,167.258 Z" id="Stroke-19"></path>
                            <path d="M9.7734,180.6875 C9.6784,181.6715 9.6084,182.3525 9.5624,182.7265 C8.6714,182.9615 8.1094,183.6175 7.8754,184.6955 C8.0614,186.6175 8.7644,187.2265 9.9844,186.5235 C10.6874,185.8675 11.2734,184.8355 11.7424,183.4295 L12.5864,183.4295 C12.6314,184.4615 12.5154,185.8905 12.2344,187.7185 C11.7174,187.3915 11.1794,187.2735 10.6174,187.3675 C9.4454,187.6025 8.6714,188.7735 8.2964,190.8825 C8.0614,193.1325 8.5074,194.6325 9.6324,195.3825 C10.6634,195.8515 11.7654,195.0775 12.9374,193.0625 L12.9374,192.9925 C13.0784,193.7895 13.1944,194.6555 13.2894,195.5935 L15.7504,194.1875 C15.1874,192.4535 14.6254,191.0935 14.0624,190.1095 C14.5784,188.3755 14.8814,186.1485 14.9764,183.4295 L15.8204,183.4295 L15.8204,182.4455 L11.9534,182.4455 C12.0934,181.8825 12.2104,181.1335 12.3044,180.1955 L9.7734,180.1955 C9.7264,180.6645 9.7264,180.8285 9.7734,180.6875 Z M2.9534,187.1565 C2.9534,188.7505 2.9284,190.0865 2.8824,191.1645 C1.3354,191.4455 0.3974,192.2185 0.0704,193.4845 C0.2104,195.3585 1.1954,195.8975 3.0234,195.1015 C3.9134,194.3985 4.4754,193.5315 4.7114,192.5005 C5.3674,193.2975 5.8814,194.3045 6.2574,195.5235 L8.2264,194.0465 C7.1474,192.6405 6.0464,191.7265 4.9214,191.3045 C4.9214,191.2585 4.9454,191.1645 4.9924,191.0235 C5.1324,189.6175 5.2034,188.5165 5.2034,187.7185 L5.2034,182.6565 L2.9534,182.6565 L2.9534,187.1565 Z M0.4924,190.8125 L2.3204,190.8125 L2.3204,181.5315 L5.0624,181.5315 C5.5304,181.5315 5.7654,181.7665 5.7654,182.2345 L5.7654,190.8125 L7.5934,190.8125 L7.5934,182.1645 C7.6394,181.0395 7.1014,180.5005 5.9764,180.5465 L0.4924,180.5465 L0.4924,190.8125 Z M8.6484,193.2035 C8.5074,192.2665 8.5074,191.3985 8.6484,190.6015 C8.9754,189.0545 9.4674,188.2105 10.1254,188.0705 C10.7814,187.8835 11.3904,188.3755 11.9534,189.5465 C11.2504,192.4065 10.3814,194.0235 9.3514,194.3985 C9.0234,194.3045 8.7894,193.9065 8.6484,193.2035 Z M0.7034,194.4685 C0.2344,194.0005 0.2814,193.3435 0.8434,192.5005 C1.3594,191.8915 2.0394,191.5625 2.8824,191.5155 C2.3664,193.8595 1.6404,194.8435 0.7034,194.4685 Z M8.4374,185.8205 C8.2504,185.6335 8.1794,185.2815 8.2264,184.7655 C8.3204,184.1095 8.7184,183.7105 9.4214,183.5705 C9.1864,185.1645 8.8594,185.9145 8.4374,185.8205 Z" id="Stroke-21"></path>
                            <path d="M5.48321525,211.0078 C5.40565672,212.1798 4.90928211,212.7898 3.9908258,212.8358 C3.0723695,212.7898 2.57436208,212.1798 2.49843636,211.0078 C2.57436208,209.8828 3.0723695,209.2978 3.9908258,209.2498 C4.90928211,209.2978 5.40565672,209.8828 5.48321525,211.0078 Z M6,211.0078 C5.88488681,209.5078 5.21543421,208.7118 3.9908258,208.6168 C2.76540099,208.7118 2.11554213,209.5078 2.0388,211.0078 C2.11554213,212.5548 2.76540099,213.3758 3.9908258,213.4688 C5.21543421,213.3758 5.88488681,212.5548 6,211.0078 Z" id="Stroke-23" fill="#000000"></path>
                        </g>
                        <text id="我太穷了，生成账单失败。" font-family="FZCHYJW--GB1-0, FZCuHuoYi-M25S" font-size="18.1786" font-weight="normal" line-spacing="18" fill="#FFFFFF">
                            <tspan x="0" y="17">我</tspan>
                            <tspan x="0" y="35">太</tspan>
                            <tspan x="0" y="53">穷</tspan>
                            <tspan x="0" y="71">了</tspan>
                            <tspan x="0" y="89">，</tspan>
                            <tspan x="0" y="107">生</tspan>
                            <tspan x="0" y="125">成</tspan>
                            <tspan x="0" y="143">账</tspan>
                            <tspan x="0" y="161">单</tspan>
                            <tspan x="0" y="179">失</tspan>
                            <tspan x="0" y="197">败</tspan>
                            <tspan x="0" y="215">。</tspan>
                        </text>
                    </g>
                </g>
            </g>
        </g>
    </g>
</svg>